<?xml version="1.0" standalone="no"?>
<!DOCTYPE svg PUBLIC "-//W3C//DTD SVG 1.1//EN" "http://www.w3.org/Graphics/SVG/1.1/DTD/svg11.dtd" >
<svg>
<metadata>
Created by FontForge 20090914 at Wed Nov 27 19:34:41 2024
 By www-data
Copyright (c) 2011 by David Kerkhoff. All rights reserved.
</metadata>
<defs>
<font id="NeuesBauen" horiz-adv-x="560" >
  <font-face 
    font-family="Neues Bauen"
    font-weight="400"
    font-stretch="normal"
    units-per-em="1000"
    panose-1="2 15 6 3 6 6 7 6 8 0"
    ascent="800"
    descent="-200"
    x-height="489"
    cap-height="696"
    bbox="-134 -227.003 1064 943.998"
    underline-thickness="50"
    underline-position="-50"
    unicode-range="U+0020-U+FB02"
  />
<missing-glyph horiz-adv-x="327" 
 />
    <glyph glyph-name=".notdef" horiz-adv-x="327" 
 />
    <glyph glyph-name="space" unicode=" " horiz-adv-x="500" 
 />
    <glyph glyph-name="exclam" unicode="!" horiz-adv-x="192" 
d="M51 209v490h91v-490h-91zM50 1v98h91v-98h-91z" />
    <glyph glyph-name="quotedbl" unicode="&#x22;" horiz-adv-x="359" 
d="M309 703v-97c0 -32 -7.5 -56.167 -22.5 -72.5s-33.167 -24.5 -54.5 -24.5h-6c-0.666992 0.666992 -2.33398 1 -5.00098 1h-4v35l8 -2c0.666992 -0.666992 3 -1 7 -1c12.667 0 23.334 5 32.001 15s13 24.667 13 44v4h-60v98h92zM141 703l-0.00195312 -95.999
c0 -32 -7.33301 -56.167 -22 -72.5s-32.667 -24.5 -54 -24.5h-11c-2 0 -3 0.333008 -3 1v35c2.66699 -0.666992 4.83398 -1.33398 6.50098 -2.00098s4.16699 -1 7.5 -1c12.667 0 23.334 4.83301 32.001 14.5s13 24.167 13 43.5v5h-60v97h91z" />
    <glyph glyph-name="numbersign" unicode="#" horiz-adv-x="469" 
d="M87 602v102h68v-102h157v97h68v-97h51v-113h-51v-279h51v-113h-51v-103h-68v103h-157v-97h-68v97h-50v113h50v279h-50v113h50zM155 210h157v279h-157v-279z" />
    <glyph glyph-name="dollar" unicode="$" horiz-adv-x="614" 
d="M375 701l0.000976562 -7.00195l42 -12v-101l-42 15v-103h187c0 -18.667 0.333008 -36 1 -52s1 -31 1 -45c0 -43.333 -0.666992 -77.833 -2 -103.5s-3 -45.667 -5 -60s-4.33301 -24.833 -7 -31.5s-4.66699 -12.667 -6 -18c-14.667 -42 -37.167 -77.333 -67.5 -106
s-64.166 -49.667 -101.499 -63v-17h-91v3c-15.333 0.666992 -30.333 2.33398 -45 5.00098s-28.667 6.66699 -42 12l-10 5v108c29.333 -18.667 61.666 -29.667 96.999 -33v298h-234v35c0.666992 0.666992 1.16699 2.83398 1.5 6.50098s1.16602 7.5 2.49902 11.5l3 24
c6 29.333 16.167 56.666 30.5 81.999s31.5 47.833 51.5 67.5s42.5 35.834 67.5 48.501s50.833 21 77.5 25v6h91zM375.001 394.998l-0.000976562 -276.998c38 21.333 66.333 53.666 85 96.999c0.666992 2.66699 1.83398 6 3.50098 10s3.16699 10.333 4.5 19
s2.33301 20.667 3 36s1 35.666 1 60.999c0 7.33301 -0.166992 15.5 -0.5 24.5s-0.5 18.833 -0.5 29.5h-96zM171 493h113v100c-24.667 -7.33301 -46.667 -19.5 -66 -36.5s-35 -38.167 -47 -63.5z" />
    <glyph glyph-name="percent" unicode="%" horiz-adv-x="490" 
d="M176 -1h-64l199 702h61zM257 197c3.33301 23.333 13.832 42.6699 31.499 58.0029s37.834 23 60.501 23c25.333 0 46.833 -9.33301 64.5 -28s26.5 -42 26.5 -70v-86c0 -13.333 -2.66699 -25.833 -8 -37.5s-12.5 -21.834 -21.5 -30.501s-19 -15.334 -30 -20.001
s-22.167 -7 -33.5 -7c-22 0 -41 7.16699 -57 21.5s-27 33.166 -33 56.499v120zM49.999 620.004c4 23.333 14.3311 42.332 30.998 56.999s36 22 58 22c25.333 0 46.833 -9.33301 64.5 -28s26.5 -41.334 26.5 -68.001v-85c0 -13.333 -2.66699 -25.666 -8 -36.999
s-12.166 -21.166 -20.499 -29.499s-18.166 -14.833 -29.499 -19.5s-22.333 -7 -33 -7c-22.667 0 -42 7 -58 21s-26.333 32.333 -31 55v119zM293.997 78.0029c4.66699 -11.333 11.834 -20.833 21.501 -28.5s20.167 -11.5 31.5 -11.5c12 0 23.167 3.83301 33.5 11.5
s17.5 17.167 21.5 28.5v117c-4 10.667 -10 20.5 -18 29.5s-18 13.5 -30 13.5h-15c-1.33301 -0.666992 -2.5 -1 -3.5 -1s-2.16699 -0.333008 -3.5 -1c-8.66699 -2 -16.334 -7 -23.001 -15s-11.667 -16.667 -15 -26v-117zM85.9971 502.003
c5.33301 -11.333 12.5029 -20.667 21.5029 -28s19.5 -11 31.5 -11c10.667 0 21.167 3.83301 31.5 11.5s17.5 17.167 21.5 28.5v114c-3.33301 10 -8.83301 19.667 -16.5 29s-17.834 14 -30.501 14h-15c-0.666992 -0.666992 -1.83398 -1 -3.50098 -1s-2.5 -0.333008 -2.5 -1
c-9.33301 -2 -17.333 -7 -24 -15s-11.334 -16.667 -14.001 -26v-115z" />
    <glyph glyph-name="ampersand" unicode="&#x26;" horiz-adv-x="590" 
d="M505 202l0.00292969 -1.99902c0 -22 -6.33301 -44.667 -19 -68s-29 -44.833 -49 -64.5s-42 -35.834 -66 -48.501s-47.667 -19 -71 -19h-41c-23.333 0 -47.333 6 -72 18s-47.167 28.167 -67.5 48.5s-37 44 -50 71s-19.5 55.167 -19.5 84.5v44c0 26 6.66699 52.5 20 79.5
s28.333 50.5 45 70.5c-13.333 21.333 -20 50.333 -20 87c0 26.667 4.83301 52 14.5 76s22.834 44.833 39.501 62.5s36 31.667 58 42s46 15.5 72 15.5c24.667 0 48 -5.16699 70 -15.5s41.667 -24.166 59 -41.499s30.666 -37.833 39.999 -61.5s14 -48.834 14 -75.501v-6
c0 -2 -0.333008 -3 -1 -3h-90c0 30 -8.66699 55 -26 75s-39 30 -65 30s-48 -9.33301 -66 -28s-27 -42 -27 -70v-7c0 -4 0.666992 -9 2 -15s3 -9.33301 5 -10l85 18v-98l-45 -9c-14.667 -4.66699 -27.5 -11.667 -38.5 -21s-20.5 -20.166 -28.5 -32.499
s-14.167 -25.833 -18.5 -40.5s-6.5 -29.334 -6.5 -44.001c0 -20 3.66699 -38.833 11 -56.5s17.166 -33.167 29.499 -46.5s26.666 -23.833 42.999 -31.5s34.166 -11.5 53.499 -11.5c30 0 57.167 9.33301 81.5 28s40.833 44 49.5 76h95zM540.003 350.001v-90h-260v90h260z" />
    <glyph glyph-name="quotesingle" unicode="'" horiz-adv-x="191" 
d="M141 703l-0.00195312 -95.999c0 -32 -7.33301 -56.167 -22 -72.5s-32.667 -24.5 -54 -24.5h-11c-2 0 -3 0.333008 -3 1l-1 35h1c2.66699 -0.666992 4.83398 -1.33398 6.50098 -2.00098s4.16699 -1 7.5 -1c12.667 0 23.334 4.83301 32.001 14.5s13 24.167 13 43.5v5h-60
v97h91z" />
    <glyph glyph-name="parenleft" unicode="(" horiz-adv-x="297" 
d="M37 351c0 48.667 4.83008 94.167 14.4971 136.5s23.834 79.166 42.501 110.499s41.834 56 69.501 74s59.834 27 96.501 27v-122c-24 0 -44.333 -5.83301 -61 -17.5s-30 -27.5 -40 -47.5s-17.167 -43.833 -21.5 -71.5s-6.5 -57.5 -6.5 -89.5
c0 -33.333 2.16699 -64 6.5 -92s11.5 -52.167 21.5 -72.5s23 -36.166 39 -47.499s36.333 -17 61 -17v-121c-32.667 0 -62.5 8.5 -89.5 25.5s-50.333 41 -70 72s-35 67.833 -46 110.5s-16.5 90 -16.5 142z" />
    <glyph glyph-name="parenright" unicode=")" horiz-adv-x="297" 
d="M260 351c0 -52 -5.66797 -99.333 -17.001 -142s-26.833 -79.5 -46.5 -110.5s-43 -55 -70 -72s-56.167 -25.5 -87.5 -25.5v121c24 0 44.167 5.66699 60.5 17s29.5 27.166 39.5 47.499s17 44.5 21 72.5s6 58.667 6 92c0 32 -2.33301 61.833 -7 89.5s-12 51.5 -22 71.5
s-23.333 35.833 -40 47.5s-36.667 17.5 -60 17.5v122c36 0 67.833 -9 95.5 -27s50.834 -42.667 69.501 -74s33 -68.166 43 -110.499s15 -87.833 15 -136.5z" />
    <glyph glyph-name="asterisk" unicode="*" horiz-adv-x="364" 
d="M311 325h-66l69 -73l-38 -39l-72 78v-77h-48v71l-66 -71l-38 39l68 71h-70v52h75l-73 78l38 38l66 -71v72h48v-80l73 79l37 -38l-70 -77h67v-52z" />
    <glyph glyph-name="plus" unicode="+" horiz-adv-x="362" 
d="M50 164v92h87v93h88v-93h87v-92h-87v-94h-88v94h-87z" />
    <glyph glyph-name="comma" unicode="," horiz-adv-x="191" 
d="M141 99l-0.00195312 -96.999c0 -32 -7.33301 -56.167 -22 -72.5s-32.667 -24.5 -54 -24.5h-11c-2 0 -3 0.333008 -3 1l-1 35h1c2.66699 -0.666992 4.83398 -1.33398 6.50098 -2.00098s4.16699 -1 7.5 -1c12.667 0 23.334 4.83301 32.001 14.5s13 24.167 13 43.5v5h-60v98
h91z" />
    <glyph glyph-name="hyphen" unicode="-" horiz-adv-x="390" 
d="M340 263v-101h-290v101h290z" />
    <glyph glyph-name="period" unicode="." horiz-adv-x="191" 
d="M141 99v-98h-91v98h91z" />
    <glyph glyph-name="slash" unicode="/" horiz-adv-x="357" 
d="M99 -1l-62 48l224 652l59 -49z" />
    <glyph glyph-name="zero" unicode="0" horiz-adv-x="559" 
d="M51 195v86.001c0 20 -0.166992 40.667 -0.5 62s-0.5 41.666 -0.5 60.999v94c4 29.333 13.167 56.333 27.5 81s31.833 46 52.5 64s43.667 32 69 42s52 15 80 15c30.667 0 60 -6.5 88 -19.5s52.5 -30.667 73.5 -53s37.667 -48.333 50 -78s18.5 -61.5 18.5 -95.5v-217
c0 -34 -6.66699 -65.5 -20 -94.5s-30.833 -54 -52.5 -75s-46.5 -37.5 -74.5 -49.5s-56.333 -18 -85 -18c-28 -0 -54.333 4.83301 -79 14.5s-47 23 -67 40s-36.833 37.5 -50.5 61.5s-23.5 50.333 -29.5 79zM142 197.001c12.667 -30 30.833 -54.001 54.5 -72.001
s50.5 -27 80.5 -27s57.833 9.5 83.5 28.5s43.5 42.833 53.5 71.5v292c-5.33301 12.667 -11.666 25.5 -18.999 38.5s-16 24.833 -26 35.5s-21.333 19.334 -34 26.001s-26.334 10 -41.001 10h-33c-28 -4.66699 -52.5 -16 -73.5 -34s-36.167 -43 -45.5 -75v-294z" />
    <glyph glyph-name="one" unicode="1" horiz-adv-x="491" 
d="M240 97l0.000976562 497.003c-27.333 -9.33301 -46.833 -22.333 -58.5 -39s-21.834 -36.667 -30.501 -60l-1 -2h-99c0 18.667 4.16699 38.167 12.5 58.5s19.833 39.5 34.5 57.5s31.167 34.167 49.5 48.5s37.5 25.166 57.5 32.499c4.66699 3.33301 11 5.66602 19 6.99902
s13.667 2.66602 17 3.99902h96v-604h104v-98h-391v98h190z" />
    <glyph glyph-name="two" unicode="2" horiz-adv-x="567" 
d="M406 400c10 14.667 15 34.3311 15 58.998c0 15.333 -2.66699 31.333 -8 48s-13.5 31.834 -24.5 45.501s-24.167 25 -39.5 34s-33.333 13.5 -54 13.5h-33c-15.333 0 -29.333 -3.33301 -42 -10s-23.834 -15.167 -33.501 -25.5s-18 -22 -25 -35s-12.5 -25.5 -16.5 -37.5h-94
c0 9.33301 1.5 19.166 4.5 29.499s5.83301 19.5 8.5 27.5c20 46 48.5 82.5 85.5 109.5s80.5 40.5 130.5 40.5c31.333 0 61.5 -6.16699 90.5 -18.5s54.333 -29.166 76 -50.499s38.834 -46.5 51.501 -75.5s19 -60.167 19 -93.5c-1.33301 -11.333 -2.5 -22 -3.5 -32
s-3.33301 -20.833 -7 -32.5s-10 -25.167 -19 -40.5s-22.5 -34.666 -40.5 -57.999s-41.333 -51.333 -70 -84s-64.667 -71.667 -108 -117h241v-97h-460z" />
    <glyph glyph-name="three" unicode="3" horiz-adv-x="555" 
d="M145 202c8 -32 24.3311 -57.332 48.998 -75.999s52 -28 82 -28c18.667 0 36.334 3.83301 53.001 11.5s31.167 18.167 43.5 31.5s22 28.833 29 46.5s10.5 36.5 10.5 56.5c0 14.667 -2.16699 29.334 -6.5 44.001s-10.5 28.167 -18.5 40.5s-17.667 23.166 -29 32.499
s-23.666 16.333 -36.999 21l-45 9v98l85 -18c2.66699 2 4 7 4 15l1 10c0.666992 0.666992 1 3 1 7c0 28 -8.83301 51.333 -26.5 70s-39.5 28 -65.5 28s-47.667 -10 -65 -30s-26 -45 -26 -75h-90c-1.33301 0 -2 1 -2 3v6c0 26.667 4.83301 51.834 14.5 75.501
s23 44.167 40 61.5s36.667 31.166 59 41.499s45.833 15.5 70.5 15.5c25.333 0 49.166 -5.16699 71.499 -15.5s41.833 -24.333 58.5 -42s29.834 -38.5 39.501 -62.5s14.5 -49.333 14.5 -76c0 -36.667 -6.66699 -65.667 -20 -87c16.667 -20 31.667 -43.5 45 -70.5
s20 -53.5 20 -79.5v-44c0 -29.333 -6.5 -57.5 -19.5 -84.5s-29.667 -50.667 -50 -71s-42.833 -36.5 -67.5 -48.5s-48.667 -18 -72 -18h-41c-25.333 0 -50 6.5 -74 19.5s-45.833 29.333 -65.5 49s-35.5 41.167 -47.5 64.5s-18 45.666 -18 66.999v2h95z" />
    <glyph glyph-name="four" unicode="4" horiz-adv-x="650" 
d="M52 112c-1.33301 0 -2 1 -2 3l1 1c0 2 0.333008 3.33301 1 4l250 581h102l-203 -488h219v361h94v-361h86v-101h-90v-112h-90v112h-368z" />
    <glyph glyph-name="five" unicode="5" horiz-adv-x="559" 
d="M165 147c12.667 -16 28.3311 -28.167 46.998 -36.5s38 -12.5 58 -12.5s38.667 3.83301 56 11.5s32.5 18.167 45.5 31.5s23.333 29 31 47s11.5 37.333 11.5 58c0 20 -3.83301 39 -11.5 57s-18 33.667 -31 47s-28.167 23.833 -45.5 31.5s-36 11.5 -56 11.5
s-39.333 -4.16699 -58 -12.5s-34.334 -20.5 -47.001 -36.5h-115v355h287v-99h-192v-143c41.333 23.333 83.333 35 126 35c32.667 0 63.334 -6.5 92.001 -19.5s53.834 -30.5 75.501 -52.5s38.834 -48 51.501 -78s19 -62 19 -96s-6.16699 -66 -18.5 -96
s-29.333 -56.167 -51 -78.5s-47 -39.833 -76 -52.5s-60.167 -19 -93.5 -19c-37.333 0 -74 9 -110 27s-64.333 43.333 -85 76l-15 24c-0.666992 2.66699 -2.16699 6.16699 -4.5 10.5s-3.5 6.83301 -3.5 7.5v2h113z" />
    <glyph glyph-name="six" unicode="6" horiz-adv-x="556" 
d="M142 699l0.00292969 -259.001l40 23c13.333 8 27.666 13.667 42.999 17l19 4c0.666992 0 2.66699 0.333008 6 1s5.33301 1 6 1h44c23.333 0 47.333 -6.33301 72 -19s47 -29.5 67 -50.5s36.167 -44.667 48.5 -71s18.5 -53.166 18.5 -80.499v-47
c0 -30 -6.83301 -58.333 -20.5 -85s-31.334 -50.167 -53.001 -70.5s-46 -36.333 -73 -48s-53.833 -17.5 -80.5 -17.5c-23.333 0 -46.333 3.83301 -69 11.5s-43.834 18.5 -63.501 32.5s-36.5 30.833 -50.5 50.5s-24.667 41.5 -32 65.5l-9 32c-3.33301 12 -5 22.667 -5 32v478
h92zM414.003 240.999c0 20.667 -3.66797 39.833 -11.001 57.5s-17.166 33 -29.499 46s-26.833 23.167 -43.5 30.5s-34.667 11 -54 11c-18 0 -35.167 -3.83301 -51.5 -11.5s-30.5 -18 -42.5 -31s-21.667 -28.167 -29 -45.5s-11 -36 -11 -56s3.66699 -38.667 11 -56
s17 -32.5 29 -45.5s26.167 -23.167 42.5 -30.5s33.833 -11 52.5 -11c19.333 0 37.333 3.66699 54 11s31 17.333 43 30s21.667 27.667 29 45s11 36 11 56z" />
    <glyph glyph-name="seven" unicode="7" horiz-adv-x="564" 
d="M251 394h-79.998v98h131l54 108h-300v98h103c23.333 0 47.666 0.166992 72.999 0.5s49.666 0.5 72.999 0.5h209l-360 -698h-104z" />
    <glyph glyph-name="eight" unicode="8" horiz-adv-x="557" 
d="M115 416c-13.333 21.333 -20.002 51 -20.002 89c0 26.667 4.83301 51.834 14.5 75.501s22.834 44.167 39.501 61.5s36 31.166 58 41.499s46 15.5 72 15.5c24.667 0 48.334 -5.16699 71.001 -15.5s42.334 -24.333 59.001 -42s29.667 -38.5 39 -62.5s14 -49.333 14 -76
c0 -36.667 -6.66699 -65.667 -20 -87c16.667 -20 31.667 -43.5 45 -70.5s20 -53.5 20 -79.5v-44c0 -30 -6.33301 -58.333 -19 -85s-29.334 -50.167 -50.001 -70.5s-43.167 -36.5 -67.5 -48.5s-47.833 -18 -70.5 -18h-41c-28 0 -54.667 7 -80 21s-47.5 31.667 -66.5 53
s-34.167 45.166 -45.5 71.499s-17 51.833 -17 76.5v44c0 28 6.66699 54.833 20 80.5s28.333 48.834 45 69.501zM141.998 244c0 -20 3.66602 -38.833 10.999 -56.5s17.166 -33.167 29.499 -46.5s26.666 -23.833 42.999 -31.5s34.166 -11.5 53.499 -11.5
c18.667 0 36.334 3.83301 53.001 11.5s31.334 18 44.001 31s22.5 28.5 29.5 46.5s10.5 37 10.5 57s-3.66699 38.833 -11 56.5s-17.333 33.167 -30 46.5s-27.334 23.833 -44.001 31.5s-34 11.5 -52 11.5c-19.333 0 -37.166 -3.83301 -53.499 -11.5
s-30.666 -18.167 -42.999 -31.5s-22.166 -28.833 -29.499 -46.5s-11 -36.5 -11 -56.5zM186.997 503l0.000976562 -6.99902c0 -4.66699 0.5 -9.66699 1.5 -15s2.83301 -8.66602 5.5 -9.99902c10 4 20.5 7.83301 31.5 11.5s22.167 5.5 33.5 5.5h41
c9.33301 0 20.166 -1.83301 32.499 -5.5s22.833 -7.5 31.5 -11.5c0.666992 0.666992 1.33398 2.5 2.00098 5.5s1.5 6.16699 2.5 9.5s1.66699 6.66602 2 9.99902s0.5 5.66602 0.5 6.99902c0 12.667 -2.5 25 -7.5 37s-11.5 22.5 -19.5 31.5s-17.333 16.167 -28 21.5
s-22.334 8 -35.001 8c-26.667 0 -49 -8.83301 -67 -26.5s-27 -41.5 -27 -71.5z" />
    <glyph glyph-name="nine" unicode="9" horiz-adv-x="555" 
d="M412 0l-0.00195312 258.998c-12 -9.33301 -25 -17.666 -39 -24.999s-28.333 -12.666 -43 -15.999l-18 -4c-1.33301 0 -3.66602 -0.166992 -6.99902 -0.5s-5.33301 -0.5 -6 -0.5h-44c-26 0 -51.333 7 -76 21s-46.5 31.667 -65.5 53s-34.333 45 -46 71s-17.5 51 -17.5 75
v46c0 29.333 6.66699 57.333 20 84s30.833 50 52.5 70s46 36 73 48s54.167 18 81.5 18c26.667 0 53.667 -5.83301 81 -17.5s51.833 -27.5 73.5 -47.5s39.334 -43.667 53.001 -71s20.5 -56.333 20.5 -87v-476h-93zM141.998 455.998c0 -20.667 3.66699 -39.833 11 -57.5
s17.166 -33 29.499 -46s26.666 -23.167 42.999 -30.5s34.166 -11 53.499 -11c18 0 35.167 3.83301 51.5 11.5s30.5 18 42.5 31s21.5 28.333 28.5 46s10.5 36.167 10.5 55.5c0 20 -3.5 38.667 -10.5 56s-16.5 32.5 -28.5 45.5s-26.167 23.167 -42.5 30.5s-33.5 11 -51.5 11
c-19.333 0 -37.166 -3.66699 -53.499 -11s-30.666 -17.333 -42.999 -30s-22.166 -27.667 -29.499 -45s-11 -36 -11 -56z" />
    <glyph glyph-name="colon" unicode=":" horiz-adv-x="196" 
d="M146 99v-98h-91v98h91zM141 493v-97h-91v97h91z" />
    <glyph glyph-name="semicolon" unicode=";" horiz-adv-x="191" 
d="M141 99l-0.00195312 -96.999c0 -32 -7.33301 -56.167 -22 -72.5s-32.667 -24.5 -54 -24.5h-11c-2 0 -3 0.333008 -3 1l-1 35h1c2.66699 -0.666992 4.83398 -1.33398 6.50098 -2.00098s4.16699 -1 7.5 -1c12.667 0 23.334 4.83301 32.001 14.5s13 24.167 13 43.5v5h-60v98
h91zM140.998 491.001v-98h-91v98h91z" />
    <glyph glyph-name="less" unicode="&#x3c;" horiz-adv-x="611" 
d="M137 252l424 210v-81l-335 -166l335 -136v-78l-420 170h-4l-87 36l1 2z" />
    <glyph glyph-name="equal" unicode="=" horiz-adv-x="392" 
d="M342 171v-51h-290v51h290zM340 333v-51h-290v51h290z" />
    <glyph glyph-name="greater" unicode="&#x3e;" horiz-adv-x="611" 
d="M476 252l85 -44l-86 -37h-4l-420 -170v78l334 136l-335 166v81z" />
    <glyph glyph-name="question" unicode="?" horiz-adv-x="562" 
d="M285 297l27.002 7.00293c16 2.66699 30.5 8.83398 43.5 18.501s23.833 21.167 32.5 34.5s15.5 27.833 20.5 43.5s7.5 31.167 7.5 46.5c0 20.667 -4 40.334 -12 59.001s-18.333 34.667 -31 48s-27.834 24 -45.501 32s-36.5 12 -56.5 12c-44 0 -80.333 -16.333 -109 -49
h-112v2c0 0.666992 1 3.16699 3 7.5s4 8.16602 6 11.499c22 42 51.833 74 89.5 96s78.834 33 123.501 33c33.333 0 64.666 -6.66699 93.999 -20s54.833 -31.333 76.5 -54s38.667 -49.334 51 -80.001s18.5 -63.334 18.5 -98.001c0 -24.667 -3.5 -48.834 -10.5 -72.501
s-16.667 -45.834 -29 -66.501s-27.5 -39 -45.5 -55s-38 -28.333 -60 -37c-4.66699 -2 -11.334 -4.16699 -20.001 -6.5s-17.5 -4.5 -26.5 -6.5s-16.5 -4 -22.5 -6s-9 -4 -9 -6v-46h-98v152h94zM289.002 98.0029v-101h-98v101h98z" />
    <glyph glyph-name="at" unicode="@" horiz-adv-x="694" 
d="M50 353c0 48.667 8.66602 94.168 25.999 136.501s41 79.333 71 111s65 56.667 105 75s83 27.5 129 27.5c42.667 0 83.167 -8.16699 121.5 -24.5s72.166 -39.5 101.499 -69.5l17 -18c3.33301 -3.33301 7.5 -8.5 12.5 -15.5s7.83301 -11.167 8.5 -12.5l2 -354h-67l-1 34
l-39.5 -21.5c-13 -7 -26.833 -10.5 -41.5 -10.5h-15c-24 0 -46.333 4.5 -67 13.5s-38.5 21.5 -53.5 37.5s-26.667 34.667 -35 56s-12.5 44.666 -12.5 69.999c0 24 4.5 46.5 13.5 67.5s21 39.5 36 55.5s32.5 28.667 52.5 38s41 14 63 14c15.333 0 29.833 -2.16699 43.5 -6.5
s27.167 -10.166 40.5 -17.499c3.33301 -1.33301 6.33301 -3.16602 9 -5.49902s4.33398 -3.5 5.00098 -3.5l1 14c0 0.666992 -2.66699 3.66699 -8 9l-13 13c-23.333 23.333 -50.166 41 -80.499 53s-61.833 18 -94.5 18c-36.667 0 -71 -7.33301 -103 -22
s-60 -34.834 -84 -60.501s-42.833 -55.834 -56.5 -90.501s-20.5 -71.667 -20.5 -111s6.83301 -75.833 20.5 -109.5s32.667 -63 57 -88s52.5 -44.667 84.5 -59s66.333 -21.5 103 -21.5c10.667 0 21.5 0.5 32.5 1.5s21.5 2.83301 31.5 5.5v-76c-4 -2.66699 -11 -4.5 -21 -5.5
s-20 -1.5 -30 -1.5h-15c-46 0 -89 9.33301 -129 28s-74.833 44 -104.5 76s-53 69.5 -70 112.5s-25.5 88.833 -25.5 137.5zM378.999 387.001c0 -14.667 2.66797 -28.332 8.00098 -40.999s12.5 -23.834 21.5 -33.501s19.667 -17.167 32 -22.5s25.166 -8 38.499 -8
c28 0 51.167 10.167 69.5 30.5s27.5 45.5 27.5 75.5c0 28.667 -9.33301 53 -28 73s-41.667 30 -69 30c-28.667 0 -52.5 -9.83301 -71.5 -29.5s-28.5 -44.5 -28.5 -74.5z" />
    <glyph glyph-name="A" unicode="A" horiz-adv-x="620" 
d="M51 481c2 30.667 10.166 59.332 24.499 85.999s33.5 49.834 57.5 69.501s51.167 35 81.5 46s62.5 16.5 96.5 16.5c32 0 63.333 -6.16699 94 -18.5s58.334 -29 83.001 -50s44.5 -45.833 59.5 -74.5s22.5 -59 22.5 -91v-462h-101v392h-315v-396h-104zM310.999 598.998
c-34.667 0 -66.166 -9.66699 -94.499 -29s-46.833 -45 -55.5 -77h299c-8.66699 32 -26.834 57.667 -54.501 77s-59.167 29 -94.5 29z" />
    <glyph glyph-name="B" unicode="B" horiz-adv-x="621" 
d="M154 1h-103.998v698h104l1 -8c28 5.33301 45 8 51 8c22 0 42.5 -3.83301 61.5 -11.5s35.667 -18.167 50 -31.5s25.666 -28.666 33.999 -45.999s12.5 -36 12.5 -56c0 -5.33301 -0.666992 -11.5 -2 -18.5s-2.83301 -13.833 -4.5 -20.5s-3.5 -12.334 -5.5 -17.001
s-3.66699 -7 -5 -7v-1c30 -5.33301 58.333 -14.5 85 -27.5s50.5 -29.333 71.5 -49s37.5 -42.5 49.5 -68.5s18 -54.333 18 -85v-14c0 -34 -6.83301 -65.833 -20.5 -95.5s-32.334 -55.5 -56.001 -77.5s-51.167 -39.5 -82.5 -52.5s-65 -19.5 -101 -19.5
c-30 0 -57.667 4.5 -83 13.5s-50 21.5 -74 37.5v-51zM206.002 603c-10.667 0 -21.666 -4.00195 -32.999 -12.002s-17 -17.333 -17 -28v-332c0 -19.333 4.83301 -37.166 14.5 -53.499s22.167 -30.333 37.5 -42s32.333 -20.667 51 -27s37.334 -9.5 56.001 -9.5
c20.667 0 40.167 4 58.5 12s34.333 18.667 48 32s24.5 29 32.5 47s12 37 12 57s-4 39 -12 57s-18.833 33.833 -32.5 47.5s-29.834 24.334 -48.501 32.001s-39.334 11.5 -62.001 11.5c-8 0 -16.167 -0.666992 -24.5 -2s-16.833 -3 -25.5 -5h-2v175
c-2.66699 12 -9 21.667 -19 29s-21.333 11 -34 11z" />
    <glyph glyph-name="C" unicode="C" horiz-adv-x="564" 
d="M50 351c0 48.667 9.16797 94.167 27.501 136.5s43.166 79.333 74.499 111s68.166 56.667 110.499 75s87.833 27.5 136.5 27.5c21.333 0 53.333 -4.66699 96 -14c3.33301 0 7 -0.833008 11 -2.5s6.66699 -2.5 8 -2.5v-123c-33.333 16.667 -69 25 -107 25
c-31.333 0 -61.166 -6.16699 -89.499 -18.5s-53.166 -29 -74.499 -50s-38 -45.667 -50 -74s-18 -58.5 -18 -90.5c0 -33.333 6 -64.166 18 -92.499s28.667 -53 50 -74s46.166 -37.333 74.499 -49s59.166 -17.5 92.499 -17.5c38 0 72.667 8.33301 104 25v-123
c-1.33301 0 -4 -0.833008 -8 -2.5s-7.66699 -2.83398 -11 -3.50098c-22 -8.66699 -54.667 -13 -98 -13c-48 0 -93 9.16699 -135 27.5s-78.667 43.5 -110 75.5s-56.166 69.167 -74.499 111.5s-27.5 87.5 -27.5 135.5z" />
    <glyph glyph-name="D" unicode="D" horiz-adv-x="631" 
d="M50 -4l0.000976562 703.998h102v-27h5c32.667 12 66.667 18 102 18c44.667 0 86.667 -9 126 -27s73.5 -42.667 102.5 -74s51.833 -68.166 68.5 -110.499s25 -87.5 25 -135.5c0 -47.333 -8.16699 -92.166 -24.5 -134.499s-38.833 -79.333 -67.5 -111
s-62.334 -56.667 -101.001 -75s-80.667 -27.5 -126 -27.5c-42 0 -78.667 6.33301 -110 19v-19h-102zM251.001 111.998c30 0 58.1699 6 84.5029 18s49 28.5 68 49.5s34.167 45.667 45.5 74s17 58.5 17 90.5s-5.33301 62 -16 90s-25.834 52.5 -45.501 73.5
s-42.5 37.5 -68.5 49.5s-54 18 -84 18c-17.333 0 -45 -5.66699 -83 -17c-2.66699 0 -5.83398 -1.66699 -9.50098 -5s-6.16699 -5 -7.5 -5v-411c11.333 -6.66699 26.666 -12.5 45.999 -17.5s37 -7.5 53 -7.5z" />
    <glyph glyph-name="E" unicode="E" horiz-adv-x="567" 
d="M50 349c0 48 9.16211 93.333 27.4951 136s43.5 79.834 75.5 111.501s69.333 56.667 112 75s88 27.5 136 27.5c17.333 0 34.833 -1.33301 52.5 -4s34.834 -6.33398 51.501 -11.001h1c0.666992 -1.33301 2.33398 -2.33301 5.00098 -3s4.33398 -1 5.00098 -1v-122
c-16.667 8 -34 14.333 -52 19s-36.333 7 -55 7c-42 0 -82 -8 -120 -24s-66.333 -40.333 -85 -73h191v-106h-226c-1.33301 -6 -2.16602 -12 -2.49902 -18s-0.5 -11.667 -0.5 -17c0 -32 7.33301 -62 22 -90s33.5 -52.333 56.5 -73s48.833 -37 77.5 -49s57.667 -18 87 -18
c17.333 0 35.5 1.83301 54.5 5.5s36.833 10.167 53.5 19.5v-121c0 -2 -4.5 -4.16699 -13.5 -6.5s-19.833 -4.5 -32.5 -6.5s-25.667 -3.66699 -39 -5s-23.666 -2 -30.999 -2c-48 0 -93.333 9.16699 -136 27.5s-80 43.333 -112 75s-57.167 68.667 -75.5 111
s-27.5 87.5 -27.5 135.5z" />
    <glyph glyph-name="F" unicode="F" horiz-adv-x="407" 
d="M50 454c0 35.333 3.99805 67.668 11.998 97.001s22.333 54.666 43 75.999s48.334 37.833 83.001 49.5s79 17.5 133 17.5h36v-123c-8.66699 0 -17.5 0.166992 -26.5 0.5s-17.167 0.5 -24.5 0.5c-24 0 -44.167 -1 -60.5 -3s-29.833 -6 -40.5 -12s-19.167 -14.667 -25.5 -26
s-11.166 -26.333 -14.499 -45h130v-117h-140v-369h-105v454z" />
    <glyph glyph-name="G" unicode="G" horiz-adv-x="630" 
d="M475 20c-18.667 -6 -36.499 -10.6699 -53.499 -14.0029s-35.167 -5 -54.5 -5c-43.333 0 -84.166 9.16699 -122.499 27.5s-71.833 43.333 -100.5 75s-51.5 68.834 -68.5 111.501s-25.5 88 -25.5 136c0 18.667 1.16699 36.334 3.5 53.001s5.83301 33.667 10.5 51v1
c20 62.667 49.667 114.5 89 155.5s89 68.833 149 83.5l18 3c7.33301 2.66699 16.333 4 27 4h20c18 0 34.5 -1.33301 49.5 -4s30.167 -6.33398 45.5 -11.001h2c0.666992 0 2.16699 -0.5 4.5 -1.5s3.5 -1.83301 3.5 -2.5v-123c-14.667 8.66699 -30.167 15.334 -46.5 20.001
s-32.5 7 -48.5 7c-30 0 -57.833 -6.16699 -83.5 -18.5s-48.167 -29.166 -67.5 -50.499s-34.333 -46.333 -45 -75s-16 -59.334 -16 -92.001c0 -32 5.33301 -62.167 16 -90.5s25.667 -53 45 -74s41.666 -37.667 66.999 -50s52.666 -18.5 81.999 -18.5
c8 0 17.667 0.833008 29 2.5s22 3.66699 32 6s18.5 4.83301 25.5 7.5s10.5 5.33398 10.5 8.00098v236h-105v109h213v-487h-105v20z" />
    <glyph glyph-name="H" unicode="H" horiz-adv-x="622" 
d="M154 699v-208h315v208h103v-698h-103v392h-315v-392h-104v698h104z" />
    <glyph glyph-name="I" unicode="I" horiz-adv-x="204" 
d="M154 696v-696h-104v696h104z" />
    <glyph glyph-name="J" unicode="J" horiz-adv-x="299" 
d="M249 204c-1.33301 -37.333 -3.83398 -68.833 -7.50098 -94.5s-10.5 -46.5 -20.5 -62.5s-24.5 -27.667 -43.5 -35s-44.833 -11 -77.5 -11h-24c-4 0 -8.16699 0.166992 -12.5 0.5s-8.83301 0.833008 -13.5 1.5v109h25c10.667 0 20.834 0.666992 30.501 2s17.667 4.5 24 9.5
s11.333 12.5 15 22.5s5.5 24 5.5 42v511h99v-495z" />
    <glyph glyph-name="K" unicode="K" horiz-adv-x="595" 
d="M157 702v-207l257 203l62 -90l-221 -173l290 -359l-79 -76l-309 390v-390h-107v702h107z" />
    <glyph glyph-name="L" unicode="L" horiz-adv-x="297" 
d="M154 699v-595h93v-104h-197v699h104z" />
    <glyph glyph-name="M" unicode="M" horiz-adv-x="751" 
d="M154 3h-104v692h104l223 -484h3l216 485h105v-693h-102v446l-219 -482l-226 482v-446z" />
    <glyph glyph-name="N" unicode="N" horiz-adv-x="624" 
d="M50 697h107l312 -498v500h105v-698h-102l-2 2c-0.666992 2 -2.66699 5.66699 -6 11l-15 24.5l-27.5 44l-44.5 69.5l-221 353v-504h-106v696z" />
    <glyph glyph-name="O" unicode="O" horiz-adv-x="755" 
d="M50 349c0 48.667 8.49902 94.333 25.499 137s40.5 79.667 70.5 111s65 56 105 74s82.667 27 128 27c44.667 0 86.834 -9.16699 126.501 -27.5s74.334 -43.333 104.001 -75s53 -68.667 70 -111s25.5 -87.5 25.5 -135.5s-8.83301 -93.167 -26.5 -135.5
s-41.167 -79.166 -70.5 -110.499s-63.833 -56.166 -103.5 -74.499s-82.167 -27.5 -127.5 -27.5c-44.667 0 -86.834 9.16699 -126.501 27.5s-74.5 43.166 -104.5 74.499s-53.5 68.166 -70.5 110.499s-25.5 87.5 -25.5 135.5zM158.999 348.999
c0 -32 5.83594 -62.167 17.5029 -90.5s27.167 -52.833 46.5 -73.5s42.333 -37 69 -49s55 -18 85 -18c31.333 0 60.333 6 87 18s49.667 28.5 69 49.5s34.666 45.667 45.999 74s17 58.833 17 91.5c0 32 -5.83301 62 -17.5 90s-27.334 52.5 -47.001 73.5
s-42.834 37.5 -69.501 49.5s-55 18 -85 18s-58.333 -6.16699 -85 -18.5s-49.667 -29 -69 -50s-34.833 -45.667 -46.5 -74s-17.5 -58.5 -17.5 -90.5z" />
    <glyph glyph-name="P" unicode="P" horiz-adv-x="565" 
d="M142 696l-0.000976562 -16c26 10.667 58.333 16 97 16c38 0 73.667 -8 107 -24s62.5 -37.5 87.5 -64.5s44.833 -58.667 59.5 -95s22 -74.833 22 -115.5c0 -42 -7.33301 -81.167 -22 -117.5s-34.667 -68 -60 -95s-55.166 -48.333 -89.499 -64s-70.833 -23.5 -109.5 -23.5
c-14.667 0 -29.5 1 -44.5 3s-29.5 5.66699 -43.5 11h-4v-113h-92v698h92zM228.999 596c-14.667 0 -30 -2 -46 -6s-29.667 -9 -41 -15v-355c12.667 -9.33301 27 -15.5 43 -18.5s30.667 -4.5 44 -4.5c25.333 0 49.5 5.16699 72.5 15.5s43 24.5 60 42.5s30.333 39.167 40 63.5
s14.5 50.5 14.5 78.5c0 26.667 -5 52.167 -15 76.5s-23.5 45.5 -40.5 63.5s-36.833 32.333 -59.5 43s-46.667 16 -72 16z" />
    <glyph glyph-name="Q" unicode="Q" horiz-adv-x="754" 
d="M562 66c-58.667 -41.333 -120.333 -62.0039 -185 -62.0039c-16.667 0 -32.5 0.833008 -47.5 2.5s-29.833 5.16699 -44.5 10.5l-24 9c-30.667 12.667 -59 29.834 -85 51.501s-48.333 46.5 -67 74.5s-33.167 58.833 -43.5 92.5s-15.5 69.167 -15.5 106.5
s5.33301 73.333 16 108s26 66.667 46 96s43.833 55 71.5 77s58.167 39 91.5 51l1 -1c2 0 3 0.666992 3 2l25 6c8 2 16 3.66699 24 5l24 4h49l28 -3l21 -6c37.333 -8 71.5 -22.833 102.5 -44.5s57.5 -47.667 79.5 -78s39.167 -64.166 51.5 -101.499
s18.5 -75.666 18.5 -114.999c0 -8.66699 -0.166992 -17.167 -0.5 -25.5s-0.833008 -16.833 -1.5 -25.5c0 -2.66699 -1.33301 -8.66699 -4 -18s-4 -16 -4 -20v-1c-11.333 -41.333 -28.333 -79.666 -51 -114.999l63 -68l-75 -79zM157.001 350.996
c0 -32 5.83301 -62.167 17.5 -90.5s27.5 -52.833 47.5 -73.5s43.333 -37 70 -49s55 -18 85 -18c15.333 0 30.5 1.33301 45.5 4s29.5 8 43.5 16l18 10l-87 93l75 81l90 -94c11.333 16.667 19.5 36.167 24.5 58.5s7.5 43.833 7.5 64.5c0 32 -5.66699 62 -17 90
s-26.833 52.5 -46.5 73.5s-42.667 37.5 -69 49.5s-54.5 18 -84.5 18s-58.333 -6.16699 -85 -18.5s-50 -29 -70 -50s-35.833 -45.667 -47.5 -74s-17.5 -58.5 -17.5 -90.5z" />
    <glyph glyph-name="R" unicode="R" 
d="M150 699l-0.000976562 -8.99902h2c12 2.66699 23.833 4.83398 35.5 6.50098s23.834 2.5 36.501 2.5c38.667 0 75.334 -7.83301 110.001 -23.5s65.167 -36.834 91.5 -63.501s47 -57.834 62 -93.501s22.5 -73.834 22.5 -114.501c0 -38 -6.83301 -74.167 -20.5 -108.5
s-32.834 -65.5 -57.501 -93.5l77 -201h-123l-49 128l-5 3c-36.667 -15.333 -73.667 -23 -111 -23c-11.333 0 -22.833 0.833008 -34.5 2.5s-23.167 3.83398 -34.5 6.50098h-2v-117h-100v698h100zM149.999 220.001c0 -1.33301 2.66699 -2.66797 8 -4.00098
s11.833 -2.66602 19.5 -3.99902s15 -2.33301 22 -3s12.5 -1 16.5 -1c26 0 50.5 5 73.5 15s43 23.667 60 41s30.5 38 40.5 62s15 50 15 78s-5 54.167 -15 78.5s-23.5 45.166 -40.5 62.499s-37 31 -60 41s-47.5 15 -73.5 15c-11.333 0 -23.333 -1.16699 -36 -3.5
s-22.667 -5.16602 -30 -8.49902v-369z" />
    <glyph glyph-name="S" unicode="S" horiz-adv-x="614" 
d="M187 130c33.333 -22 67.6699 -33.001 103.003 -33.001c37.333 0 71.5 10.5 102.5 31.5s53.5 49.833 67.5 86.5c0.666992 3.33301 1.5 7 2.5 11s1.83301 10.333 2.5 19s1.66699 20.5 3 35.5s2.66602 35.167 3.99902 60.5c0 7.33301 -0.166992 15.5 -0.5 24.5
s-0.5 18.833 -0.5 29.5h-421v35c1.33301 37.333 10.166 72.333 26.499 105s37.166 61.167 62.499 85.5s54.333 43.5 87 57.5s66 21 100 21c15.333 0 29.666 -1 42.999 -3s27 -5.66699 41 -11l7 -3v-101c-14.667 6.66699 -28.667 11.667 -42 15s-28 5 -44 5
c-30 0 -58.167 -7.66699 -84.5 -23s-47.166 -36 -62.499 -62c-3.33301 -2 -6.33301 -5.83301 -9 -11.5s-4 -9.16699 -4 -10.5h391c0 -19.333 0.333008 -37 1 -53s1 -31 1 -45c0 -42.667 -0.833008 -76.667 -2.5 -102s-3.66699 -45.166 -6 -59.499s-4.5 -25 -6.5 -32
s-3.66699 -13.5 -5 -19.5c-10 -27.333 -23.667 -52.333 -41 -75s-37 -42 -59 -58s-45.833 -28.333 -71.5 -37s-52.5 -13 -80.5 -13c-23.333 0 -55 5.66699 -95 17l-10 5v108z" />
    <glyph glyph-name="T" unicode="T" horiz-adv-x="387" 
d="M337 700v-109h-90v-591h-101v594h-96v106h287z" />
    <glyph glyph-name="U" unicode="U" horiz-adv-x="617" 
d="M50 217v484.001h104v-471c5.33301 -19.333 12.166 -37.333 20.499 -54s18.666 -31 30.999 -43s26.833 -21.333 43.5 -28s36.667 -10 60 -10c17.333 0 35.166 3.33301 53.499 10s35 16 50 28s27.333 26 37 42s14.5 33.333 14.5 52l1 469h102v-464
c0 -32.667 -7.16699 -63.334 -21.5 -92.001s-33.666 -53.667 -57.999 -75s-52.166 -38.166 -83.499 -50.499s-63 -18.5 -95 -18.5c-33.333 0 -64.666 5.5 -93.999 16.5s-55.5 26.167 -78.5 45.5s-42 42.666 -57 69.999s-24.833 57 -29.5 89z" />
    <glyph glyph-name="V" unicode="V" horiz-adv-x="686" 
d="M319 86l-269 613h102l214 -484l171 484h99l-215 -609v-5l-45 -126c-1.33301 0 -2 0.666992 -2 2l-55 121v4z" />
    <glyph glyph-name="W" unicode="W" horiz-adv-x="1015" 
d="M526 280l-119.999 -313c-0.666992 0 -1.33398 0.333008 -2.00098 1l-354 728h111l234 -476l71 183l-141 291h112l79 -164l66 166h108l-114 -289l94 -190l187 477h108l-284 -730l-2 2z" />
    <glyph glyph-name="X" unicode="X" 
d="M50 697h122l107 -218l103 218h122l-164 -346l170 -350h-124l-106 220l-104 -220h-124l165 348z" />
    <glyph glyph-name="Y" unicode="Y" horiz-adv-x="624" 
d="M240 219l-33.998 11.001l-29 14l-32 21c-36.667 27.333 -62.667 61.333 -78 102l-7 21c-4 10.667 -6.66699 21 -8 31s-2 20.667 -2 32l2 246h102l2 -267c2.66699 -12.667 6.5 -24.834 11.5 -36.501s12.5 -22.167 22.5 -31.5l24 -23
c7.33301 -5.33301 16.666 -10.666 27.999 -15.999s28.666 -10.333 51.999 -15h37l21 3c11.333 2.66699 22 6.5 32 11.5s19.333 10.5 28 16.5l15 14c13.333 13.333 24 29.166 32 47.499s12 36.166 12 53.499l1 243h102v-260c-1.33301 -8.66699 -2.5 -17.167 -3.5 -25.5
s-2.83301 -16.166 -5.5 -23.499v-1c-28.667 -84.667 -89 -140.667 -181 -168l-9 -3v-215h-125v215c0 1.33301 -1 2 -3 2s-4.33301 0.333008 -7 1z" />
    <glyph glyph-name="Z" unicode="Z" horiz-adv-x="565" 
d="M50 107l340 486h-339v106h464v-106l-346 -486h346v-108h-465v108z" />
    <glyph glyph-name="bracketleft" unicode="[" horiz-adv-x="174" 
d="M135 706v-104h-29v-498h30v-104h-99v706h98z" />
    <glyph glyph-name="backslash" unicode="\" horiz-adv-x="357" 
d="M37 650l58 49l225 -652l-60 -48z" />
    <glyph glyph-name="bracketright" unicode="]" horiz-adv-x="174" 
d="M136 706v-706h-99v104h32v498h-30v104h97z" />
    <glyph glyph-name="asciicircum" unicode="^" horiz-adv-x="531" 
d="M247 598l42 91l192 -545h-72l-127 357l-157 -357h-75z" />
    <glyph glyph-name="underscore" unicode="_" horiz-adv-x="564" 
d="M514 -36v-71h-464v71h464z" />
    <glyph glyph-name="grave" unicode="`" horiz-adv-x="291" 
d="M241 570l-41 -52l-150 132l40 52z" />
    <glyph glyph-name="a" unicode="a" horiz-adv-x="564" 
d="M420 47c-42.667 -32 -88.999 -48 -138.999 -48c-32.667 0 -63.167 6.5 -91.5 19.5s-52.666 30.667 -72.999 53s-36.5 48.666 -48.5 78.999s-18 62.833 -18 97.5s6 66.834 18 96.501s28.667 55.5 50 77.5s46.166 39.333 74.499 52s58.166 19 89.499 19
c50 0 96 -16 138 -48v46h94v-494h-94v50zM142.001 246c0 -20 3.83301 -39 11.5 -57s17.667 -33.833 30 -47.5s26.833 -24.334 43.5 -32.001s34.667 -11.5 54 -11.5c18.667 0 36.5 3.83301 53.5 11.5s31.667 18.334 44 32.001s22.333 29.5 30 47.5s11.5 37 11.5 57
s-3.83301 39.167 -11.5 57.5s-17.667 34.166 -30 47.499s-27 24 -44 32s-34.833 12 -53.5 12c-19.333 0 -37.333 -4 -54 -12s-31.167 -18.667 -43.5 -32s-22.333 -29.166 -30 -47.499s-11.5 -37.5 -11.5 -57.5z" />
    <glyph glyph-name="b" unicode="b" 
d="M142 1l-92.001 0.000976562v698h92v-257c23.333 16.667 46.333 29 69 37s47.667 12 75 12c32.667 0 62.5 -6.83301 89.5 -20.5s50.5 -32 70.5 -55s35.667 -49.333 47 -79s17 -60.167 17 -91.5c0 -34 -6 -66 -18 -96s-28.5 -56 -49.5 -78s-45.667 -39.333 -74 -52
s-58.166 -19 -89.499 -19c-26 0 -50 4.16699 -72 12.5s-43.667 20.166 -65 35.499v-47zM141.999 245.001c0 -20.667 3.83105 -39.833 11.498 -57.5s17.667 -33 30 -46s26.833 -23.167 43.5 -30.5s34.667 -11 54 -11c18.667 0 36.334 3.83301 53.001 11.5s31 18 43 31
s21.5 28.333 28.5 46s10.5 36.5 10.5 56.5s-3.5 38.833 -10.5 56.5s-16.5 33.167 -28.5 46.5s-26.167 23.833 -42.5 31.5s-33.833 11.5 -52.5 11.5c-20 0 -38.5 -3.66699 -55.5 -11s-31.667 -17.5 -44 -30.5s-22.166 -28.5 -29.499 -46.5s-11 -37.333 -11 -58z" />
    <glyph glyph-name="c" unicode="c" horiz-adv-x="376" 
d="M50 246c0 34 6 65.833 18 95.5s28.5 55.667 49.5 78s45.333 39.833 73 52.5s57.834 19 90.501 19h18c3.33301 0 7.83301 -0.5 13.5 -1.5s9.83398 -1.83301 12.501 -2.5l1 -102h-2c-8 2 -15.333 3.66699 -22 5s-13.667 2 -21 2c-19.333 0 -37.333 -3.83301 -54 -11.5
s-31.167 -18.167 -43.5 -31.5s-22.333 -29 -30 -47s-11.5 -37.333 -11.5 -58c0 -20 3.83301 -38.833 11.5 -56.5s17.667 -33 30 -46s26.833 -23.333 43.5 -31s34.667 -11.5 54 -11.5c7.33301 0 14.333 0.666992 21 2s14 3 22 5h2l-1 -102
c-2.66699 -0.666992 -6.83398 -1.5 -12.501 -2.5s-10.167 -1.5 -13.5 -1.5h-18c-32.667 -0 -62.834 6.33301 -90.501 19s-52 30 -73 52s-37.5 48 -49.5 78s-18 62.333 -18 97z" />
    <glyph glyph-name="d" unicode="d" 
d="M417 48c-41.333 -32 -86.667 -48 -136 -48c-31.333 -0 -61 6.33301 -89 19s-52.5 30 -73.5 52s-37.667 48 -50 78s-18.5 62 -18.5 96c0 31.333 5.66699 61.833 17 91.5s27 56 47 79s43.667 41.333 71 55s57 20.5 89 20.5c28 0 53.333 -4 76 -12s45 -20.333 67 -37v257h93
v-698h-93v47zM416.999 245c0 20.667 -3.66699 39.999 -11 57.999s-17.333 33.5 -30 46.5s-27.5 23.167 -44.5 30.5s-34.5 11 -52.5 11c-19.333 0 -37.166 -3.83301 -53.499 -11.5s-30.5 -18.167 -42.5 -31.5s-21.5 -28.833 -28.5 -46.5s-10.5 -36.5 -10.5 -56.5
s3.5 -38.833 10.5 -56.5s16.5 -33 28.5 -46s26.167 -23.333 42.5 -31s34.166 -11.5 53.499 -11.5c18 0 35.5 3.66699 52.5 11s31.833 17.5 44.5 30.5s22.667 28.333 30 46s11 36.834 11 57.501z" />
    <glyph glyph-name="e" unicode="e" 
d="M50 248c0 34 6.00098 65.833 18.001 95.5s28.5 55.334 49.5 77.001s45.667 38.834 74 51.501s58.166 19 89.499 19c32 0 61.833 -6.5 89.5 -19.5s51.834 -30.5 72.501 -52.5s37 -47.833 49 -77.5s18 -61.5 18 -95.5v-18c0 -4.66699 -0.666992 -11.334 -2 -20.001
s-2.33301 -13 -3 -13h-355c3.33301 -14 9.5 -27 18.5 -39s19.667 -22.167 32 -30.5s25.333 -14.833 39 -19.5s27.167 -7 40.5 -7c6 0 14 0.5 24 1.5s16 2.83301 18 5.5h3v-102c-2 -0.666992 -6.83301 -1.33398 -14.5 -2.00098s-13.834 -1 -18.501 -1h-13
c-32.667 0 -63 6.5 -91 19.5s-52.167 30.667 -72.5 53s-36.333 48.5 -48 78.5s-17.5 62 -17.5 96zM280.001 393c-28.667 0 -55.5 -9.16699 -80.5 -27.5s-41.5 -42.5 -49.5 -72.5h260c-8.66699 30 -25.5 54.167 -50.5 72.5s-51.5 27.5 -79.5 27.5z" />
    <glyph glyph-name="f" unicode="f" horiz-adv-x="374" 
d="M324 694v-98.998c-14.667 2 -27.667 3 -39 3c-42.667 0 -75.5 -10.333 -98.5 -31s-36.5 -46 -40.5 -76h130v-98h-135v-393h-91v493c0 7.33301 1.5 16.166 4.5 26.499s6.66699 20.833 11 31.5s9 20.667 14 30s9.83301 16.666 14.5 21.999c22 30 48.5 53 79.5 69
s64.5 24.333 100.5 25z" />
    <glyph glyph-name="g" unicode="g" 
d="M84 119c-9.33301 17.333 -17.333 36.3311 -24 56.998s-10 44 -10 70c0 36 6.5 69.333 19.5 100s31.167 57.334 54.5 80.001v1c20 20.667 43.333 36.667 70 48s55.667 17 87 17c48.667 0 94 -16 136 -48v48h93v-505c-2 -32 -9.16699 -60.167 -21.5 -84.5
s-28.5 -44.5 -48.5 -60.5s-42.667 -28.167 -68 -36.5s-52 -12.5 -80 -12.5h-30c-1.33301 0 -3.33301 0.166992 -6 0.5s-6 0.833008 -10 1.5l-11 3v102c24 -5.33301 38.667 -8 44 -8c20 0 38.5 4 55.5 12s31.667 18.833 44 32.5s22.166 29.834 29.499 48.501s11 38.667 11 60
c0 2 -0.666992 3.33301 -2 4c-42 -32 -88 -48 -138 -48c-38 0 -73.667 9 -107 27s-60.666 45 -81.999 81zM155 180.998l9.99805 -18.001c13.333 -20 30.166 -35.667 50.499 -47s41.833 -17 64.5 -17c16.667 0 32.834 3.33301 48.501 10s30 15.834 43 27.501
s23.667 25.5 32 41.5s13.5 33.333 15.5 52v17c0 20.667 -3.66699 40 -11 58s-17.166 33.667 -29.499 47s-27 23.833 -44 31.5s-35.167 11.5 -54.5 11.5s-37.333 -3.83301 -54 -11.5s-31.167 -18.167 -43.5 -31.5s-22.166 -29 -29.499 -47s-11 -37 -11 -57
c0 -28.667 4.33301 -51 13 -67z" />
    <glyph glyph-name="h" unicode="h" 
d="M141 696l-0.000976562 -255.998c40.667 32 87.334 48 140.001 48c28.667 0 56.5 -6 83.5 -18s51.333 -28.5 73 -49.5s39.167 -45.833 52.5 -74.5s20 -59.334 20 -92.001v-254h-91l-3 261c0 20 -4.33301 38 -13 54s-19.667 29.667 -33 41s-28 20 -44 26s-31.333 9 -46 9
c-20 0 -38.333 -3.83301 -55 -11.5s-31 -18.167 -43 -31.5s-21.667 -28.833 -29 -46.5s-11.333 -36.834 -12 -57.501v-245h-91v697h91z" />
    <glyph glyph-name="i" unicode="i" horiz-adv-x="192" 
d="M142 491v-490h-91v490h91zM141 699v-98h-91v98h91z" />
    <glyph glyph-name="j" unicode="j" horiz-adv-x="190" 
d="M-119 -206c-1.33301 0 -4.16699 0.500977 -8.5 1.50098s-6.5 1.83301 -6.5 2.5v98c8.66699 0 17.5 -0.833008 26.5 -2.5s18.167 -2.5 27.5 -2.5c16 0 31.667 2.16699 47 6.5s29 11 41 20s21.833 20.167 29.5 33.5s11.5 28.666 11.5 45.999l1 494h90v-500
c0 -30 -5.66699 -57.333 -17 -82s-26.166 -45.5 -44.499 -62.5s-39.5 -30.167 -63.5 -39.5s-49 -14 -75 -14h-13c-6.66699 0 -10.334 0.333008 -11.001 1h-35zM139.999 700.001v-97h-91v97h91z" />
    <glyph glyph-name="k" unicode="k" horiz-adv-x="462" 
d="M142 700v-424l203 218l64 -68l-162 -178l165 -178l-63 -68l-167 176l-40 -43v-136h-92v701h92z" />
    <glyph glyph-name="l" unicode="l" horiz-adv-x="191" 
d="M141 704v-704h-91v704h91z" />
    <glyph glyph-name="m" unicode="m" horiz-adv-x="762" 
d="M256 241c0 52.667 14.6689 101.666 44.002 146.999h-10c-19.333 0 -37.5 -3.83301 -54.5 -11.5s-31.833 -18 -44.5 -31s-22.667 -28.167 -30 -45.5s-11 -36 -11 -56v-243h-100v486h91v-45l28 19c14.667 10.667 32 18 52 22s38.667 6 56 6c19.333 0 37.333 -2.33301 54 -7
s33.667 -11 51 -19h4c34 15.333 66.667 23 98 23c50 0 94.167 -14.5 132.5 -43.5s65.833 -68.5 82.5 -118.5c3.33301 -9.33301 6.33301 -19.333 9 -30s4 -21 4 -31v-263h-90v234c0 22 -3.5 42.5 -10.5 61.5s-17 35.333 -30 49s-28.333 24.334 -46 32.001
s-37.167 11.5 -58.5 11.5l-12 -2c12.667 -21.333 22.667 -43.833 30 -67.5s11 -48.167 11 -73.5v-244h-81v242c0 19.333 -3.33301 36.833 -10 52.5s-16.334 31.167 -29.001 46.5c-12.667 -13.333 -22.334 -28.5 -29.001 -45.5s-10 -36.167 -10 -57.5v-239h-88z" />
    <glyph glyph-name="n" unicode="n" horiz-adv-x="561" 
d="M241 389v-2c-12.667 -4 -24.834 -10.333 -36.501 -19s-22.167 -19 -31.5 -31s-16.833 -25.167 -22.5 -39.5s-8.5 -29.166 -8.5 -44.499v-255h-92v491h92v-45c44.667 31.333 91 47 139 47c32.667 0 63 -6.5 91 -19.5s52.333 -30.833 73 -53.5s36.834 -49.167 48.501 -79.5
s17.5 -62.833 17.5 -97.5v-243h-91v255c-2 20 -6.83301 38.5 -14.5 55.5s-17.834 31.667 -30.501 44s-27.167 22.166 -43.5 29.499s-33.166 11 -50.499 11c-20.667 0 -34 -1.33301 -40 -4z" />
    <glyph glyph-name="o" unicode="o" horiz-adv-x="565" 
d="M50 248c0 34 6 66 18 96s28.667 56.333 50 79s46 40.5 74 53.5s57.667 19.5 89 19.5c32.667 0 63.167 -6.5 91.5 -19.5s53.166 -30.833 74.499 -53.5s38 -49.167 50 -79.5s18 -62.5 18 -96.5s-6 -66 -18 -96s-28.667 -56.167 -50 -78.5s-46.166 -40 -74.499 -53
s-58.833 -19.5 -91.5 -19.5c-31.333 0 -61 6.5 -89 19.5s-52.667 30.833 -74 53.5s-38 49 -50 79s-18 62 -18 96zM145 248c0 -20.667 3.5 -39.833 10.5 -57.5s16.833 -33.167 29.5 -46.5s27.334 -23.833 44.001 -31.5s34.334 -11.5 53.001 -11.5
c19.333 0 37.333 3.83301 54 11.5s31.334 18.167 44.001 31.5s22.5 28.833 29.5 46.5s10.5 36.834 10.5 57.501c0 20 -3.5 39 -10.5 57s-16.833 33.667 -29.5 47s-27.334 23.833 -44.001 31.5s-34.667 11.5 -54 11.5c-18.667 0 -36.334 -3.83301 -53.001 -11.5
s-31.334 -18.167 -44.001 -31.5s-22.5 -28.833 -29.5 -46.5s-10.5 -36.834 -10.5 -57.501z" />
    <glyph glyph-name="p" unicode="p" 
d="M142 444c41.333 32 87 47.999 137 47.999c31.333 0 61 -6.33301 89 -19s52.667 -30 74 -52s38 -48 50 -78s18 -62 18 -96c0 -31.333 -5.66699 -61.833 -17 -91.5s-27 -56 -47 -79s-43.5 -41.333 -70.5 -55s-56.5 -20.5 -88.5 -20.5c-28 0 -53.333 4 -76 12
s-45.667 20.333 -69 37v-257h-91v130c0 28.667 -0.166992 58.834 -0.5 90.501s-0.5 62.5 -0.5 92.5v198c0 22 0.166992 45.5 0.5 70.5s0.5 48.5 0.5 70.5v46h91v-47zM142 246.999c0 -21.333 3.83301 -40.832 11.5 -58.499s17.667 -33 30 -46s26.833 -23.167 43.5 -30.5
s34.667 -11 54 -11s37.333 3.83301 54 11.5s31 18.167 43 31.5s21.333 28.833 28 46.5s10 36.5 10 56.5s-3.33301 38.833 -10 56.5s-16 33 -28 46s-26.333 23.333 -43 31s-34.667 11.5 -54 11.5s-37.333 -3.66699 -54 -11s-31.167 -17.5 -43.5 -30.5
s-22.333 -28.333 -30 -46s-11.5 -36.834 -11.5 -57.501z" />
    <glyph glyph-name="q" unicode="q" 
d="M417 491h93v-698h-93v257c-23.333 -16.667 -46.166 -29 -68.499 -37s-47.166 -12 -74.499 -12c-32.667 0 -62.5 6.83301 -89.5 20.5s-50.5 32 -70.5 55s-35.667 49.333 -47 79s-17 60.167 -17 91.5c0 34 6 66 18 96s28.5 56 49.5 78s45.667 39.333 74 52
s58.166 19 89.499 19c49.333 0 94.666 -16 135.999 -48v47zM417 247c0 20.667 -3.66699 39.833 -11 57.5s-17.333 33 -30 46s-27.5 23.167 -44.5 30.5s-34.5 11 -52.5 11c-19.333 0 -37.166 -3.83301 -53.499 -11.5s-30.5 -18 -42.5 -31s-21.5 -28.333 -28.5 -46
s-10.5 -36.5 -10.5 -56.5s3.5 -38.833 10.5 -56.5s16.5 -33.167 28.5 -46.5s26.167 -23.833 42.5 -31.5s34.166 -11.5 53.499 -11.5c18 0 35.5 3.66699 52.5 11s31.833 17.5 44.5 30.5s22.667 28.333 30 46s11 37.167 11 58.5z" />
    <glyph glyph-name="r" unicode="r" horiz-adv-x="376" 
d="M142 489l-0.00195312 -45c42.667 32 89 48 139 48c0.666992 0 3.33398 -0.333008 8.00098 -1s10 -1.33398 16 -2.00098l21 -3v-100c-7.33301 1.33301 -14.833 2.83301 -22.5 4.5s-15.5 2.5 -23.5 2.5c-17.333 0 -34.166 -3.66699 -50.499 -11s-31 -17.166 -44 -29.499
s-23.5 -27 -31.5 -44s-12 -35.167 -12 -54.5v-255h-92v490h92z" />
    <glyph glyph-name="s" unicode="s" horiz-adv-x="472" 
d="M145 106c8 -2.66699 15.668 -4.66895 23.001 -6.00195s15 -2 23 -2c26.667 0 50.5 6.83301 71.5 20.5s37.5 32.834 49.5 57.501l9 21h-266c-2 9.33301 -3.33301 18.5 -4 27.5s-1 18.167 -1 27.5c0 32.667 6.16699 63.667 18.5 93s29.166 54.833 50.499 76.5
s46 38.834 74 51.501s57.333 19 88 19c7.33301 0 14.833 -0.333008 22.5 -1s15.167 -2 22.5 -4l-1 -101c-8.66699 2 -16.334 3.66699 -23.001 5s-13.667 2 -21 2c-23.333 0 -45.166 -5.5 -65.499 -16.5s-36.833 -26.833 -49.5 -47.5l-15 -33h266l5 -52
c0 -34 -6 -65.833 -18 -95.5s-28.333 -55.667 -49 -78s-45 -39.833 -73 -52.5s-58.333 -19 -91 -19h-19c-0.666992 0 -3.5 0.5 -8.5 1.5s-9.5 1.5 -13.5 1.5l-5 2v102z" />
    <glyph glyph-name="t" unicode="t" horiz-adv-x="376" 
d="M50 206l-0.00195312 490h91v-206h139v-98h-139l1 -187c2.66699 -20 8.33398 -37.5 17.001 -52.5s19.334 -27.5 32.001 -37.5s26.5 -17.5 41.5 -22.5s30.5 -7.5 46.5 -7.5c8.66699 0 16.167 0.5 22.5 1.5s13.833 2.83301 22.5 5.5h2v-88l-2 -1
c0 -1.33301 -3.83301 -2.33301 -11.5 -3s-15.5 -1 -23.5 -1h-12c-28.667 0 -56 4.66699 -82 14s-49.167 22.666 -69.5 39.999s-37 38.333 -50 63s-20.833 52.334 -23.5 83.001z" />
    <glyph glyph-name="u" unicode="u" horiz-adv-x="561" 
d="M320 99l0.00292969 2.00098c11.333 4 23.166 10.333 35.499 19s23.166 19 32.499 31s17 25.167 23 39.5s9 29.5 9 45.5v255h91v-491h-91l-1 45c-44.667 -31.333 -91 -47 -139 -47c-32.667 0 -63 6.5 -91 19.5s-52.167 30.833 -72.5 53.5s-36.5 49.167 -48.5 79.5
s-18 62.5 -18 96.5v244h91l1 -256c1.33301 -20 5.83301 -38.333 13.5 -55s18 -31.334 31 -44.001s27.667 -22.5 44 -29.5s33.166 -10.5 50.499 -10.5c13.333 0 26.333 1 39 3z" />
    <glyph glyph-name="v" unicode="v" 
d="M50 243l-0.000976562 65.001c0 22 0.166992 45 0.5 69s0.5 46.667 0.5 68v46h90v-49c0 -22.667 0.166992 -47 0.5 -73s0.5 -50.667 0.5 -74v-48c0 -17.333 2.16699 -33.833 6.5 -49.5s12.166 -30.167 23.499 -43.5l19 -22h3c13.333 -12 28.666 -21.333 45.999 -28
c4 -1.33301 8.16699 -2.16602 12.5 -2.49902s7.5 -1.16602 9.5 -2.49902h34c2.66699 1.33301 5.83398 2.16602 9.50098 2.49902s6.83398 1.16602 9.50098 2.49902c18 5.33301 35 14.666 51 27.999l15 13c10.667 14.667 19.667 30.5 27 47.5s11 35.167 11 54.5v122
c0 26 0.166992 50.5 0.5 73.5s0.5 39.167 0.5 48.5h90v-262c0 -33.333 -6.83301 -63.833 -20.5 -91.5s-31.667 -51.667 -54 -72s-47 -36.166 -74 -47.499s-54.167 -17 -81.5 -17c-32 0 -61.667 6.33301 -89 19s-51.666 30 -72.999 52s-38 47.667 -50 77
s-18 60.666 -18 93.999z" />
    <glyph glyph-name="w" unicode="w" horiz-adv-x="772" 
d="M384 27c-36.667 -17.333 -71.667 -26.0049 -105 -26.0049c-31.333 0 -60.666 6.33301 -87.999 19s-51.5 29.834 -72.5 51.501s-37.667 47.167 -50 76.5s-18.5 60.666 -18.5 93.999v247h92v-269c3.33301 -23.333 13.333 -45.666 30 -66.999l7 -10l13 -12
c12 -10 23 -17 33 -21s22.333 -7.66699 37 -11h33c0.666992 0 2.66699 0.166992 6 0.5s5.33301 0.833008 6 1.5c-12 19.333 -21.833 39.333 -29.5 60s-12.167 42.667 -13.5 66v263h91c0 -167.333 1.83301 -260.666 5.5 -279.999s12.167 -38.333 25.5 -57l4 3
c17.333 26.667 26 56.334 26 89.001v244h91v-262c-3.33301 -23.333 -8 -45.166 -14 -65.499s-15.333 -40.166 -28 -59.499v-1c0.666992 -0.666992 2.5 -1.16699 5.5 -1.5s5.16699 -0.5 6.5 -0.5h15c22 0 41.5 4.16699 58.5 12.5s31.333 19.5 43 33.5s20.667 30.667 27 50
s9.5 117.666 9.5 294.999h92v-263c0 -32 -6.83301 -61.833 -20.5 -89.5s-31.5 -51.667 -53.5 -72s-46.5 -36.333 -73.5 -48s-54.5 -17.5 -82.5 -17.5c-18 0 -35.833 2.33301 -53.5 7s-35.834 11.334 -54.501 20.001z" />
    <glyph glyph-name="x" unicode="x" horiz-adv-x="559" 
d="M115 0l-65 67l164 177l-164 177l65 68l164 -177l166 177l64 -68l-165 -179l162 -176l-64 -68l-163 176z" />
    <glyph glyph-name="y" unicode="y" 
d="M234 -100l1.00195 -1.00195c7.33301 -1.33301 14.166 -2.83301 20.499 -4.5s13.5 -2.5 21.5 -2.5c18.667 0 36.5 3.66699 53.5 11s31.833 17.333 44.5 30s22.667 27.834 30 45.501s11 37.167 11 58.5v9c-28 -14.667 -51.5 -25.834 -70.5 -33.501s-40.5 -11.5 -64.5 -11.5
c-31.333 0 -61 6.33301 -89 19s-52.667 29.834 -74 51.501s-38 47.334 -50 77.001s-18 61.5 -18 95.5v64c0 21.333 0.166992 44.166 0.5 68.499s0.5 47.166 0.5 68.499v46h90l1 -262c0 -13.333 2.83301 -26.5 8.5 -39.5s13 -25.167 22 -36.5s19.333 -21.166 31 -29.499
s24.167 -14.5 37.5 -18.5c3.33301 -0.666992 7.16602 -1.16699 11.499 -1.5s8.16602 -1.5 11.499 -3.5h31c14 4.66699 26.5 8.33398 37.5 11.001s22.167 9.66699 33.5 21l13 12c13.333 16 22.5 31.667 27.5 47s9.16699 33.666 12.5 54.999v245h91v-490
c0 -1.33301 -1 -5.66602 -3 -12.999s-4.33301 -14.666 -7 -21.999l-4 -12c-7.33301 -24.667 -18.333 -46.834 -33 -66.501s-31.5 -36.5 -50.5 -50.5s-39.667 -24.667 -62 -32s-45.166 -11 -68.499 -11h-18c-4.66699 0 -10.5 0.666992 -17.5 2s-11.167 2 -12.5 2v102z" />
    <glyph glyph-name="z" unicode="z" horiz-adv-x="565" 
d="M50 97l324 298h-323v98h463v-100l-325 -299h326v-97h-465v100z" />
    <glyph glyph-name="bar" unicode="|" horiz-adv-x="191" 
d="M141 704v-704h-91v704h91z" />
    <glyph glyph-name="exclamdown" unicode="&#xa1;" horiz-adv-x="192" 
d="M142 491v-490h-91v490h91zM141 699v-98h-91v98h91z" />
    <glyph glyph-name="cent" unicode="&#xa2;" horiz-adv-x="425" 
d="M311 748l-0.000976562 -49.0029c10 -0.666992 20.167 -2.16699 30.5 -4.5s21.5 -5.16602 33.5 -8.49902v-86c-10 5.33301 -20.667 9.33301 -32 12s-22 4.33398 -32 5.00098v-327c22.667 0.666992 44 6.66699 64 18v-87c-12 -3.33301 -23.167 -6.16602 -33.5 -8.49902
s-20.5 -3.83301 -30.5 -4.5v-49h-67v54c-28 6 -53.833 16.333 -77.5 31s-44.167 32.667 -61.5 54s-30.833 45.333 -40.5 72s-14.5 54.667 -14.5 84s4.83301 57.333 14.5 84s23 50.5 40 71.5s37.333 38.833 61 53.5s49.834 25 78.501 31v54h67zM136.999 453.997
c0 -36.667 9.66699 -68.668 29 -96.001s45.333 -46.666 78 -57.999v307c-32.667 -12 -58.667 -31.5 -78 -58.5s-29 -58.5 -29 -94.5z" />
    <glyph glyph-name="sterling" unicode="&#xa3;" horiz-adv-x="392" 
d="M96 490v209h105v-209h139v-106h-140v-280h142v-104h-248v384h-44v106h46z" />
    <glyph glyph-name="yen" unicode="&#xa5;" horiz-adv-x="626" 
d="M156 99l-0.00195312 97.001h104v17l-3 1c-30 6.66699 -57.667 17.5 -83 32.5s-47.166 32.833 -65.499 53.5s-32.666 44 -42.999 70s-15.5 53.333 -15.5 82v65c0 22 0.166992 45.167 0.5 69.5s0.5 47.166 0.5 68.499v46h105v-271c3.33301 -22 15 -44.667 35 -68l23 -22
c12 -10.667 24.667 -17.5 38 -20.5s27.333 -7.16699 42 -12.5h37c16.667 5.33301 31.5 9.83301 44.5 13.5s25.167 10.167 36.5 19.5l10 7c15.333 15.333 27.5 32 36.5 50s13.5 37.667 13.5 59v245h104v-264l-4 -24c-4 -24 -12 -47 -24 -69s-27.333 -42 -46 -60
s-39.5 -33.167 -62.5 -45.5s-47.167 -20.5 -72.5 -24.5l-1 -18h105v-97h-105v-98h-106v98h-104z" />
    <glyph glyph-name="dieresis" unicode="&#xa8;" horiz-adv-x="361" 
d="M124 597v-78h-74v78h74zM311 597v-78h-71v78h71z" />
    <glyph glyph-name="copyright" unicode="&#xa9;" 
d="M50 453c0 34.667 5.99902 66.833 17.999 96.5s28.667 55.5 50 77.5s46 39.333 74 52s57.667 19 89 19c32.667 0 62.667 -6.5 90 -19.5s51.5 -30.667 72.5 -53s37.333 -48.333 49 -78s17.5 -61.167 17.5 -94.5c0 -34 -6 -65.833 -18 -95.5s-28.5 -55.667 -49.5 -78
s-45.5 -39.833 -73.5 -52.5s-57.667 -19 -89 -19c-32 0 -61.667 6.5 -89 19.5s-51.666 30.5 -72.999 52.5s-38 47.833 -50 77.5s-18 61.5 -18 95.5zM126.999 452.999c0 -23.333 4 -44.834 12 -64.501s18.833 -36.834 32.5 -51.501s29.667 -26.167 48 -34.5
s38.5 -12.5 60.5 -12.5c20.667 0 40.334 4.16699 59.001 12.5s35.167 20 49.5 35s25.5 32.333 33.5 52s12 41.167 12 64.5c0 22.667 -4.16699 43.834 -12.5 63.501s-19.5 36.834 -33.5 51.501s-30.333 26.334 -49 35.001s-38.334 13 -59.001 13
c-22 0 -42.167 -4.33301 -60.5 -13s-34.333 -20.5 -48 -35.5s-24.5 -32.333 -32.5 -52s-12 -40.834 -12 -63.501zM191.999 454.998c0 28 8.66797 51.332 26.001 69.999s39.333 28 66 28h8c0 -0.666992 1.33301 -1.16699 4 -1.5s4.33398 -0.5 5.00098 -0.5l1 -41h-1
c-6.66699 2 -12 3 -16 3c-16 0 -29.333 -5.66699 -40 -17s-16 -25.333 -16 -42c0 -16 5.5 -29.667 16.5 -41s24.167 -17 39.5 -17c2.66699 0 5.16699 0.333008 7.5 1s5.16602 1.33398 8.49902 2.00098v-41c-0.666992 0 -1.5 -0.166992 -2.5 -0.5s-1.83301 -0.5 -2.5 -0.5
h-11c-26.667 0 -48.834 9.33301 -66.501 28s-26.5 42 -26.5 70z" />
    <glyph glyph-name="ordfeminine" unicode="&#xaa;" horiz-adv-x="367" 
d="M262 236c-22 -18.667 -48.667 -28 -80 -28c-18 0 -35.167 3.66699 -51.5 11s-30.333 17.5 -42 30.5s-21 28.333 -28 46s-10.5 36.5 -10.5 56.5s3.5 38.5 10.5 55.5s16.5 31.833 28.5 44.5s26.167 22.667 42.5 30s33.833 11 52.5 11c30 0 56 -9.33301 78 -28l2 27h53v-285
h-53zM104 351c0 -23.333 7.66699 -43.5 23 -60.5s34.333 -25.5 57 -25.5c21.333 0 40 8.5 56 25.5s24 37.167 24 60.5c0 11.333 -2.16699 22.166 -6.5 32.499s-10.166 19.333 -17.499 27s-15.833 13.834 -25.5 18.501s-19.834 7 -30.501 7c-22.667 0 -41.667 -8.5 -57 -25.5
s-23 -36.833 -23 -59.5z" />
    <glyph glyph-name="guillemotleft" unicode="&#xab;" 
d="M99 252l240 210v-81l-189 -166l189 -136v-78l-237 170h-3l-49 36l1 2zM270 252l240 210v-81l-189 -166l189 -136v-78l-236 170h-4l-49 36l1 2z" />
    <glyph glyph-name="registered" unicode="&#xae;" 
d="M50 453c0 34.667 5.99902 66.833 17.999 96.5s28.667 55.5 50 77.5s46 39.333 74 52s57.667 19 89 19c32.667 0 62.667 -6.5 90 -19.5s51.5 -30.667 72.5 -53s37.333 -48.333 49 -78s17.5 -61.167 17.5 -94.5c0 -34 -6 -65.833 -18 -95.5s-28.5 -55.667 -49.5 -78
s-45.5 -39.833 -73.5 -52.5s-57.667 -19 -89 -19c-32 0 -61.667 6.5 -89 19.5s-51.666 30.5 -72.999 52.5s-38 47.833 -50 77.5s-18 61.5 -18 95.5zM126.999 452.999c0 -23.333 4 -44.834 12 -64.501s18.833 -36.834 32.5 -51.501s29.667 -26.167 48 -34.5
s38.5 -12.5 60.5 -12.5c20.667 0 40.334 4.16699 59.001 12.5s35.167 20 49.5 35s25.5 32.333 33.5 52s12 41.167 12 64.5c0 22.667 -4.16699 43.834 -12.5 63.501s-19.5 36.834 -33.5 51.501s-30.333 26.334 -49 35.001s-38.334 13 -59.001 13
c-22 0 -42.167 -4.33301 -60.5 -13s-34.333 -20.5 -48 -35.5s-24.5 -32.333 -32.5 -52s-12 -40.834 -12 -63.501zM263.999 550.998l1 -18.001c16 12.667 34.333 19 55 19h6c6 0 10.333 -1 13 -3l-2 -40c-2 0.666992 -4.5 1.33398 -7.5 2.00098s-6.16699 1 -9.5 1
c-13.333 0 -26 -5.33301 -38 -16s-18 -24 -18 -40v-104h-37v199h37z" />
    <glyph glyph-name="macron" unicode="&#xaf;" horiz-adv-x="389" 
d="M339 585v-65h-289v65h289z" />
    <glyph glyph-name="plusminus" unicode="&#xb1;" horiz-adv-x="364" 
d="M137 101v94h-87v92h87v93h88v-93h87v-92h-87v-94h89v-102h-264v102h87z" />
    <glyph glyph-name="twosuperior" unicode="&#xb2;" horiz-adv-x="331" 
d="M227 551c5.33301 6.66699 7.99805 16.3311 7.99805 28.998c0 8 -1.5 16 -4.5 24s-7.16699 15.5 -12.5 22.5s-12 12.667 -20 17s-17 6.5 -27 6.5h-15c-16.667 0 -29.5 -5.66699 -38.5 -17s-15.833 -23.666 -20.5 -36.999h-47c0 15.333 3.5 29.333 10.5 42
s16.167 23.667 27.5 33s23.833 16.5 37.5 21.5s26.834 7.5 39.501 7.5c16.667 0 32 -3.33301 46 -10s26.333 -15.667 37 -27s18.834 -24.666 24.501 -39.999s8.5 -31.666 8.5 -48.999c0 -6 -0.833008 -12.833 -2.5 -20.5s-6.5 -17.667 -14.5 -30s-20.333 -28.333 -37 -48
s-40 -44.834 -70 -75.501h122v-48h-229l1 1z" />
    <glyph glyph-name="threesuperior" unicode="&#xb3;" horiz-adv-x="327" 
d="M97 451c4.66699 -15.333 13.168 -27.834 25.501 -37.501s25.5 -14.5 39.5 -14.5c19.333 0 35.833 7.16699 49.5 21.5s20.5 31.5 20.5 51.5c0 15.333 -4.33301 29.5 -13 42.5s-19.667 21.833 -33 26.5l-24 5v48l44 -8c2 1.33301 3 3.66602 3 6.99902v9
c0 14 -4.5 25.5 -13.5 34.5s-20.167 13.5 -33.5 13.5c-10 0 -18.833 -3.16699 -26.5 -9.5s-13.167 -14.833 -16.5 -25.5l-3 -17h-45v5c0 13.333 2.5 26 7.5 38s11.667 22.333 20 31s18 15.5 29 20.5s22.5 7.5 34.5 7.5c26.667 0 48.834 -9.33301 66.501 -28
s26.5 -42 26.5 -70c0 -20.667 -3 -35.334 -9 -44.001c8.66699 -10 16 -21.667 22 -35s9 -26.666 9 -39.999v-22c0 -13.333 -3 -26.666 -9 -39.999s-13.833 -25.166 -23.5 -35.499s-20.834 -18.833 -33.501 -25.5s-25 -10 -37 -10h-20c-12.667 0 -24.834 2.83301 -36.501 8.5
s-22.334 13.167 -32.001 22.5s-17.667 20 -24 32s-10.166 24.333 -11.499 37v1h47z" />
    <glyph glyph-name="acute" unicode="&#xb4;" horiz-adv-x="291" 
d="M201 702l40 -52l-151 -132l-40 52z" />
    <glyph glyph-name="periodcentered" unicode="&#xb7;" horiz-adv-x="191" 
d="M141 395v-98h-91v98h91z" />
    <glyph glyph-name="cedilla" unicode="&#xb8;" horiz-adv-x="204" 
d="M101 1l0.000976562 -33c16 -7.33301 28.833 -18.5 38.5 -33.5s14.5 -32.167 14.5 -51.5c0 -26 -8.33301 -48 -25 -66s-37.334 -27 -62.001 -27h-7c-0.666992 0 -2.16699 0.166992 -4.5 0.5s-3.83301 0.5 -4.5 0.5l-1 39h1c3.33301 -2 8.66602 -3 15.999 -3
c14.667 0 27 5.33301 37 16s15 23.667 15 39c0 16 -5 29.333 -15 40s-22.333 16 -37 16c-2 0 -4.33301 -0.166992 -7 -0.5s-5.66699 -0.833008 -9 -1.5l-1 38h1c0.666992 0.666992 2.33398 1 5.00098 1h8v26h37z" />
    <glyph glyph-name="onesuperior" unicode="&#xb9;" horiz-adv-x="296" 
d="M145 398l-1 248c-13.333 -5.33301 -23 -12.166 -29 -20.499s-10.667 -18.166 -14 -29.499h-51c0 8.66699 2 18 6 28s9.83301 19.667 17.5 29s16 17.666 25 24.999s18.5 12.666 28.5 15.999l12 4c2 0 4 0.666992 6 2h49v-302h52v-49h-196v49h95z" />
    <glyph glyph-name="ordmasculine" unicode="&#xba;" horiz-adv-x="364" 
d="M50 351c0 19.333 3.5 37.499 10.5 54.499s16.5 31.833 28.5 44.5s26 22.667 42 30s33 11 51 11c18.667 0 35.834 -3.66699 51.501 -11s29.334 -17.333 41.001 -30s21.167 -27.667 28.5 -45s11 -35.666 11 -54.999s-3.66699 -37.5 -11 -54.5s-16.833 -31.833 -28.5 -44.5
s-25.334 -22.667 -41.001 -30s-32.834 -11 -51.501 -11c-18 0 -35.167 3.66699 -51.5 11s-30.333 17.5 -42 30.5s-21 28 -28 45s-10.5 35.167 -10.5 54.5zM104 350.999c0 -23.333 7.66699 -43.166 23 -59.499s33.666 -24.5 54.999 -24.5c22 0 40.667 8.16699 56 24.5
s23 36.166 23 59.499c0 22.667 -7.66699 42.167 -23 58.5s-34 24.5 -56 24.5c-21.333 0 -39.666 -8 -54.999 -24s-23 -35.667 -23 -59z" />
    <glyph glyph-name="guillemotright" unicode="&#xbb;" 
d="M337 209l2 -2l-49 -36h-4l-236 -170v78l189 136l-189 166v81l240 -210zM509 209l1 -2l-49 -36h-4l-236 -170v78l189 136l-189 166v81l240 -210z" />
    <glyph glyph-name="onequarter" unicode="&#xbc;" horiz-adv-x="635" 
d="M240 6h-63l198 694h60zM311 53c-0.666992 0.666992 -1 1.33301 -1 2l125 291h51l-100 -242h109v179h46v-179h44v-51h-45v-56h-45v56h-184zM145 397.999l-1 248c-13.333 -5.33301 -23 -12.166 -29 -20.499s-10.667 -18.166 -14 -29.499h-51c0 8.66699 2 18 6 28
s9.83301 19.667 17.5 29s16 17.666 25 24.999s18.5 12.666 28.5 15.999l12 4c2 0 4 0.666992 6 2h49v-302h52v-49h-196v49h95z" />
    <glyph glyph-name="onehalf" unicode="&#xbd;" horiz-adv-x="657" 
d="M244 6h-64l197 694h60zM552 198c5.33301 6.66699 8.00293 16.335 8.00293 29.002c0 8 -1.5 16 -4.5 24s-7 15.5 -12 22.5s-11.5 12.667 -19.5 17s-17 6.5 -27 6.5h-16c-16 0 -28.667 -5.66699 -38 -17s-16.333 -23.333 -21 -36h-47c0 15.333 3.66699 29.333 11 42
s16.666 23.5 27.999 32.5s23.666 16 36.999 21s26.333 7.5 39 7.5c16 0 31 -3 45 -9s26.5 -14.333 37.5 -25s19.5 -23.334 25.5 -38.001s9 -30.334 9 -47.001c-0.666992 -8.66699 -1.33398 -16.5 -2.00098 -23.5s-4.66699 -16.5 -12 -28.5s-19.333 -27.833 -36 -47.5
s-41 -46.5 -73 -80.5h120v-49h-229l2 2zM145.003 395.001l-0.999023 248c-13.333 -5.33301 -23 -12 -29 -20s-10.667 -17.667 -14 -29l-51 -1c0 8.66699 2 18 6 28s9.66699 19.667 17 29s15.666 17.833 24.999 25.5s19 13.167 29 16.5l12 3c2 0 4 0.666992 6 2h49v-302h52
v-49h-196v49h95z" />
    <glyph glyph-name="threequarters" unicode="&#xbe;" horiz-adv-x="674" 
d="M277 6h-62l197 694h60zM351 56l-1 3l126 290h50l-101 -243h110v180h46v-180h43v-50h-44v-56h-45v56h-184zM97 451c4.66699 -15.333 13.168 -27.834 25.501 -37.501s25.5 -14.5 39.5 -14.5c19.333 0 35.833 7.16699 49.5 21.5s20.5 31.5 20.5 51.5
c0 15.333 -4.33301 29.5 -13 42.5s-19.667 21.833 -33 26.5l-24 5v48l44 -8c2 1.33301 3 3.66602 3 6.99902v9c0 14 -4.5 25.5 -13.5 34.5s-20.167 13.5 -33.5 13.5c-10 0 -18.833 -3.16699 -26.5 -9.5s-13.167 -14.833 -16.5 -25.5l-3 -17h-45v5c0 13.333 2.5 26 7.5 38
s11.667 22.333 20 31s18 15.5 29 20.5s22.5 7.5 34.5 7.5c26.667 0 48.834 -9.33301 66.501 -28s26.5 -42 26.5 -70c0 -20.667 -3 -35.334 -9 -44.001c8.66699 -10 16 -21.667 22 -35s9 -26.666 9 -39.999v-22c0 -13.333 -3 -26.666 -9 -39.999
s-13.833 -25.166 -23.5 -35.499s-20.834 -18.833 -33.501 -25.5s-25 -10 -37 -10h-20c-12.667 0 -24.834 2.83301 -36.501 8.5s-22.334 13.167 -32.001 22.5s-17.667 20 -24 32s-10.166 24.333 -11.499 37v1h47z" />
    <glyph glyph-name="questiondown" unicode="&#xbf;" horiz-adv-x="562" 
d="M277 400c-18.667 0 -36 -4.66699 -52 -14s-29.833 -21.166 -41.5 -35.499s-20.834 -30.5 -27.501 -48.5s-10 -35.667 -10 -53c0 -20.667 4 -40.167 12 -58.5s18.667 -34.333 32 -48s28.666 -24.5 45.999 -32.5s36 -12 56 -12c43.333 0 79.333 16.333 108 49l112 -1
c0 -0.666992 -1 -3.33398 -3 -8.00098l-5 -11c-22.667 -42 -52.834 -74.167 -90.501 -96.5s-78.834 -33.5 -123.501 -33.5c-33.333 0 -64.666 6.66699 -93.999 20s-54.833 31.5 -76.5 54.5s-38.667 49.833 -51 80.5s-18.5 63.334 -18.5 98.001c0 32.667 5.33301 63 16 91
s25.834 53 45.501 75s42.834 40.167 69.501 54.5s56.334 24.166 89.001 29.499c2.66699 0 4 1.66699 4 5v47h97v-152h-94zM274 598v101h97v-101h-97z" />
    <glyph glyph-name="Agrave" unicode="&#xc0;" horiz-adv-x="620" 
d="M51 481c2 30.667 10.166 59.332 24.499 85.999s33.5 49.834 57.5 69.501s51.167 35 81.5 46s62.5 16.5 96.5 16.5c32 0 63.333 -6.16699 94 -18.5s58.334 -29 83.001 -50s44.5 -45.833 59.5 -74.5s22.5 -59 22.5 -91v-462h-101v392h-315v-396h-104zM310.999 598.998
c-34.667 0 -66.166 -9.66699 -94.499 -29s-46.833 -45 -55.5 -77h299c-8.66699 32 -26.834 57.667 -54.501 77s-59.167 29 -94.5 29zM405 779.998l-40 -52l-150 132l40 52z" />
    <glyph glyph-name="Aacute" unicode="&#xc1;" horiz-adv-x="620" 
d="M51 481c2 30.667 10.166 59.332 24.499 85.999s33.5 49.834 57.5 69.501s51.167 35 81.5 46s62.5 16.5 96.5 16.5c32 0 63.333 -6.16699 94 -18.5s58.334 -29 83.001 -50s44.5 -45.833 59.5 -74.5s22.5 -59 22.5 -91v-462h-101v392h-315v-396h-104zM310.999 598.998
c-34.667 0 -66.166 -9.66699 -94.499 -29s-46.833 -45 -55.5 -77h299c-8.66699 32 -26.834 57.667 -54.501 77s-59.167 29 -94.5 29zM366 911.998l39 -52l-150 -132l-40 52z" />
    <glyph glyph-name="Acircumflex" unicode="&#xc2;" horiz-adv-x="620" 
d="M51 481c2 30.667 10.166 59.332 24.499 85.999s33.5 49.834 57.5 69.501s51.167 35 81.5 46s62.5 16.5 96.5 16.5c32 0 63.333 -6.16699 94 -18.5s58.334 -29 83.001 -50s44.5 -45.833 59.5 -74.5s22.5 -59 22.5 -91v-462h-101v392h-315v-396h-104zM310.999 598.998
c-34.667 0 -66.166 -9.66699 -94.499 -29s-46.833 -45 -55.5 -77h299c-8.66699 32 -26.834 57.667 -54.501 77s-59.167 29 -94.5 29zM315 909.998l150 -181h-88l-62 84l-75 -84h-86z" />
    <glyph glyph-name="Atilde" unicode="&#xc3;" horiz-adv-x="620" 
d="M51 481c2 30.667 10.166 59.332 24.499 85.999s33.5 49.834 57.5 69.501s51.167 35 81.5 46s62.5 16.5 96.5 16.5c32 0 63.333 -6.16699 94 -18.5s58.334 -29 83.001 -50s44.5 -45.833 59.5 -74.5s22.5 -59 22.5 -91v-462h-101v392h-315v-396h-104zM310.999 598.998
c-34.667 0 -66.166 -9.66699 -94.499 -29s-46.833 -45 -55.5 -77h299c-8.66699 32 -26.834 57.667 -54.501 77s-59.167 29 -94.5 29z" />
    <glyph glyph-name="Adieresis" unicode="&#xc4;" horiz-adv-x="620" 
d="M51 481c2 30.667 10.166 59.332 24.499 85.999s33.5 49.834 57.5 69.501s51.167 35 81.5 46s62.5 16.5 96.5 16.5c32 0 63.333 -6.16699 94 -18.5s58.334 -29 83.001 -50s44.5 -45.833 59.5 -74.5s22.5 -59 22.5 -91v-462h-101v392h-315v-396h-104zM310.999 598.998
c-34.667 0 -66.166 -9.66699 -94.499 -29s-46.833 -45 -55.5 -77h299c-8.66699 32 -26.834 57.667 -54.501 77s-59.167 29 -94.5 29zM441 806.998v-78h-74v78h74zM252 806.998v-78h-72v78h72z" />
    <glyph glyph-name="Aring" unicode="&#xc5;" horiz-adv-x="620" 
d="M51 481c2 30.667 10.166 59.332 24.499 85.999s33.5 49.834 57.5 69.501s51.167 35 81.5 46s62.5 16.5 96.5 16.5c32 0 63.333 -6.16699 94 -18.5s58.334 -29 83.001 -50s44.5 -45.833 59.5 -74.5s22.5 -59 22.5 -91v-462h-101v392h-315v-396h-104zM209.999 835.998
c0 14.667 2.5 28.5 7.5 41.5s12 24.5 21 34.5s19.667 17.833 32 23.5s25.5 8.5 39.5 8.5c13.333 0 26.166 -2.83301 38.499 -8.5s23.166 -13.5 32.499 -23.5s16.666 -21.5 21.999 -34.5s8 -26.833 8 -41.5s-2.66699 -28.5 -8 -41.5s-12.666 -24.333 -21.999 -34
s-20.166 -17.334 -32.499 -23.001s-25.166 -8.5 -38.499 -8.5c-14 0 -27.167 2.83301 -39.5 8.5s-23 13.334 -32 23.001s-16 21 -21 34s-7.5 26.833 -7.5 41.5zM310.999 598.998c-34.667 0 -66.166 -9.66699 -94.499 -29s-46.833 -45 -55.5 -77h299
c-8.66699 32 -26.834 57.667 -54.501 77s-59.167 29 -94.5 29zM250 835.998c0 -17.333 5.83105 -32.166 17.498 -44.499s25.834 -18.5 42.501 -18.5s30.834 6.16699 42.501 18.5s17.5 27.166 17.5 44.499s-5.66699 32.333 -17 45s-25.333 19 -42 19
c-17.333 0 -31.833 -6.16699 -43.5 -18.5s-17.5 -27.5 -17.5 -45.5z" />
    <glyph glyph-name="AE" unicode="&#xc6;" horiz-adv-x="994" 
d="M51 481c2 30.667 10.168 59.333 24.501 86s33.5 49.834 57.5 69.501s51.167 35 81.5 46s62.5 16.5 96.5 16.5c24 0 47.5 -3.16699 70.5 -9.5s44.5 -15.5 64.5 -27.5s38.333 -26.333 55 -43s30.334 -35 41.001 -55c32.667 42.667 73.334 76.667 122.001 102
s102.334 38 161.001 38c36 0 71 -5 105 -15h1c2 -0.666992 4.16699 -1.33398 6.5 -2.00098s3.83301 -1 4.5 -1v-124c-35.333 18 -71.333 27 -108 27c-43.333 0 -83.833 -8.16699 -121.5 -24.5s-66.5 -40.833 -86.5 -73.5h194v-107h-229c-0.666992 -6 -1.16699 -12 -1.5 -18
s-0.5 -12 -0.5 -18c0 -32 7.16699 -62 21.5 -90s33.166 -52.5 56.499 -73.5s49.666 -37.5 78.999 -49.5s58.666 -18 87.999 -18c18 0 36.667 1.83301 56 5.5s37.333 10.167 54 19.5v-122c0 -2 -4.66699 -4.16699 -14 -6.5s-20.5 -4.5 -33.5 -6.5s-26.167 -3.66699 -39.5 -5
s-24 -2 -32 -2c-50 0 -96.833 9.5 -140.5 28.5s-81.834 45.5 -114.501 79.5v-105h-101v392h-315v-396h-104zM311.001 598.999c-34.667 0 -66.166 -9.66699 -94.499 -29s-46.833 -45 -55.5 -77h299c-8.66699 32 -26.834 57.667 -54.501 77s-59.167 29 -94.5 29z" />
    <glyph glyph-name="Ccedilla" unicode="&#xc7;" horiz-adv-x="564" 
d="M424 1l0.00488281 -33.001c14.667 -7.33301 27 -18.5 37 -33.5s15 -32.167 15 -51.5c0 -26 -8.5 -48 -25.5 -66s-37.5 -27 -61.5 -27h-7c-1.33301 0 -2.83301 0.166992 -4.5 0.5s-3.5 0.5 -5.5 0.5l-1 39h1c3.33301 -2 9 -3 17 -3c14 0 26 5.33301 36 16s15 23.667 15 39
c0 16 -5 29.333 -15 40s-22 16 -36 16c-2.66699 0 -5.33398 -0.166992 -8.00098 -0.5s-5.66699 -0.833008 -9 -1.5l-1 38h1c1.33301 0.666992 3 1 5 1h9v26c-46.667 1.33301 -90.334 11.5 -131.001 30.5s-76.334 44.167 -107.001 75.5s-54.667 68 -72 110
s-26 86.667 -26 134c0 48.667 9.16699 94.167 27.5 136.5s43.166 79.333 74.499 111s68.166 56.667 110.499 75s87.833 27.5 136.5 27.5c21.333 0 53.333 -4.66699 96 -14c3.33301 0 7 -0.833008 11 -2.5s6.66699 -2.5 8 -2.5v-123c-33.333 16.667 -69 25 -107 25
c-31.333 0 -61.166 -6.16699 -89.499 -18.5s-53.166 -29 -74.499 -50s-38 -45.667 -50 -74s-18 -58.5 -18 -90.5c0 -33.333 6 -64.166 18 -92.499s28.667 -53 50 -74s46.166 -37.333 74.499 -49s59.166 -17.5 92.499 -17.5c38 0 72.667 8.33301 104 25v-123
c-2.66699 0 -7.16699 -0.833008 -13.5 -2.5l-22 -6c-8.33301 -2.33301 -17.5 -4.5 -27.5 -6.5s-19 -3.33301 -27 -4z" />
    <glyph glyph-name="Egrave" unicode="&#xc8;" horiz-adv-x="567" 
d="M50 349c0 48 9.16211 93.333 27.4951 136s43.5 79.834 75.5 111.501s69.333 56.667 112 75s88 27.5 136 27.5c17.333 0 34.833 -1.33301 52.5 -4s34.834 -6.33398 51.501 -11.001h1c0.666992 -1.33301 2.33398 -2.33301 5.00098 -3s4.33398 -1 5.00098 -1l1 -122
c-17.333 8 -35 14.333 -53 19s-36.333 7 -55 7c-42 0 -82 -8 -120 -24s-66.333 -40.333 -85 -73h191v-106h-226c-1.33301 -6 -2.16602 -12 -2.49902 -18s-0.5 -11.667 -0.5 -17c0 -32 7.33301 -62 22 -90s33.5 -52.333 56.5 -73s48.833 -37 77.5 -49s57.667 -18 87 -18
c17.333 0 35.5 1.83301 54.5 5.5s36.833 10.167 53.5 19.5v-121c0 -2 -4.5 -4.16699 -13.5 -6.5s-19.833 -4.5 -32.5 -6.5s-25.667 -3.66699 -39 -5s-23.666 -2 -30.999 -2c-48 0 -93.333 9.16699 -136 27.5s-80 43.333 -112 75s-57.167 68.667 -75.5 111
s-27.5 87.5 -27.5 135.5zM378.995 780l-42 -52l-150 132l42 52z" />
    <glyph glyph-name="Eacute" unicode="&#xc9;" horiz-adv-x="567" 
d="M50 349c0 48 9.16211 93.333 27.4951 136s43.5 79.834 75.5 111.501s69.333 56.667 112 75s88 27.5 136 27.5c17.333 0 34.833 -1.33301 52.5 -4s34.834 -6.33398 51.501 -11.001h1c0.666992 -1.33301 2.33398 -2.33301 5.00098 -3s4.33398 -1 5.00098 -1l1 -122
c-17.333 8 -35 14.333 -53 19s-36.333 7 -55 7c-42 0 -82 -8 -120 -24s-66.333 -40.333 -85 -73h191v-106h-226c-1.33301 -6 -2.16602 -12 -2.49902 -18s-0.5 -11.667 -0.5 -17c0 -32 7.33301 -62 22 -90s33.5 -52.333 56.5 -73s48.833 -37 77.5 -49s57.667 -18 87 -18
c17.333 0 35.5 1.83301 54.5 5.5s36.833 10.167 53.5 19.5v-121c0 -2 -4.5 -4.16699 -13.5 -6.5s-19.833 -4.5 -32.5 -6.5s-25.667 -3.66699 -39 -5s-23.666 -2 -30.999 -2c-48 0 -93.333 9.16699 -136 27.5s-80 43.333 -112 75s-57.167 68.667 -75.5 111
s-27.5 87.5 -27.5 135.5zM338.995 912l40 -52l-150 -132l-42 52z" />
    <glyph glyph-name="Ecircumflex" unicode="&#xca;" horiz-adv-x="567" 
d="M50 349c0 48 9.16211 93.333 27.4951 136s43.5 79.834 75.5 111.501s69.333 56.667 112 75s88 27.5 136 27.5c17.333 0 34.833 -1.33301 52.5 -4s34.834 -6.33398 51.501 -11.001h1c0.666992 -1.33301 2.33398 -2.33301 5.00098 -3s4.33398 -1 5.00098 -1l1 -122
c-17.333 8 -35 14.333 -53 19s-36.333 7 -55 7c-42 0 -82 -8 -120 -24s-66.333 -40.333 -85 -73h191v-106h-226c-1.33301 -6 -2.16602 -12 -2.49902 -18s-0.5 -11.667 -0.5 -17c0 -32 7.33301 -62 22 -90s33.5 -52.333 56.5 -73s48.833 -37 77.5 -49s57.667 -18 87 -18
c17.333 0 35.5 1.83301 54.5 5.5s36.833 10.167 53.5 19.5v-121c0 -2 -4.5 -4.16699 -13.5 -6.5s-19.833 -4.5 -32.5 -6.5s-25.667 -3.66699 -39 -5s-23.666 -2 -30.999 -2c-48 0 -93.333 9.16699 -136 27.5s-80 43.333 -112 75s-57.167 68.667 -75.5 111
s-27.5 87.5 -27.5 135.5zM288.995 910l150 -181h-88l-62 84l-75 -84h-87z" />
    <glyph glyph-name="Edieresis" unicode="&#xcb;" horiz-adv-x="567" 
d="M50 349c0 48 9.16211 93.333 27.4951 136s43.5 79.834 75.5 111.501s69.333 56.667 112 75s88 27.5 136 27.5c17.333 0 34.833 -1.33301 52.5 -4s34.834 -6.33398 51.501 -11.001h1c0.666992 -1.33301 2.33398 -2.33301 5.00098 -3s4.33398 -1 5.00098 -1l1 -122
c-17.333 8 -35 14.333 -53 19s-36.333 7 -55 7c-42 0 -82 -8 -120 -24s-66.333 -40.333 -85 -73h191v-106h-226c-1.33301 -6 -2.16602 -12 -2.49902 -18s-0.5 -11.667 -0.5 -17c0 -32 7.33301 -62 22 -90s33.5 -52.333 56.5 -73s48.833 -37 77.5 -49s57.667 -18 87 -18
c17.333 0 35.5 1.83301 54.5 5.5s36.833 10.167 53.5 19.5v-121c0 -2 -4.5 -4.16699 -13.5 -6.5s-19.833 -4.5 -32.5 -6.5s-25.667 -3.66699 -39 -5s-23.666 -2 -30.999 -2c-48 0 -93.333 9.16699 -136 27.5s-80 43.333 -112 75s-57.167 68.667 -75.5 111
s-27.5 87.5 -27.5 135.5zM224.995 807v-78h-73v78h73zM413.995 807v-78h-73v78h73z" />
    <glyph glyph-name="Igrave" unicode="&#xcc;" horiz-adv-x="290" 
d="M196 696v-696h-104v696h104zM240 780l-40 -52l-150 132l39 52z" />
    <glyph glyph-name="Iacute" unicode="&#xcd;" horiz-adv-x="290" 
d="M196 696v-696h-104v696h104zM200 912l40 -52l-150 -132l-40 52z" />
    <glyph glyph-name="Icircumflex" unicode="&#xce;" horiz-adv-x="411" 
d="M257 696v-696h-103v696h103zM210 910l151 -181h-89l-62 84l-74 -84h-86z" />
    <glyph glyph-name="Idieresis" unicode="&#xcf;" horiz-adv-x="361" 
d="M232 696v-696h-103v696h103zM124 807v-78h-74v78h74zM311 807v-78h-71v78h71z" />
    <glyph glyph-name="Eth" unicode="&#xd0;" horiz-adv-x="756" 
d="M50 278v136.999h104v275h112v-63c24 20.667 49.833 36.834 77.5 48.501s56.5 17.5 86.5 17.5c38 0 74 -9 108 -27s63.5 -42.833 88.5 -74.5s44.5 -68.5 58.5 -110.5s21 -87 21 -135c0 -47.333 -7.33301 -91.833 -22 -133.5s-34.5 -78 -59.5 -109
s-54.167 -55.5 -87.5 -73.5s-69 -27 -107 -27c-59.333 0 -114 22 -164 66v-69h-112v278h-104zM275 277.999c0 -1.33301 0.667969 -3 2.00098 -5s2 -3.33301 2 -4c14.667 -38.667 34.5 -69.334 59.5 -92.001s55.5 -34 91.5 -34c22.667 0 44 5.33301 64 16
s37.5 25.167 52.5 43.5s26.667 40 35 65s12.5 51.833 12.5 80.5c0 28 -4.16699 54.5 -12.5 79.5s-20 46.833 -35 65.5s-32.5 33.334 -52.5 44.001s-41.333 16 -64 16c-16.667 0 -33.167 -3.33301 -49.5 -10s-31.5 -16 -45.5 -28s-26.333 -26.5 -37 -43.5
s-18.334 -35.833 -23.001 -56.5h105v-137h-105z" />
    <glyph glyph-name="Ntilde" unicode="&#xd1;" horiz-adv-x="624" 
d="M50 697h107l312 -498v500h105v-698h-102l-1 2l-8.5 12.5c-4.33301 6.33301 -10.833 16.5 -19.5 30.5l-35 56.5l-55.5 90l-82 131l-113.5 180.5l-1 1v-504h-104zM315 807c32.667 -24 56.332 -36 70.999 -36c12 0 20.667 6.16699 26 18.5s8 27.5 8 45.5l37 -8
c-0.666992 -30 -7 -54.667 -19 -74s-29 -29 -51 -29c-8.66699 0 -20.334 3.83301 -35.001 11.5s-29.5 16 -44.5 25l-42 25c-13 7.66699 -22.5 11.5 -28.5 11.5c-11.333 0 -19.666 -6.33301 -24.999 -19s-8.66602 -27.667 -9.99902 -45l-37 8c1.33301 28 8.33301 52 21 72
s29 30 49 30c21.333 0 48 -12 80 -36z" />
    <glyph glyph-name="Ograve" unicode="&#xd2;" horiz-adv-x="755" 
d="M50 349c0 48.667 8.49902 94.333 25.499 137s40.5 79.667 70.5 111s65 56 105 74s82.667 27 128 27c44.667 0 86.834 -9.16699 126.501 -27.5s74.334 -43.333 104.001 -75s53 -68.667 70 -111s25.5 -87.5 25.5 -135.5s-8.83301 -93.167 -26.5 -135.5
s-41.167 -79.166 -70.5 -110.499s-63.833 -56.166 -103.5 -74.499s-82.167 -27.5 -127.5 -27.5c-44.667 0 -86.834 9.16699 -126.501 27.5s-74.5 43.166 -104.5 74.499s-53.5 68.166 -70.5 110.499s-25.5 87.5 -25.5 135.5zM158.999 348.999
c0 -32 5.83594 -62.167 17.5029 -90.5s27.167 -52.833 46.5 -73.5s42.333 -37 69 -49s55 -18 85 -18c31.333 0 60.333 6 87 18s49.667 28.5 69 49.5s34.666 45.667 45.999 74s17 58.833 17 91.5c0 32 -5.83301 62 -17.5 90s-27.334 52.5 -47.001 73.5
s-42.834 37.5 -69.501 49.5s-55 18 -85 18s-58.333 -6.16699 -85 -18.5s-49.667 -29 -69 -50s-34.833 -45.667 -46.5 -74s-17.5 -58.5 -17.5 -90.5zM472.002 779.999l-41 -52l-150 132l41 52z" />
    <glyph glyph-name="Oacute" unicode="&#xd3;" horiz-adv-x="755" 
d="M50 349c0 48.667 8.49902 94.333 25.499 137s40.5 79.667 70.5 111s65 56 105 74s82.667 27 128 27c44.667 0 86.834 -9.16699 126.501 -27.5s74.334 -43.333 104.001 -75s53 -68.667 70 -111s25.5 -87.5 25.5 -135.5s-8.83301 -93.167 -26.5 -135.5
s-41.167 -79.166 -70.5 -110.499s-63.833 -56.166 -103.5 -74.499s-82.167 -27.5 -127.5 -27.5c-44.667 0 -86.834 9.16699 -126.501 27.5s-74.5 43.166 -104.5 74.499s-53.5 68.166 -70.5 110.499s-25.5 87.5 -25.5 135.5zM158.999 348.999
c0 -32 5.83594 -62.167 17.5029 -90.5s27.167 -52.833 46.5 -73.5s42.333 -37 69 -49s55 -18 85 -18c31.333 0 60.333 6 87 18s49.667 28.5 69 49.5s34.666 45.667 45.999 74s17 58.833 17 91.5c0 32 -5.83301 62 -17.5 90s-27.334 52.5 -47.001 73.5
s-42.834 37.5 -69.501 49.5s-55 18 -85 18s-58.333 -6.16699 -85 -18.5s-49.667 -29 -69 -50s-34.833 -45.667 -46.5 -74s-17.5 -58.5 -17.5 -90.5zM432.002 911.999l40 -52l-150 -132l-41 52z" />
    <glyph glyph-name="Ocircumflex" unicode="&#xd4;" horiz-adv-x="755" 
d="M50 349c0 48.667 8.49902 94.333 25.499 137s40.5 79.667 70.5 111s65 56 105 74s82.667 27 128 27c44.667 0 86.834 -9.16699 126.501 -27.5s74.334 -43.333 104.001 -75s53 -68.667 70 -111s25.5 -87.5 25.5 -135.5s-8.83301 -93.167 -26.5 -135.5
s-41.167 -79.166 -70.5 -110.499s-63.833 -56.166 -103.5 -74.499s-82.167 -27.5 -127.5 -27.5c-44.667 0 -86.834 9.16699 -126.501 27.5s-74.5 43.166 -104.5 74.499s-53.5 68.166 -70.5 110.499s-25.5 87.5 -25.5 135.5zM158.999 348.999
c0 -32 5.83594 -62.167 17.5029 -90.5s27.167 -52.833 46.5 -73.5s42.333 -37 69 -49s55 -18 85 -18c31.333 0 60.333 6 87 18s49.667 28.5 69 49.5s34.666 45.667 45.999 74s17 58.833 17 91.5c0 32 -5.83301 62 -17.5 90s-27.334 52.5 -47.001 73.5
s-42.834 37.5 -69.501 49.5s-55 18 -85 18s-58.333 -6.16699 -85 -18.5s-49.667 -29 -69 -50s-34.833 -45.667 -46.5 -74s-17.5 -58.5 -17.5 -90.5zM381.002 909.999l151 -181h-87l-64 84l-74 -84h-86z" />
    <glyph glyph-name="Otilde" unicode="&#xd5;" horiz-adv-x="755" 
d="M50 349c0 48.667 8.49902 94.335 25.499 137.002s40.5 79.667 70.5 111s65 56 105 74s82.667 27 128 27c44.667 0 86.834 -9.16699 126.501 -27.5s74.334 -43.333 104.001 -75s53 -68.667 70 -111s25.5 -87.5 25.5 -135.5s-8.83301 -93.167 -26.5 -135.5
s-41.167 -79.333 -70.5 -111s-63.833 -56.5 -103.5 -74.5s-82.167 -27 -127.5 -27c-44.667 0 -86.834 9.16699 -126.501 27.5s-74.5 43.166 -104.5 74.499s-53.5 68.166 -70.5 110.499s-25.5 87.5 -25.5 135.5zM158.999 349.001c0 -32.667 5.83594 -63 17.5029 -91
s27.167 -52.333 46.5 -73s42.333 -37 69 -49s55 -18 85 -18c31.333 0 60.333 6 87 18s49.667 28.5 69 49.5s34.666 45.667 45.999 74s17 58.833 17 91.5c0 32 -5.83301 62 -17.5 90s-27.334 52.5 -47.001 73.5s-42.834 37.5 -69.501 49.5s-55 18 -85 18
s-58.333 -6.16699 -85 -18.5s-49.667 -29 -69 -50s-34.833 -45.667 -46.5 -74s-17.5 -58.5 -17.5 -90.5zM399.002 807.001c30.667 -24 54.001 -36 70.001 -36c12 0 20.833 6.16699 26.5 18.5s8.5 27.5 8.5 45.5l37 -8c-0.666992 -30 -7.33398 -54.667 -20.001 -74
s-29.334 -29 -50.001 -29c-9.33301 0 -21.166 3.83301 -35.499 11.5s-29 16 -44 25l-42 25c-13 7.66699 -22.5 11.5 -28.5 11.5c-12.667 0 -21.5 -6.33301 -26.5 -19s-7.83301 -27.667 -8.5 -45l-37 8c1.33301 28 8.33301 52 21 72s29 30 49 30c21.333 0 48 -12 80 -36z" />
    <glyph glyph-name="Odieresis" unicode="&#xd6;" horiz-adv-x="755" 
d="M50 349c0 48.667 8.49902 94.333 25.499 137s40.5 79.667 70.5 111s65 56 105 74s82.667 27 128 27c44.667 0 86.834 -9.16699 126.501 -27.5s74.334 -43.333 104.001 -75s53 -68.667 70 -111s25.5 -87.5 25.5 -135.5s-8.83301 -93.167 -26.5 -135.5
s-41.167 -79.166 -70.5 -110.499s-63.833 -56.166 -103.5 -74.499s-82.167 -27.5 -127.5 -27.5c-44.667 0 -86.834 9.16699 -126.501 27.5s-74.5 43.166 -104.5 74.499s-53.5 68.166 -70.5 110.499s-25.5 87.5 -25.5 135.5zM158.999 348.999
c0 -32 5.83594 -62.167 17.5029 -90.5s27.167 -52.833 46.5 -73.5s42.333 -37 69 -49s55 -18 85 -18c31.333 0 60.333 6 87 18s49.667 28.5 69 49.5s34.666 45.667 45.999 74s17 58.833 17 91.5c0 32 -5.83301 62 -17.5 90s-27.334 52.5 -47.001 73.5
s-42.834 37.5 -69.501 49.5s-55 18 -85 18s-58.333 -6.16699 -85 -18.5s-49.667 -29 -69 -50s-34.833 -45.667 -46.5 -74s-17.5 -58.5 -17.5 -90.5zM509.002 806.999v-78h-74v78h74zM319.002 806.999v-78h-73v78h73z" />
    <glyph glyph-name="multiply" unicode="&#xd7;" horiz-adv-x="347" 
d="M111 78l-61 66l62 65l-62 67l62 66l62 -66l62 66l61 -66l-62 -66l62 -67l-62 -65l-63 66z" />
    <glyph glyph-name="Oslash" unicode="&#xd8;" horiz-adv-x="755" 
d="M50 351c0 48 8.66309 93.168 25.9961 135.501s40.833 79.333 70.5 111s64.5 56.5 104.5 74.5s82.667 27 128 27c44.667 0 86.834 -9.33301 126.501 -28s74.334 -43.834 104.001 -75.501s53 -68.834 70 -111.501s25.5 -88 25.5 -136c0 -48.667 -8.83301 -94 -26.5 -136
s-41.5 -78.667 -71.5 -110s-65 -56 -105 -74s-82.333 -27 -127 -27c-45.333 0 -87.666 9.33301 -126.999 28s-73.666 43.834 -102.999 75.501s-52.5 68.667 -69.5 111s-25.5 87.5 -25.5 135.5zM158.996 349.001c0 -18 1.66895 -35.168 5.00195 -51.501
s8.66602 -32.166 15.999 -47.499l9 -18l298 318l-22 13c-13.333 7.33301 -28 12 -44 14s-31 3.66699 -45 5c-30 0 -58.333 -6.16699 -85 -18.5s-49.834 -29 -69.501 -50s-35 -45.667 -46 -74s-16.5 -58.5 -16.5 -90.5zM266.998 149l2.99805 -1
c14 -11.333 30.833 -19.166 50.5 -23.499s38.5 -6.5 56.5 -6.5c30 0 58.333 6 85 18s49.834 28.5 69.501 49.5s35.334 45.667 47.001 74s17.5 58.833 17.5 91.5c0 20 -2.5 40.167 -7.5 60.5s-12.5 39.166 -22.5 56.499z" />
    <glyph glyph-name="Ugrave" unicode="&#xd9;" horiz-adv-x="617" 
d="M50 217v484.001h104v-471c5.33301 -19.333 12.166 -37.333 20.499 -54s18.666 -31 30.999 -43s26.833 -21.333 43.5 -28s36.667 -10 60 -10c17.333 0 35.166 3.33301 53.499 10s35 16 50 28s27.333 26 37 42s14.5 33.333 14.5 52l1 469h102v-464
c0 -32.667 -7.16699 -63.334 -21.5 -92.001s-33.666 -53.667 -57.999 -75s-52.166 -38.166 -83.499 -50.499s-63 -18.5 -95 -18.5c-33.333 0 -64.666 5.5 -93.999 16.5s-55.5 26.167 -78.5 45.5s-42 42.666 -57 69.999s-24.833 57 -29.5 89zM405 780.001l-41 -52l-150 132
l40 52z" />
    <glyph glyph-name="Uacute" unicode="&#xda;" horiz-adv-x="617" 
d="M50 217v484.001h104v-471c5.33301 -19.333 12.166 -37.333 20.499 -54s18.666 -31 30.999 -43s26.833 -21.333 43.5 -28s36.667 -10 60 -10c17.333 0 35.166 3.33301 53.499 10s35 16 50 28s27.333 26 37 42s14.5 33.333 14.5 52l1 469h102v-464
c0 -32.667 -7.16699 -63.334 -21.5 -92.001s-33.666 -53.667 -57.999 -75s-52.166 -38.166 -83.499 -50.499s-63 -18.5 -95 -18.5c-33.333 0 -64.666 5.5 -93.999 16.5s-55.5 26.167 -78.5 45.5s-42 42.666 -57 69.999s-24.833 57 -29.5 89zM364 912.001l41 -52l-150 -132
l-41 52z" />
    <glyph glyph-name="Ucircumflex" unicode="&#xdb;" horiz-adv-x="617" 
d="M50 217v484.001h104v-471c5.33301 -19.333 12.166 -37.333 20.499 -54s18.666 -31 30.999 -43s26.833 -21.333 43.5 -28s36.667 -10 60 -10c17.333 0 35.166 3.33301 53.499 10s35 16 50 28s27.333 26 37 42s14.5 33.333 14.5 52l1 469h102v-464
c0 -32.667 -7.16699 -63.334 -21.5 -92.001s-33.666 -53.667 -57.999 -75s-52.166 -38.166 -83.499 -50.499s-63 -18.5 -95 -18.5c-33.333 0 -64.666 5.5 -93.999 16.5s-55.5 26.167 -78.5 45.5s-42 42.666 -57 69.999s-24.833 57 -29.5 89zM314 910.001l151 -181h-89
l-62 84l-74 -84h-86z" />
    <glyph glyph-name="Udieresis" unicode="&#xdc;" horiz-adv-x="617" 
d="M50 217v484.001h104v-471c5.33301 -19.333 12.166 -37.333 20.499 -54s18.666 -31 30.999 -43s26.833 -21.333 43.5 -28s36.667 -10 60 -10c17.333 0 35.166 3.33301 53.499 10s35 16 50 28s27.333 26 37 42s14.5 33.333 14.5 52l1 469h102v-464
c0 -32.667 -7.16699 -63.334 -21.5 -92.001s-33.666 -53.667 -57.999 -75s-52.166 -38.166 -83.499 -50.499s-63 -18.5 -95 -18.5c-33.333 0 -64.666 5.5 -93.999 16.5s-55.5 26.167 -78.5 45.5s-42 42.666 -57 69.999s-24.833 57 -29.5 89zM440 807.001v-78h-73v78h73z
M251 807.001v-78h-74v78h74z" />
    <glyph glyph-name="Yacute" unicode="&#xdd;" horiz-adv-x="624" 
d="M240 219l-33.998 11.001l-29 14l-32 21c-36.667 27.333 -62.667 61.333 -78 102l-7 21c-4 10.667 -6.66699 21 -8 31s-2 20.667 -2 32l2 246h102l2 -267c2.66699 -12.667 6.5 -24.834 11.5 -36.501s12.5 -22.167 22.5 -31.5l24 -23
c7.33301 -5.33301 16.666 -10.666 27.999 -15.999s28.666 -10.333 51.999 -15h37l21 3c11.333 2.66699 22 6.5 32 11.5s19.333 10.5 28 16.5l15 14c13.333 13.333 24 29.166 32 47.499s12 36.166 12 53.499l1 243h102v-260c-1.33301 -8.66699 -2.5 -17.167 -3.5 -25.5
s-2.83301 -16.166 -5.5 -23.499v-1c-28.667 -84.667 -89 -140.667 -181 -168l-9 -3v-215h-125v215c0 1.33301 -1 2 -3 2s-4.33301 0.333008 -7 1zM367.002 912.001l40 -52l-150 -132l-40 52z" />
    <glyph glyph-name="Thorn" unicode="&#xde;" horiz-adv-x="499" 
d="M152 699l-0.00195312 -109.002h9c2 0 3.33301 0.333008 4 1h55c28 0 55.667 -7.33301 83 -22s51.833 -33.167 73.5 -55.5s39.167 -47 52.5 -74s20 -52.5 20 -76.5v-44c0 -1.33301 -0.5 -5.16602 -1.5 -11.499s-1.83301 -11.166 -2.5 -14.499
c-6.66699 -29.333 -18 -56.5 -34 -81.5s-35 -46.5 -57 -64.5s-47 -32 -75 -42s-57.333 -15 -88 -15c-7.33301 0 -13.666 0.333008 -18.999 1s-10.666 1 -15.999 1h-4v-92h-102v699h102zM191.998 488.998l-7.99902 -0.000976562c-5.33301 0 -12 -0.333008 -20 -1
s-12 -2 -12 -4v-287c6.66699 -2 13.167 -3.16699 19.5 -3.5s13.166 -0.5 20.499 -0.5c20 0 39.167 3.83301 57.5 11.5s34.5 18.334 48.5 32.001s25.167 29.5 33.5 47.5s12.5 37 12.5 57s-4.16699 39 -12.5 57s-19.5 33.667 -33.5 47s-30.167 24 -48.5 32s-37.5 12 -57.5 12z
" />
    <glyph glyph-name="germandbls" unicode="&#xdf;" horiz-adv-x="564" 
d="M239 76c13.333 -4 28.6689 -6.00586 46.002 -6.00586c18 0 35.333 2.66699 52 8s31.167 12.833 43.5 22.5s22 20.834 29 33.501s10.5 26 10.5 40s-3.5 27.333 -10.5 40s-16.833 23.667 -29.5 33s-27.334 16.666 -44.001 21.999s-34.667 8 -54 8
c-8 0 -15.5 -0.333008 -22.5 -1s-14.833 -2 -23.5 -4v123c0 7.33301 -5.16699 13.833 -15.5 19.5s-20.833 8.5 -31.5 8.5c-9.33301 0 -19.5 -2.83301 -30.5 -8.5s-16.5 -12.167 -16.5 -19.5v-394h-92v490h92v-6c16 4 31.667 6 47 6c18 0 35.5 -2.66699 52.5 -8
s31.833 -12.666 44.5 -21.999s22.667 -20.166 30 -32.499s11 -25.5 11 -39.5c0 -7.33301 -1.33301 -16.166 -4 -26.499s-5.33398 -16.5 -8.00098 -18.5c52.667 -7.33301 96 -23.333 130 -48s55.667 -57 65 -97c0.666992 -1.33301 1.5 -4.16602 2.5 -8.49902
s1.5 -7.16602 1.5 -8.49902v-10c0 -23.333 -6.33301 -45.5 -19 -66.5s-29.334 -39.167 -50.001 -54.5s-45.167 -27.5 -73.5 -36.5s-58.166 -13.5 -89.499 -13.5h-13c-4.66699 0 -10.5 0.333008 -17.5 1s-12.167 1.33398 -15.5 2.00098z" />
    <glyph glyph-name="agrave" unicode="&#xe0;" horiz-adv-x="564" 
d="M420 47c-42.667 -32 -88.999 -48 -138.999 -48c-32.667 0 -63.167 6.5 -91.5 19.5s-52.666 30.667 -72.999 53s-36.5 48.666 -48.5 78.999s-18 62.833 -18 97.5s6 66.834 18 96.501s28.667 55.5 50 77.5s46.166 39.333 74.499 52s58.166 19 89.499 19
c50 0 96 -16 138 -48v46h94v-494h-94v50zM142.001 246c0 -20 3.83301 -39 11.5 -57s17.667 -33.833 30 -47.5s26.833 -24.334 43.5 -32.001s34.667 -11.5 54 -11.5c18.667 0 36.5 3.83301 53.5 11.5s31.667 18.334 44 32.001s22.333 29.5 30 47.5s11.5 37 11.5 57
s-3.83301 39.167 -11.5 57.5s-17.667 34.166 -30 47.499s-27 24 -44 32s-34.833 12 -53.5 12c-19.333 0 -37.333 -4 -54 -12s-31.167 -18.667 -43.5 -32s-22.333 -29.166 -30 -47.499s-11.5 -37.5 -11.5 -57.5zM377.001 570l-41 -52l-150 132l40 52z" />
    <glyph glyph-name="aacute" unicode="&#xe1;" horiz-adv-x="564" 
d="M420 47c-42.667 -32 -88.999 -48 -138.999 -48c-32.667 0 -63.167 6.5 -91.5 19.5s-52.666 30.667 -72.999 53s-36.5 48.666 -48.5 78.999s-18 62.833 -18 97.5s6 66.834 18 96.501s28.667 55.5 50 77.5s46.166 39.333 74.499 52s58.166 19 89.499 19
c50 0 96 -16 138 -48v46h94v-494h-94v50zM142.001 246c0 -20 3.83301 -39 11.5 -57s17.667 -33.833 30 -47.5s26.833 -24.334 43.5 -32.001s34.667 -11.5 54 -11.5c18.667 0 36.5 3.83301 53.5 11.5s31.667 18.334 44 32.001s22.333 29.5 30 47.5s11.5 37 11.5 57
s-3.83301 39.167 -11.5 57.5s-17.667 34.166 -30 47.499s-27 24 -44 32s-34.833 12 -53.5 12c-19.333 0 -37.333 -4 -54 -12s-31.167 -18.667 -43.5 -32s-22.333 -29.166 -30 -47.499s-11.5 -37.5 -11.5 -57.5zM337.001 702l40 -52l-151 -132l-40 52z" />
    <glyph glyph-name="acircumflex" unicode="&#xe2;" horiz-adv-x="564" 
d="M420 47c-42.667 -32 -88.999 -48 -138.999 -48c-32.667 0 -63.167 6.5 -91.5 19.5s-52.666 30.667 -72.999 53s-36.5 48.666 -48.5 78.999s-18 62.833 -18 97.5s6 66.834 18 96.501s28.667 55.5 50 77.5s46.166 39.333 74.499 52s58.166 19 89.499 19
c50 0 96 -16 138 -48v46h94v-494h-94v50zM142.001 246c0 -20 3.83301 -39 11.5 -57s17.667 -33.833 30 -47.5s26.833 -24.334 43.5 -32.001s34.667 -11.5 54 -11.5c18.667 0 36.5 3.83301 53.5 11.5s31.667 18.334 44 32.001s22.333 29.5 30 47.5s11.5 37 11.5 57
s-3.83301 39.167 -11.5 57.5s-17.667 34.166 -30 47.499s-27 24 -44 32s-34.833 12 -53.5 12c-19.333 0 -37.333 -4 -54 -12s-31.167 -18.667 -43.5 -32s-22.333 -29.166 -30 -47.499s-11.5 -37.5 -11.5 -57.5zM286.001 700l151 -181h-88l-63 84l-74 -84h-86z" />
    <glyph glyph-name="atilde" unicode="&#xe3;" horiz-adv-x="564" 
d="M420 47c-42 -32 -88.332 -48.001 -138.999 -48.001c-32.667 0 -63.167 6.5 -91.5 19.5s-52.666 30.833 -72.999 53.5s-36.5 49.167 -48.5 79.5s-18 62.5 -18 96.5c0 34.667 6 66.834 18 96.501s28.667 55.5 50 77.5s46.166 39.333 74.499 52s58.166 19 89.499 19
c50 0 96 -16 138 -48v46h94v-494h-94v50zM142.001 245.999c0 -20 3.83301 -39 11.5 -57s17.667 -33.667 30 -47s26.833 -24 43.5 -32s34.667 -12 54 -12c18.667 0 36.5 4 53.5 12s31.667 18.667 44 32s22.333 29 30 47s11.5 37 11.5 57s-3.83301 39 -11.5 57
s-17.667 33.833 -30 47.5s-27 24.5 -44 32.5s-34.833 12 -53.5 12c-19.333 0 -37.333 -4 -54 -12s-31.167 -18.833 -43.5 -32.5s-22.333 -29.5 -30 -47.5s-11.5 -37 -11.5 -57zM304.001 596.999c30.667 -24 54.333 -36 71 -36c11.333 0 19.833 6.16699 25.5 18.5
s8.5 27.5 8.5 45.5l37 -8c-0.666992 -30 -7.33398 -54.667 -20.001 -74s-29.334 -29 -50.001 -29c-9.33301 0 -21.166 3.83301 -35.499 11.5s-29 16 -44 25l-42 25c-13 7.66699 -22.5 11.5 -28.5 11.5c-12.667 0 -21.5 -6.33301 -26.5 -19s-7.83301 -27.667 -8.5 -45l-37 8
c0 28 6.66699 52 20 72s30 30 50 30c20.667 0 47.334 -12 80.001 -36z" />
    <glyph glyph-name="adieresis" unicode="&#xe4;" horiz-adv-x="564" 
d="M420 47c-42.667 -32 -88.999 -48 -138.999 -48c-32.667 0 -63.167 6.5 -91.5 19.5s-52.666 30.667 -72.999 53s-36.5 48.666 -48.5 78.999s-18 62.833 -18 97.5s6 66.834 18 96.501s28.667 55.5 50 77.5s46.166 39.333 74.499 52s58.166 19 89.499 19
c50 0 96 -16 138 -48v46h94v-494h-94v50zM142.001 246c0 -20 3.83301 -39 11.5 -57s17.667 -33.833 30 -47.5s26.833 -24.334 43.5 -32.001s34.667 -11.5 54 -11.5c18.667 0 36.5 3.83301 53.5 11.5s31.667 18.334 44 32.001s22.333 29.5 30 47.5s11.5 37 11.5 57
s-3.83301 39.167 -11.5 57.5s-17.667 34.166 -30 47.499s-27 24 -44 32s-34.833 12 -53.5 12c-19.333 0 -37.333 -4 -54 -12s-31.167 -18.667 -43.5 -32s-22.333 -29.166 -30 -47.499s-11.5 -37.5 -11.5 -57.5zM224.001 597v-78h-74v78h74zM412.001 597v-78h-72v78h72z" />
    <glyph glyph-name="aring" unicode="&#xe5;" horiz-adv-x="564" 
d="M420 47c-42.667 -32 -88.999 -48 -138.999 -48c-32.667 0 -63.167 6.5 -91.5 19.5s-52.666 30.667 -72.999 53s-36.5 48.666 -48.5 78.999s-18 62.833 -18 97.5s6 66.834 18 96.501s28.667 55.5 50 77.5s46.166 39.333 74.499 52s58.166 19 89.499 19
c50 0 96 -16 138 -48v46h94v-494h-94v50zM142.001 246c0 -20 3.83301 -39 11.5 -57s17.667 -33.833 30 -47.5s26.833 -24.334 43.5 -32.001s34.667 -11.5 54 -11.5c18.667 0 36.5 3.83301 53.5 11.5s31.667 18.334 44 32.001s22.333 29.5 30 47.5s11.5 37 11.5 57
s-3.83301 39.167 -11.5 57.5s-17.667 34.166 -30 47.499s-27 24 -44 32s-34.833 12 -53.5 12c-19.333 0 -37.333 -4 -54 -12s-31.167 -18.667 -43.5 -32s-22.333 -29.166 -30 -47.499s-11.5 -37.5 -11.5 -57.5zM180.001 626c0 14.667 2.66699 28.5 8 41.5
s12.666 24.5 21.999 34.5s20 17.833 32 23.5s25 8.5 39 8.5c13.333 0 26.333 -2.83301 39 -8.5s23.5 -13.5 32.5 -23.5s16.167 -21.5 21.5 -34.5s8 -26.833 8 -41.5s-2.66699 -28.5 -8 -41.5s-12.5 -24.333 -21.5 -34s-19.833 -17.334 -32.5 -23.001s-25.667 -8.5 -39 -8.5
c-14 0 -27 2.83301 -39 8.5s-22.667 13.334 -32 23.001s-16.666 21 -21.999 34s-8 26.833 -8 41.5zM221.001 626c0 -17.333 5.83105 -32.166 17.498 -44.499s25.834 -18.5 42.501 -18.5s30.834 6.16699 42.501 18.5s17.5 27.166 17.5 44.499s-5.66699 32.333 -17 45
s-25.666 19 -42.999 19c-16.667 0 -30.834 -6.16699 -42.501 -18.5s-17.5 -27.5 -17.5 -45.5z" />
    <glyph glyph-name="ae" unicode="&#xe6;" horiz-adv-x="934" 
d="M420 47c-42.667 -32 -88.999 -47.9971 -138.999 -47.9971c-32.667 0 -63.167 6.5 -91.5 19.5s-52.666 30.667 -72.999 53s-36.5 48.666 -48.5 78.999s-18 62.833 -18 97.5s6 66.834 18 96.501s28.667 55.5 50 77.5s46.166 39.333 74.499 52s58.166 19 89.499 19
c50 0 96 -16 138 -48v46h94v-51c18.667 15.333 40.167 27.666 64.5 36.999s49.833 14 76.5 14c31.333 0 61 -6.5 89 -19.5s52.167 -30.5 72.5 -52.5s36.666 -47.833 48.999 -77.5s18.5 -61.5 18.5 -95.5v-18c0 -4.66699 -0.666992 -11.334 -2 -20.001s-2.33301 -13 -3 -13
h-354c2.66699 -14 8.33398 -27 17.001 -39s19.167 -22.167 31.5 -30.5s25.666 -14.833 39.999 -19.5s27.833 -7 40.5 -7c6.66699 0 14.667 0.5 24 1.5s15.333 2.83301 18 5.5h3v-102c-2 -0.666992 -7 -1.33398 -15 -2.00098s-13.667 -1 -17 -1
c-30 0 -57.667 3.83301 -83 11.5s-48.666 20.5 -69.999 38.5v-54h-94v50zM142.001 246.003c0 -20 3.83301 -39 11.5 -57s17.667 -33.833 30 -47.5s26.833 -24.334 43.5 -32.001s34.667 -11.5 54 -11.5c18.667 0 36.5 3.83301 53.5 11.5s31.667 18.334 44 32.001
s22.333 29.5 30 47.5s11.5 37 11.5 57s-3.83301 39.167 -11.5 57.5s-17.667 34.166 -30 47.499s-27 24 -44 32s-34.833 12 -53.5 12c-19.333 0 -37.333 -4 -54 -12s-31.167 -18.667 -43.5 -32s-22.333 -29.166 -30 -47.499s-11.5 -37.5 -11.5 -57.5zM654.001 393.003
c-28 0 -54.667 -9.33301 -80 -28s-42 -42.667 -50 -72h260c-8 30 -24.5 54.167 -49.5 72.5s-51.833 27.5 -80.5 27.5z" />
    <glyph glyph-name="ccedilla" unicode="&#xe7;" horiz-adv-x="376" 
d="M271 0v-27c16 -7.33301 28.833 -18.5 38.5 -33.5s14.5 -31.833 14.5 -50.5c0 -26 -8.33301 -48 -25 -66s-37.667 -27 -63 -27h-6c-0.666992 0 -2.33398 0.166992 -5.00098 0.5s-4.33398 0.5 -5.00098 0.5v38c3.33301 -0.666992 6.16602 -1.16699 8.49902 -1.5
s4.83301 -0.5 7.5 -0.5c15.333 0 28 5.33301 38 16s15 23.667 15 39s-5 28.5 -15 39.5s-22.667 16.5 -38 16.5c-4.66699 0 -10 -1 -16 -3v39c0.666992 0 2.33398 0.166992 5.00098 0.5s4.33398 0.5 5.00098 0.5h4v24c-26.667 5.33301 -51.167 15.333 -73.5 30
s-41.833 32.667 -58.5 54s-29.5 45.333 -38.5 72s-13.5 55 -13.5 85c0 34 6 65.833 18 95.5s28.5 55.667 49.5 78s45.333 39.833 73 52.5s57.834 19 90.501 19h18c3.33301 0 7.83301 -0.5 13.5 -1.5s9.83398 -1.83301 12.501 -2.5l1 -102h-2c-8 2 -15.333 3.66699 -22 5
s-13.667 2 -21 2c-19.333 0 -37.333 -3.83301 -54 -11.5s-31.167 -18.167 -43.5 -31.5s-22.333 -29 -30 -47s-11.5 -37.333 -11.5 -58c0 -20 3.83301 -38.833 11.5 -56.5s17.667 -33 30 -46s26.833 -23.333 43.5 -31s34.667 -11.5 54 -11.5c7.33301 0 14.333 0.666992 21 2
s14 3 22 5h2l-1 -102c-2.66699 -0.666992 -6.83398 -1.5 -12.501 -2.5s-10.167 -1.5 -13.5 -1.5h-28zM271 0l-0.00195312 7.00098h-37v-2c6.66699 -1.33301 12.834 -2.33301 18.501 -3s11.834 -1.33398 18.501 -2.00098z" />
    <glyph glyph-name="egrave" unicode="&#xe8;" 
d="M50 248c0 34 6.00098 65.833 18.001 95.5s28.5 55.334 49.5 77.001s45.667 38.834 74 51.501s58.166 19 89.499 19c32 0 61.833 -6.5 89.5 -19.5s51.834 -30.5 72.501 -52.5s37 -47.833 49 -77.5s18 -61.5 18 -95.5v-18c0 -4.66699 -0.666992 -11.334 -2 -20.001
s-2.33301 -13 -3 -13h-355c3.33301 -14 9.5 -27 18.5 -39s19.667 -22.167 32 -30.5s25.333 -14.833 39 -19.5s27.167 -7 40.5 -7c6 0 14 0.5 24 1.5s16 2.83301 18 5.5h3v-102c-2 -0.666992 -6.83301 -1.33398 -14.5 -2.00098s-13.834 -1 -18.501 -1h-13
c-32.667 0 -63 6.5 -91 19.5s-52.167 30.667 -72.5 53s-36.333 48.5 -48 78.5s-17.5 62 -17.5 96zM280.001 393c-28.667 0 -55.5 -9.16699 -80.5 -27.5s-41.5 -42.5 -49.5 -72.5h260c-8.66699 30 -25.5 54.167 -50.5 72.5s-51.5 27.5 -79.5 27.5zM375.001 570l-41 -52
l-150 132l40 52z" />
    <glyph glyph-name="eacute" unicode="&#xe9;" 
d="M50 248c0 34 6.00098 65.833 18.001 95.5s28.5 55.334 49.5 77.001s45.667 38.834 74 51.501s58.166 19 89.499 19c32 0 61.833 -6.5 89.5 -19.5s51.834 -30.5 72.501 -52.5s37 -47.833 49 -77.5s18 -61.5 18 -95.5v-18c0 -4.66699 -0.666992 -11.334 -2 -20.001
s-2.33301 -13 -3 -13h-355c3.33301 -14 9.5 -27 18.5 -39s19.667 -22.167 32 -30.5s25.333 -14.833 39 -19.5s27.167 -7 40.5 -7c6 0 14 0.5 24 1.5s16 2.83301 18 5.5h3v-102c-2 -0.666992 -6.83301 -1.33398 -14.5 -2.00098s-13.834 -1 -18.501 -1h-13
c-32.667 0 -63 6.5 -91 19.5s-52.167 30.667 -72.5 53s-36.333 48.5 -48 78.5s-17.5 62 -17.5 96zM280.001 393c-28.667 0 -55.5 -9.16699 -80.5 -27.5s-41.5 -42.5 -49.5 -72.5h260c-8.66699 30 -25.5 54.167 -50.5 72.5s-51.5 27.5 -79.5 27.5zM335.001 702l40 -52
l-150 -132l-41 52z" />
    <glyph glyph-name="ecircumflex" unicode="&#xea;" 
d="M50 248c0 34 6.00098 65.833 18.001 95.5s28.5 55.334 49.5 77.001s45.667 38.834 74 51.501s58.166 19 89.499 19c32 0 61.833 -6.5 89.5 -19.5s51.834 -30.5 72.501 -52.5s37 -47.833 49 -77.5s18 -61.5 18 -95.5v-18c0 -4.66699 -0.666992 -11.334 -2 -20.001
s-2.33301 -13 -3 -13h-355c3.33301 -14 9.5 -27 18.5 -39s19.667 -22.167 32 -30.5s25.333 -14.833 39 -19.5s27.167 -7 40.5 -7c6 0 14 0.5 24 1.5s16 2.83301 18 5.5h3v-102c-2 -0.666992 -6.83301 -1.33398 -14.5 -2.00098s-13.834 -1 -18.501 -1h-13
c-32.667 0 -63 6.5 -91 19.5s-52.167 30.667 -72.5 53s-36.333 48.5 -48 78.5s-17.5 62 -17.5 96zM285.001 700l150 -181h-88l-62 84l-75 -84h-86zM280.001 393c-28.667 0 -55.5 -9.16699 -80.5 -27.5s-41.5 -42.5 -49.5 -72.5h260c-8.66699 30 -25.5 54.167 -50.5 72.5
s-51.5 27.5 -79.5 27.5z" />
    <glyph glyph-name="edieresis" unicode="&#xeb;" 
d="M50 248c0 34 6.00098 65.833 18.001 95.5s28.5 55.334 49.5 77.001s45.667 38.834 74 51.501s58.166 19 89.499 19c32 0 61.833 -6.5 89.5 -19.5s51.834 -30.5 72.501 -52.5s37 -47.833 49 -77.5s18 -61.5 18 -95.5v-18c0 -4.66699 -0.666992 -11.334 -2 -20.001
s-2.33301 -13 -3 -13h-355c3.33301 -14 9.5 -27 18.5 -39s19.667 -22.167 32 -30.5s25.333 -14.833 39 -19.5s27.167 -7 40.5 -7c6 0 14 0.5 24 1.5s16 2.83301 18 5.5h3v-102c-2 -0.666992 -6.83301 -1.33398 -14.5 -2.00098s-13.834 -1 -18.501 -1h-13
c-32.667 0 -63 6.5 -91 19.5s-52.167 30.667 -72.5 53s-36.333 48.5 -48 78.5s-17.5 62 -17.5 96zM280.001 393c-28.667 0 -55.5 -9.16699 -80.5 -27.5s-41.5 -42.5 -49.5 -72.5h260c-8.66699 30 -25.5 54.167 -50.5 72.5s-51.5 27.5 -79.5 27.5zM410.001 597v-78h-73v78h73
zM221.001 597v-78h-72v78h72z" />
    <glyph glyph-name="igrave" unicode="&#xec;" horiz-adv-x="291" 
d="M191 491v-490h-91v490h91zM241 570l-41 -52l-150 132l40 52z" />
    <glyph glyph-name="iacute" unicode="&#xed;" horiz-adv-x="291" 
d="M191 491v-490h-91v490h91zM201 702l40 -52l-150 -132l-41 52z" />
    <glyph glyph-name="icircumflex" unicode="&#xee;" horiz-adv-x="411" 
d="M251 491v-490h-91v490h91zM211 700l150 -181h-87l-63 84l-75 -84h-86z" />
    <glyph glyph-name="idieresis" unicode="&#xef;" horiz-adv-x="361" 
d="M226 491v-490h-91v490h91zM122 597v-78h-72v78h72zM311 597v-78h-72v78h72z" />
    <glyph glyph-name="eth" unicode="&#xf0;" horiz-adv-x="654" 
d="M416 441l0.00195312 76h-86v98h85v86h92v-86h97v-98h-97v-293c0 -2 -1 -8.16699 -3 -18.5s-3.66699 -18.5 -5 -24.5c-5.33301 -26.667 -15 -51 -29 -73s-31 -41 -51 -57s-42.167 -28.5 -66.5 -37.5s-48.833 -13.5 -73.5 -13.5c-23.333 -0 -46.333 3.83301 -69 11.5
s-43.834 18.5 -63.501 32.5s-36.5 30.833 -50.5 50.5s-24.667 41.5 -32 65.5l-9 30c-3.33301 10.667 -5 20.667 -5 30v47c0 26.667 6.16699 53.167 18.5 79.5s28.5 50 48.5 71s42.333 38 67 51s49 19.5 73 19.5h42c20 0 40.167 -4.66699 60.5 -14s39.166 -20.333 56.499 -33
zM142.002 244c0 -20 3.66602 -38.667 10.999 -56s17 -32.5 29 -45.5s26.167 -23.167 42.5 -30.5s33.833 -11 52.5 -11c19.333 0 37.333 3.66699 54 11s31.334 17.5 44.001 30.5s22.5 28.167 29.5 45.5s10.5 36.333 10.5 57c0 19.333 -3.5 37.833 -10.5 55.5
s-16.667 33 -29 46s-26.5 23.333 -42.5 31s-33.333 11.5 -52 11.5c-19.333 0 -37.333 -3.83301 -54 -11.5s-31.167 -18 -43.5 -31s-22.333 -28.333 -30 -46s-11.5 -36.5 -11.5 -56.5z" />
    <glyph glyph-name="ntilde" unicode="&#xf1;" horiz-adv-x="561" 
d="M241 389l-0.000976562 -1.99512l-7 -3c-12 -4.66699 -23.333 -11.334 -34 -20.001s-20.5 -18.834 -29.5 -30.501s-16 -24.334 -21 -38.001s-7.5 -27.834 -7.5 -42.501v-255h-92v491h92v-45c44.667 31.333 91 47 139 47c32.667 0 63 -6.5 91 -19.5
s52.333 -30.833 73 -53.5s36.834 -49.167 48.501 -79.5s17.5 -62.833 17.5 -97.5v-243h-91l-1 255c-1.33301 20 -5.83301 38.5 -13.5 55.5s-17.834 31.667 -30.501 44s-27.167 22.166 -43.5 29.499s-33.166 11 -50.499 11c-20.667 0 -34 -1.33301 -40 -4zM301.999 597.005
c31.333 -24 54.668 -36 70.001 -36c12 0 20.833 6.16699 26.5 18.5s8.5 27.5 8.5 45.5l38 -8c-2 -30 -9 -54.667 -21 -74s-28.333 -29 -49 -29c-9.33301 0 -21.333 3.83301 -36 11.5s-29.5 16 -44.5 25l-41.5 25c-12.667 7.66699 -22 11.5 -28 11.5
c-12.667 0 -21.5 -6.33301 -26.5 -19s-7.83301 -27.667 -8.5 -45l-38 8c1.33301 28 8.16602 52 20.499 72s28.5 30 48.5 30c22.667 0 49.667 -12 81 -36z" />
    <glyph glyph-name="ograve" unicode="&#xf2;" horiz-adv-x="565" 
d="M50 248c0 34 6 66 18 96s28.667 56.333 50 79s46 40.5 74 53.5s57.667 19.5 89 19.5c32.667 0 63.167 -6.5 91.5 -19.5s53.166 -30.833 74.499 -53.5s38 -49.167 50 -79.5s18 -62.5 18 -96.5s-6 -66 -18 -96s-28.667 -56.167 -50 -78.5s-46.166 -40 -74.499 -53
s-58.833 -19.5 -91.5 -19.5c-31.333 0 -61 6.5 -89 19.5s-52.667 30.833 -74 53.5s-38 49 -50 79s-18 62 -18 96zM145 248c0 -20.667 3.5 -39.833 10.5 -57.5s16.833 -33.167 29.5 -46.5s27.334 -23.833 44.001 -31.5s34.334 -11.5 53.001 -11.5
c19.333 0 37.333 3.83301 54 11.5s31.334 18.167 44.001 31.5s22.5 28.833 29.5 46.5s10.5 36.834 10.5 57.501c0 20 -3.5 39 -10.5 57s-16.833 33.667 -29.5 47s-27.334 23.833 -44.001 31.5s-34.667 11.5 -54 11.5c-18.667 0 -36.334 -3.83301 -53.001 -11.5
s-31.334 -18.167 -44.001 -31.5s-22.5 -28.833 -29.5 -46.5s-10.5 -36.834 -10.5 -57.501zM377 570.001l-40 -52l-150 132l39 52z" />
    <glyph glyph-name="oacute" unicode="&#xf3;" horiz-adv-x="565" 
d="M50 248c0 34 6 66 18 96s28.667 56.333 50 79s46 40.5 74 53.5s57.667 19.5 89 19.5c32.667 0 63.167 -6.5 91.5 -19.5s53.166 -30.833 74.499 -53.5s38 -49.167 50 -79.5s18 -62.5 18 -96.5s-6 -66 -18 -96s-28.667 -56.167 -50 -78.5s-46.166 -40 -74.499 -53
s-58.833 -19.5 -91.5 -19.5c-31.333 0 -61 6.5 -89 19.5s-52.667 30.833 -74 53.5s-38 49 -50 79s-18 62 -18 96zM145 248c0 -20.667 3.5 -39.833 10.5 -57.5s16.833 -33.167 29.5 -46.5s27.334 -23.833 44.001 -31.5s34.334 -11.5 53.001 -11.5
c19.333 0 37.333 3.83301 54 11.5s31.334 18.167 44.001 31.5s22.5 28.833 29.5 46.5s10.5 36.834 10.5 57.501c0 20 -3.5 39 -10.5 57s-16.833 33.667 -29.5 47s-27.334 23.833 -44.001 31.5s-34.667 11.5 -54 11.5c-18.667 0 -36.334 -3.83301 -53.001 -11.5
s-31.334 -18.167 -44.001 -31.5s-22.5 -28.833 -29.5 -46.5s-10.5 -36.834 -10.5 -57.501zM337 702.001l40 -52l-150 -132l-40 52z" />
    <glyph glyph-name="ocircumflex" unicode="&#xf4;" horiz-adv-x="565" 
d="M50 248c0 34 6 66 18 96s28.667 56.333 50 79s46 40.5 74 53.5s57.667 19.5 89 19.5c32.667 0 63.167 -6.5 91.5 -19.5s53.166 -30.833 74.499 -53.5s38 -49.167 50 -79.5s18 -62.5 18 -96.5s-6 -66 -18 -96s-28.667 -56.167 -50 -78.5s-46.166 -40 -74.499 -53
s-58.833 -19.5 -91.5 -19.5c-31.333 0 -61 6.5 -89 19.5s-52.667 30.833 -74 53.5s-38 49 -50 79s-18 62 -18 96zM145 248c0 -20.667 3.5 -39.833 10.5 -57.5s16.833 -33.167 29.5 -46.5s27.334 -23.833 44.001 -31.5s34.334 -11.5 53.001 -11.5
c19.333 0 37.333 3.83301 54 11.5s31.334 18.167 44.001 31.5s22.5 28.833 29.5 46.5s10.5 36.834 10.5 57.501c0 20 -3.5 39 -10.5 57s-16.833 33.667 -29.5 47s-27.334 23.833 -44.001 31.5s-34.667 11.5 -54 11.5c-18.667 0 -36.334 -3.83301 -53.001 -11.5
s-31.334 -18.167 -44.001 -31.5s-22.5 -28.833 -29.5 -46.5s-10.5 -36.834 -10.5 -57.501zM287 700.001l152 -181h-89l-63 84l-73 -84h-87z" />
    <glyph glyph-name="otilde" unicode="&#xf5;" horiz-adv-x="565" 
d="M50 248c0 34 6.00098 65.999 18.001 95.999s28.667 56.167 50 78.5s46 40.166 74 53.499s57.667 20 89 20c32.667 0 63.167 -6.66699 91.5 -20s53.166 -31.166 74.499 -53.499s38 -48.666 50 -78.999s18 -62.5 18 -96.5s-6.33301 -66 -19 -96s-29.5 -56.167 -50.5 -78.5
s-45.667 -40 -74 -53s-58.5 -19.5 -90.5 -19.5c-31.333 0 -61 6.5 -89 19.5s-52.667 30.833 -74 53.5s-38 49 -50 79s-18 62 -18 96zM145.001 247.999c0 -20 3.33496 -39 10.002 -57s16.167 -33.667 28.5 -47s26.833 -23.833 43.5 -31.5s35 -11.5 55 -11.5
c19.333 0 37.333 3.83301 54 11.5s31.334 18.167 44.001 31.5s22.5 28.833 29.5 46.5s10.5 36.834 10.5 57.501c0 20 -3.5 39 -10.5 57s-16.833 33.667 -29.5 47s-27.334 23.833 -44.001 31.5s-34.667 11.5 -54 11.5c-18.667 0 -36.334 -3.83301 -53.001 -11.5
s-31.334 -18.167 -44.001 -31.5s-22.5 -28.833 -29.5 -46.5s-10.5 -36.834 -10.5 -57.501zM285.003 596.999c32.667 -24 56.332 -36 70.999 -36c12.667 0 21.667 6.16699 27 18.5s8 27.5 8 45.5l38 -8c-1.33301 -30 -8.16602 -54.667 -20.499 -74s-28.833 -29 -49.5 -29
c-9.33301 0 -21.5 3.83301 -36.5 11.5s-30 16 -45 25l-41.5 25c-12.667 7.66699 -21.667 11.5 -27 11.5c-12.667 0 -21.5 -6.33301 -26.5 -19s-7.83301 -27.667 -8.5 -45l-38 8c0 28 6.66699 52 20 72s30 30 50 30c20.667 0 47 -12 79 -36z" />
    <glyph glyph-name="odieresis" unicode="&#xf6;" horiz-adv-x="565" 
d="M50 248c0 34 6 66 18 96s28.667 56.333 50 79s46 40.5 74 53.5s57.667 19.5 89 19.5c32.667 0 63.167 -6.5 91.5 -19.5s53.166 -30.833 74.499 -53.5s38 -49.167 50 -79.5s18 -62.5 18 -96.5s-6 -66 -18 -96s-28.667 -56.167 -50 -78.5s-46.166 -40 -74.499 -53
s-58.833 -19.5 -91.5 -19.5c-31.333 0 -61 6.5 -89 19.5s-52.667 30.833 -74 53.5s-38 49 -50 79s-18 62 -18 96zM145 248c0 -20.667 3.5 -39.833 10.5 -57.5s16.833 -33.167 29.5 -46.5s27.334 -23.833 44.001 -31.5s34.334 -11.5 53.001 -11.5
c19.333 0 37.333 3.83301 54 11.5s31.334 18.167 44.001 31.5s22.5 28.833 29.5 46.5s10.5 36.834 10.5 57.501c0 20 -3.5 39 -10.5 57s-16.833 33.667 -29.5 47s-27.334 23.833 -44.001 31.5s-34.667 11.5 -54 11.5c-18.667 0 -36.334 -3.83301 -53.001 -11.5
s-31.334 -18.167 -44.001 -31.5s-22.5 -28.833 -29.5 -46.5s-10.5 -36.834 -10.5 -57.501zM412 597.001v-78h-72v78h72zM224 597.001v-78h-73v78h73z" />
    <glyph glyph-name="divide" unicode="&#xf7;" horiz-adv-x="390" 
d="M340 263v-101h-290v101h290zM241 99v-98h-91v98h91zM241 418v-97h-91v97h91z" />
    <glyph glyph-name="oslash" unicode="&#xf8;" 
d="M50 246c0 28.667 5.33203 57.6729 15.999 87.0059s25.5 55.666 44.5 78.999s41.167 42.333 66.5 57s53 22 83 22h41c22.667 0 44.834 -4.83301 66.501 -14.5s41.5 -22.667 59.5 -39s33.667 -35 47 -56s22.666 -42.833 27.999 -65.5l5 -26
c1.33301 -2 2.16602 -5.83301 2.49902 -11.5s0.5 -8.83398 0.5 -9.50098v-45c0 -28.667 -6.5 -56.334 -19.5 -83.001s-29.5 -50.334 -49.5 -71.001s-42.5 -37.334 -67.5 -50.001s-49.167 -19 -72.5 -19h-41c-29.333 0 -56.666 7.16699 -81.999 21.5
s-47.666 33.166 -66.999 56.499s-34.333 49.5 -45 78.5s-16 58.5 -16 88.5zM141.999 246.006c0 -4.66699 0.5 -10.332 1.5 -16.999s2.16699 -13.167 3.5 -19.5s3 -12 5 -17s3.66699 -7.83301 5 -8.5l180 195c0 2 -2.5 4 -7.5 6s-10.833 3.5 -17.5 4.5s-13 1.83301 -19 2.5
s-10 1 -12 1c-19.333 0 -37.333 -3.83301 -54 -11.5s-31.167 -18.167 -43.5 -31.5s-22.333 -28.833 -30 -46.5s-11.5 -36.834 -11.5 -57.501zM223.999 113.008c0 -1.33301 5.83105 -3.83203 17.498 -7.49902s21.167 -5.5 28.5 -5.5h11c19.333 0 37.333 3.83301 54 11.5
s31 18 43 31s21.5 28.5 28.5 46.5s10.5 37 10.5 57v16c0 0.666992 -0.333008 3.16699 -1 7.5s-1.66699 9.16602 -3 14.499s-2.66602 10.333 -3.99902 15s-2.66602 7.66699 -3.99902 9z" />
    <glyph glyph-name="ugrave" unicode="&#xf9;" horiz-adv-x="561" 
d="M320 99l0.00292969 2.00098c11.333 4 23.166 10.333 35.499 19s23.166 19 32.499 31s17 25.167 23 39.5s9 29.5 9 45.5v255h91v-491h-91l-1 45c-44.667 -31.333 -91 -47 -139 -47c-32.667 0 -63 6.5 -91 19.5s-52.167 30.833 -72.5 53.5s-36.5 49.167 -48.5 79.5
s-18 62.5 -18 96.5v244h91l1 -256c1.33301 -20 5.83301 -38.333 13.5 -55s18 -31.334 31 -44.001s27.667 -22.5 44 -29.5s33.166 -10.5 50.499 -10.5c13.333 0 26.333 1 39 3zM376.003 570.001l-41 -52l-150 132l40 52z" />
    <glyph glyph-name="uacute" unicode="&#xfa;" horiz-adv-x="561" 
d="M320 99l0.00292969 2.00098c11.333 4 23.166 10.333 35.499 19s23.166 19 32.499 31s17 25.167 23 39.5s9 29.5 9 45.5v255h91v-491h-91l-1 45c-44.667 -31.333 -91 -47 -139 -47c-32.667 0 -63 6.5 -91 19.5s-52.167 30.833 -72.5 53.5s-36.5 49.167 -48.5 79.5
s-18 62.5 -18 96.5v244h91l1 -256c1.33301 -20 5.83301 -38.333 13.5 -55s18 -31.334 31 -44.001s27.667 -22.5 44 -29.5s33.166 -10.5 50.499 -10.5c13.333 0 26.333 1 39 3zM336.003 702.001l40 -52l-150 -132l-41 52z" />
    <glyph glyph-name="ucircumflex" unicode="&#xfb;" horiz-adv-x="561" 
d="M320 99l0.00292969 2.00098c11.333 4 23.166 10.333 35.499 19s23.166 19 32.499 31s17 25.167 23 39.5s9 29.5 9 45.5v255h91v-491h-91l-1 45c-44.667 -31.333 -91 -47 -139 -47c-32.667 0 -63 6.5 -91 19.5s-52.167 30.833 -72.5 53.5s-36.5 49.167 -48.5 79.5
s-18 62.5 -18 96.5v244h91l1 -256c1.33301 -20 5.83301 -38.333 13.5 -55s18 -31.334 31 -44.001s27.667 -22.5 44 -29.5s33.166 -10.5 50.499 -10.5c13.333 0 26.333 1 39 3zM285.003 700.001l151 -181h-87l-64 84l-75 -84h-85z" />
    <glyph glyph-name="udieresis" unicode="&#xfc;" horiz-adv-x="561" 
d="M320 99l0.00292969 2.00098c11.333 4 23.166 10.333 35.499 19s23.166 19 32.499 31s17 25.167 23 39.5s9 29.5 9 45.5v255h91v-491h-91l-1 45c-44.667 -31.333 -91 -47 -139 -47c-32.667 0 -63 6.5 -91 19.5s-52.167 30.833 -72.5 53.5s-36.5 49.167 -48.5 79.5
s-18 62.5 -18 96.5v244h91l1 -256c1.33301 -20 5.83301 -38.333 13.5 -55s18 -31.334 31 -44.001s27.667 -22.5 44 -29.5s33.166 -10.5 50.499 -10.5c13.333 0 26.333 1 39 3zM412.003 597.001v-78h-73v78h73zM222.003 597.001v-78h-72v78h72z" />
    <glyph glyph-name="yacute" unicode="&#xfd;" 
d="M234 -100l1.00195 -1.00195c7.33301 -1.33301 14.166 -2.83301 20.499 -4.5s13.5 -2.5 21.5 -2.5c18.667 0 36.5 3.66699 53.5 11s31.833 17.333 44.5 30s22.667 27.834 30 45.501s11 37.167 11 58.5v9c-28 -14.667 -51.5 -25.834 -70.5 -33.501s-40.5 -11.5 -64.5 -11.5
c-31.333 0 -61 6.33301 -89 19s-52.667 29.834 -74 51.501s-38 47.334 -50 77.001s-18 61.5 -18 95.5v64c0 21.333 0.166992 44.166 0.5 68.499s0.5 47.166 0.5 68.499v46h90l1 -262c0 -13.333 2.83301 -26.5 8.5 -39.5s13 -25.167 22 -36.5s19.333 -21.166 31 -29.499
s24.167 -14.5 37.5 -18.5c3.33301 -0.666992 7.16602 -1.16699 11.499 -1.5s8.16602 -1.5 11.499 -3.5h31c14 4.66699 26.5 8.33398 37.5 11.001s22.167 9.66699 33.5 21l13 12c13.333 16 22.5 31.667 27.5 47s9.16699 33.666 12.5 54.999v245h91v-490
c0 -1.33301 -1 -5.66602 -3 -12.999s-4.33301 -14.666 -7 -21.999l-4 -12c-7.33301 -24.667 -18.333 -46.834 -33 -66.501s-31.5 -36.5 -50.5 -50.5s-39.667 -24.667 -62 -32s-45.166 -11 -68.499 -11h-18c-4.66699 0 -10.5 0.666992 -17.5 2s-11.167 2 -12.5 2v102z
M335.002 701.998l40 -52l-150 -132l-41 52z" />
    <glyph glyph-name="thorn" unicode="&#xfe;" horiz-adv-x="380" 
d="M142 699v-206.999h3c8 2 15.333 3.66699 22 5s14.667 2 24 2c19.333 0 37.5 -3.83301 54.5 -11.5s31.833 -18.334 44.5 -32.001s22.5 -29.667 29.5 -48s10.5 -37.833 10.5 -58.5c0 -21.333 -3.5 -41 -10.5 -59s-16.833 -33.667 -29.5 -47s-27.5 -23.833 -44.5 -31.5
s-35.167 -11.5 -54.5 -11.5h-14c-4 0 -9.33301 1 -16 3s-13 3 -19 3v-206h-92v699h92zM144 349.001c0 -13.333 4.5 -24.833 13.5 -34.5s20.167 -14.5 33.5 -14.5c12.667 0 23.334 4.83301 32.001 14.5s13 21.167 13 34.5c0 14 -4.33301 25.833 -13 35.5
s-19.334 14.5 -32.001 14.5c-13.333 0 -24.5 -4.83301 -33.5 -14.5s-13.5 -21.5 -13.5 -35.5z" />
    <glyph glyph-name="ydieresis" unicode="&#xff;" 
d="M234 -100l1.00195 -1.00195c7.33301 -1.33301 14.166 -2.83301 20.499 -4.5s13.5 -2.5 21.5 -2.5c18.667 0 36.5 3.66699 53.5 11s31.833 17.333 44.5 30s22.667 27.834 30 45.501s11 37.167 11 58.5v9c-28 -14.667 -51.5 -25.834 -70.5 -33.501s-40.5 -11.5 -64.5 -11.5
c-31.333 0 -61 6.33301 -89 19s-52.667 29.834 -74 51.501s-38 47.334 -50 77.001s-18 61.5 -18 95.5v64c0 21.333 0.166992 44.166 0.5 68.499s0.5 47.166 0.5 68.499v46h90l1 -262c0 -13.333 2.83301 -26.5 8.5 -39.5s13 -25.167 22 -36.5s19.333 -21.166 31 -29.499
s24.167 -14.5 37.5 -18.5c3.33301 -0.666992 7.16602 -1.16699 11.499 -1.5s8.16602 -1.5 11.499 -3.5h31c14 4.66699 26.5 8.33398 37.5 11.001s22.167 9.66699 33.5 21l13 12c13.333 16 22.5 31.667 27.5 47s9.16699 33.666 12.5 54.999v245h91v-490
c0 -1.33301 -1 -5.66602 -3 -12.999s-4.33301 -14.666 -7 -21.999l-4 -12c-7.33301 -24.667 -18.333 -46.834 -33 -66.501s-31.5 -36.5 -50.5 -50.5s-39.667 -24.667 -62 -32s-45.166 -11 -68.499 -11h-18c-4.66699 0 -10.5 0.666992 -17.5 2s-11.167 2 -12.5 2v102z
M410.002 596.998v-78h-73v78h73zM221.002 596.998v-78h-72v78h72z" />
    <glyph glyph-name="Amacron" unicode="&#x100;" horiz-adv-x="620" 
d="M51 481c2 30.667 10.166 59.332 24.499 85.999s33.5 49.834 57.5 69.501s51.167 35 81.5 46s62.5 16.5 96.5 16.5c32 0 63.333 -6.16699 94 -18.5s58.334 -29 83.001 -50s44.5 -45.833 59.5 -74.5s22.5 -59 22.5 -91v-462h-101v392h-315v-396h-104zM310.999 598.998
c-34.667 0 -66.166 -9.66699 -94.499 -29s-46.833 -45 -55.5 -77h299c-8.66699 32 -26.834 57.667 -54.501 77s-59.167 29 -94.5 29zM455 794.998v-65h-290v65h290z" />
    <glyph glyph-name="amacron" unicode="&#x101;" horiz-adv-x="564" 
d="M420 47c-42.667 -32 -88.999 -48 -138.999 -48c-32.667 0 -63.167 6.5 -91.5 19.5s-52.666 30.667 -72.999 53s-36.5 48.666 -48.5 78.999s-18 62.833 -18 97.5s6 66.834 18 96.501s28.667 55.5 50 77.5s46.166 39.333 74.499 52s58.166 19 89.499 19
c50 0 96 -16 138 -48v46h94v-494h-94v50zM142.001 246c0 -20 3.83301 -39 11.5 -57s17.667 -33.833 30 -47.5s26.833 -24.334 43.5 -32.001s34.667 -11.5 54 -11.5c18.667 0 36.5 3.83301 53.5 11.5s31.667 18.334 44 32.001s22.333 29.5 30 47.5s11.5 37 11.5 57
s-3.83301 39.167 -11.5 57.5s-17.667 34.166 -30 47.499s-27 24 -44 32s-34.833 12 -53.5 12c-19.333 0 -37.333 -4 -54 -12s-31.167 -18.667 -43.5 -32s-22.333 -29.166 -30 -47.499s-11.5 -37.5 -11.5 -57.5zM414.001 585v-65h-290v65h290z" />
    <glyph glyph-name="Abreve" unicode="&#x102;" horiz-adv-x="620" 
d="M51 481c2 30.667 10.166 59.332 24.499 85.999s33.5 49.834 57.5 69.501s51.167 35 81.5 46s62.5 16.5 96.5 16.5c32 0 63.333 -6.16699 94 -18.5s58.334 -29 83.001 -50s44.5 -45.833 59.5 -74.5s22.5 -59 22.5 -91v-462h-101v392h-315v-396h-104zM310.999 598.998
c-34.667 0 -66.166 -9.66699 -94.499 -29s-46.833 -45 -55.5 -77h299c-8.66699 32 -26.834 57.667 -54.501 77s-59.167 29 -94.5 29zM309 715.998c-36 0.666992 -66.167 14.332 -90.5 40.999s-36.5 66 -36.5 118h45c0 -34 7.5 -57.833 22.5 -71.5s34.833 -20.5 59.5 -20.5
c24 0 43.833 6.33301 59.5 19s23.5 36.334 23.5 71.001l45 -1c0 -22.667 -3.33301 -43.5 -10 -62.5s-15.5 -35.5 -26.5 -49.5s-24.5 -24.833 -40.5 -32.5s-33 -11.5 -51 -11.5z" />
    <glyph glyph-name="abreve" unicode="&#x103;" horiz-adv-x="564" 
d="M420 47c-42.667 -32 -88.999 -48 -138.999 -48c-32.667 0 -63.167 6.5 -91.5 19.5s-52.666 30.667 -72.999 53s-36.5 48.666 -48.5 78.999s-18 62.833 -18 97.5s6 66.834 18 96.501s28.667 55.5 50 77.5s46.166 39.333 74.499 52s58.166 19 89.499 19
c50 0 96 -16 138 -48v46h94v-494h-94v50zM142.001 246c0 -20 3.83301 -39 11.5 -57s17.667 -33.833 30 -47.5s26.833 -24.334 43.5 -32.001s34.667 -11.5 54 -11.5c18.667 0 36.5 3.83301 53.5 11.5s31.667 18.334 44 32.001s22.333 29.5 30 47.5s11.5 37 11.5 57
s-3.83301 39.167 -11.5 57.5s-17.667 34.166 -30 47.499s-27 24 -44 32s-34.833 12 -53.5 12c-19.333 0 -37.333 -4 -54 -12s-31.167 -18.667 -43.5 -32s-22.333 -29.166 -30 -47.499s-11.5 -37.5 -11.5 -57.5zM280.001 505c-36 0.666992 -66 14.332 -90 40.999
s-36 66 -36 118h45c0 -34 7.5 -57.833 22.5 -71.5s34.5 -20.5 58.5 -20.5s44 6.33301 60 19s24 36.334 24 71.001l45 -1c0 -22.667 -3.33301 -43.5 -10 -62.5s-15.667 -35.5 -27 -49.5s-25 -24.833 -41 -32.5s-33 -11.5 -51 -11.5z" />
    <glyph glyph-name="Aogonek" unicode="&#x104;" horiz-adv-x="620" 
d="M51 481c2 30.667 10.165 59.332 24.498 85.999s33.5 49.834 57.5 69.501s51.167 35 81.5 46s62.5 16.5 96.5 16.5c32 0 63.333 -6.16699 94 -18.5s58.334 -29 83.001 -50s44.5 -45.833 59.5 -74.5s22.5 -59 22.5 -91v-462h-14v-25h9
c2.66699 0 4.33398 -0.333008 5.00098 -1v-39c-5.33301 2 -10.666 3 -15.999 3c-14.667 0 -27 -5.33301 -37 -16s-15 -24 -15 -40c0 -15.333 5 -28.333 15 -39s22.333 -16 37 -16c5.33301 0 10.666 1 15.999 3v-39c-2 0 -3.83301 -0.166992 -5.5 -0.5
s-3.16699 -0.5 -4.5 -0.5h-6c-24.667 0 -45.5 9 -62.5 27s-25.5 40 -25.5 66c0 19.333 4.83301 36.5 14.5 51.5s22.5 26.167 38.5 33.5v32h-50v392h-315v-396h-104zM310.998 598.998c-34.667 0 -66.166 -9.66699 -94.499 -29s-46.833 -45 -55.5 -77h299
c-8.66699 32 -26.834 57.667 -54.501 77s-59.167 29 -94.5 29z" />
    <glyph glyph-name="aogonek" unicode="&#x105;" horiz-adv-x="564" 
d="M420 47c-42.667 -32 -89.001 -48 -139.001 -48c-32.667 0 -63.167 6.5 -91.5 19.5s-52.666 30.667 -72.999 53s-36.5 48.666 -48.5 78.999s-18 62.833 -18 97.5s6 66.834 18 96.501s28.667 55.5 50 77.5s46.166 39.333 74.499 52s58.166 19 89.499 19
c50 0 96 -16 138 -48v46h94v-494h-15v-22h8c2.66699 0 4.33398 -0.333008 5.00098 -1l2 -38h-2c-3.33301 0.666992 -6.16602 1.16699 -8.49902 1.5s-4.83301 0.5 -7.5 0.5c-14 0 -26 -5.33301 -36 -16s-15 -24 -15 -40c0 -15.333 5 -28.333 15 -39s22 -16 36 -16
c6 0 11.333 1 16 3v-39c-1.33301 0 -2.83301 -0.166992 -4.5 -0.5s-3.5 -0.5 -5.5 -0.5h-6c-24 0 -44.5 9 -61.5 27s-25.5 40 -25.5 66c0 19.333 5 36.5 15 51.5s22.333 26.167 37 33.5v29h-41v50zM141.999 246c0 -20 3.83301 -39 11.5 -57s17.667 -33.833 30 -47.5
s26.833 -24.334 43.5 -32.001s34.667 -11.5 54 -11.5c18.667 0 36.5 3.83301 53.5 11.5s31.667 18.334 44 32.001s22.333 29.5 30 47.5s11.5 37 11.5 57s-3.83301 39.167 -11.5 57.5s-17.667 34.166 -30 47.499s-27 24 -44 32s-34.833 12 -53.5 12
c-19.333 0 -37.333 -4 -54 -12s-31.167 -18.667 -43.5 -32s-22.333 -29.166 -30 -47.499s-11.5 -37.5 -11.5 -57.5z" />
    <glyph glyph-name="Cacute" unicode="&#x106;" horiz-adv-x="564" 
d="M50 351c0 48.667 9.16797 94.167 27.501 136.5s43.166 79.333 74.499 111s68.166 56.667 110.499 75s87.833 27.5 136.5 27.5c21.333 0 53.333 -4.66699 96 -14c3.33301 0 7 -0.833008 11 -2.5s6.66699 -2.5 8 -2.5v-123c-33.333 16.667 -69 25 -107 25
c-31.333 0 -61.166 -6.16699 -89.499 -18.5s-53.166 -29 -74.499 -50s-38 -45.667 -50 -74s-18 -58.5 -18 -90.5c0 -33.333 6 -64.166 18 -92.499s28.667 -53 50 -74s46.166 -37.333 74.499 -49s59.166 -17.5 92.499 -17.5c38 0 72.667 8.33301 104 25v-123
c-1.33301 0 -4 -0.833008 -8 -2.5s-7.66699 -2.83398 -11 -3.50098c-22 -8.66699 -54.667 -13 -98 -13c-48 0 -93 9.16699 -135 27.5s-78.667 43.5 -110 75.5s-56.166 69.167 -74.499 111.5s-27.5 87.5 -27.5 135.5zM337.001 881l40 -52l-150 -132l-40 53z" />
    <glyph glyph-name="cacute" unicode="&#x107;" horiz-adv-x="376" 
d="M50 246c0 34 6 65.833 18 95.5s28.5 55.667 49.5 78s45.333 39.833 73 52.5s57.834 19 90.501 19h18c3.33301 0 7.83301 -0.5 13.5 -1.5s9.83398 -1.83301 12.501 -2.5l1 -102h-2c-8 2 -15.333 3.66699 -22 5s-13.667 2 -21 2c-19.333 0 -37.333 -3.83301 -54 -11.5
s-31.167 -18.167 -43.5 -31.5s-22.333 -29 -30 -47s-11.5 -37.333 -11.5 -58c0 -20 3.83301 -38.833 11.5 -56.5s17.667 -33 30 -46s26.833 -23.333 43.5 -31s34.667 -11.5 54 -11.5c7.33301 0 14.333 0.666992 21 2s14 3 22 5h2l-1 -102
c-2.66699 -0.666992 -6.83398 -1.5 -12.501 -2.5s-10.167 -1.5 -13.5 -1.5h-18c-32.667 -0 -62.834 6.33301 -90.501 19s-52 30 -73 52s-37.5 48 -49.5 78s-18 62.333 -18 97zM244 674l38 -52l-150 -132l-40 52z" />
    <glyph glyph-name="Ccircumflex" unicode="&#x108;" horiz-adv-x="564" 
d="M50 351c0 48.667 9.16797 94.167 27.501 136.5s43.166 79.333 74.499 111s68.166 56.667 110.499 75s87.833 27.5 136.5 27.5c21.333 0 53.333 -4.66699 96 -14c3.33301 0 7 -0.833008 11 -2.5s6.66699 -2.5 8 -2.5v-123c-33.333 16.667 -69 25 -107 25
c-31.333 0 -61.166 -6.16699 -89.499 -18.5s-53.166 -29 -74.499 -50s-38 -45.667 -50 -74s-18 -58.5 -18 -90.5c0 -33.333 6 -64.166 18 -92.499s28.667 -53 50 -74s46.166 -37.333 74.499 -49s59.166 -17.5 92.499 -17.5c38 0 72.667 8.33301 104 25v-123
c-1.33301 0 -4 -0.833008 -8 -2.5s-7.66699 -2.83398 -11 -3.50098c-22 -8.66699 -54.667 -13 -98 -13c-48 0 -93 9.16699 -135 27.5s-78.667 43.5 -110 75.5s-56.166 69.167 -74.499 111.5s-27.5 87.5 -27.5 135.5zM374.001 913l151 -181h-88l-63 84l-74 -84h-86z" />
    <glyph glyph-name="ccircumflex" unicode="&#x109;" horiz-adv-x="376" 
d="M50 246c0 34 6 65.833 18 95.5s28.5 55.667 49.5 78s45.333 39.833 73 52.5s57.834 19 90.501 19h18c3.33301 0 7.83301 -0.5 13.5 -1.5s9.83398 -1.83301 12.501 -2.5l1 -102h-2c-8 2 -15.333 3.66699 -22 5s-13.667 2 -21 2c-19.333 0 -37.333 -3.83301 -54 -11.5
s-31.167 -18.167 -43.5 -31.5s-22.333 -29 -30 -47s-11.5 -37.333 -11.5 -58c0 -20 3.83301 -38.833 11.5 -56.5s17.667 -33 30 -46s26.833 -23.333 43.5 -31s34.667 -11.5 54 -11.5c7.33301 0 14.333 0.666992 21 2s14 3 22 5h2l-1 -102
c-2.66699 -0.666992 -6.83398 -1.5 -12.501 -2.5s-10.167 -1.5 -13.5 -1.5h-18c-32.667 -0 -62.834 6.33301 -90.501 19s-52 30 -73 52s-37.5 48 -49.5 78s-18 62.333 -18 97zM220 700l151 -181h-87l-64 84l-74 -84h-86z" />
    <glyph glyph-name="Cdotaccent" unicode="&#x10a;" horiz-adv-x="564" 
d="M50 351c0 48.667 9.16797 94.167 27.501 136.5s43.166 79.333 74.499 111s68.166 56.667 110.499 75s87.833 27.5 136.5 27.5c21.333 0 53.333 -4.66699 96 -14c3.33301 0 7 -0.833008 11 -2.5s6.66699 -2.5 8 -2.5v-123c-33.333 16.667 -69 25 -107 25
c-31.333 0 -61.166 -6.16699 -89.499 -18.5s-53.166 -29 -74.499 -50s-38 -45.667 -50 -74s-18 -58.5 -18 -90.5c0 -33.333 6 -64.166 18 -92.499s28.667 -53 50 -74s46.166 -37.333 74.499 -49s59.166 -17.5 92.499 -17.5c38 0 72.667 8.33301 104 25v-123
c-1.33301 0 -4 -0.833008 -8 -2.5s-7.66699 -2.83398 -11 -3.50098c-22 -8.66699 -54.667 -13 -98 -13c-48 0 -93 9.16699 -135 27.5s-78.667 43.5 -110 75.5s-56.166 69.167 -74.499 111.5s-27.5 87.5 -27.5 135.5zM419.001 828v-98h-90v98h90z" />
    <glyph glyph-name="cdotaccent" unicode="&#x10b;" horiz-adv-x="376" 
d="M50 246c0 34 6 65.833 18 95.5s28.5 55.667 49.5 78s45.333 39.833 73 52.5s57.834 19 90.501 19h18c3.33301 0 7.83301 -0.5 13.5 -1.5s9.83398 -1.83301 12.501 -2.5l1 -102h-2c-8 2 -15.333 3.66699 -22 5s-13.667 2 -21 2c-19.333 0 -37.333 -3.83301 -54 -11.5
s-31.167 -18.167 -43.5 -31.5s-22.333 -29 -30 -47s-11.5 -37.333 -11.5 -58c0 -20 3.83301 -38.833 11.5 -56.5s17.667 -33 30 -46s26.833 -23.333 43.5 -31s34.667 -11.5 54 -11.5c7.33301 0 14.333 0.666992 21 2s14 3 22 5h2l-1 -102
c-2.66699 -0.666992 -6.83398 -1.5 -12.501 -2.5s-10.167 -1.5 -13.5 -1.5h-18c-32.667 -0 -62.834 6.33301 -90.501 19s-52 30 -73 52s-37.5 48 -49.5 78s-18 62.333 -18 97zM299 621v-98h-90v98h90z" />
    <glyph glyph-name="Ccaron" unicode="&#x10c;" horiz-adv-x="564" 
d="M50 351c0 48.667 9.16797 94.167 27.501 136.5s43.166 79.333 74.499 111s68.166 56.667 110.499 75s87.833 27.5 136.5 27.5c21.333 0 53.333 -4.66699 96 -14c3.33301 0 7 -0.833008 11 -2.5s6.66699 -2.5 8 -2.5v-123c-33.333 16.667 -69 25 -107 25
c-31.333 0 -61.166 -6.16699 -89.499 -18.5s-53.166 -29 -74.499 -50s-38 -45.667 -50 -74s-18 -58.5 -18 -90.5c0 -33.333 6 -64.166 18 -92.499s28.667 -53 50 -74s46.166 -37.333 74.499 -49s59.166 -17.5 92.499 -17.5c38 0 72.667 8.33301 104 25v-123
c-1.33301 0 -4 -0.833008 -8 -2.5s-7.66699 -2.83398 -11 -3.50098c-22 -8.66699 -54.667 -13 -98 -13c-48 0 -93 9.16699 -135 27.5s-78.667 43.5 -110 75.5s-56.166 69.167 -74.499 111.5s-27.5 87.5 -27.5 135.5zM281.001 901h64l64 -97l38 97h67l-104 -184v1z" />
    <glyph glyph-name="ccaron" unicode="&#x10d;" horiz-adv-x="391" 
d="M50 246c0 34 6 65.833 18 95.5s28.5 55.667 49.5 78s45.333 39.833 73 52.5s57.834 19 90.501 19h18c3.33301 0 7.83301 -0.5 13.5 -1.5s9.83398 -1.83301 12.501 -2.5l1 -102h-2c-8 2 -15.333 3.66699 -22 5s-13.667 2 -21 2c-19.333 0 -37.333 -3.83301 -54 -11.5
s-31.167 -18.167 -43.5 -31.5s-22.333 -29 -30 -47s-11.5 -37.333 -11.5 -58c0 -20 3.83301 -38.833 11.5 -56.5s17.667 -33 30 -46s26.833 -23.333 43.5 -31s34.667 -11.5 54 -11.5c7.33301 0 14.333 0.666992 21 2s14 3 22 5h2l-1 -102
c-2.66699 -0.666992 -6.83398 -1.5 -12.501 -2.5s-10.167 -1.5 -13.5 -1.5h-18c-32.667 -0 -62.834 6.33301 -90.501 19s-52 30 -73 52s-37.5 48 -49.5 78s-18 62.333 -18 97zM109 696h63l64 -96l39 96h66l-104 -183l-1 1z" />
    <glyph glyph-name="Dcaron" unicode="&#x10e;" horiz-adv-x="631" 
d="M50 -4l0.000976562 703.998h102v-27h5c32.667 12 66.667 18 102 18c44.667 0 86.667 -9 126 -27s73.5 -42.667 102.5 -74s51.833 -68.166 68.5 -110.499s25 -87.5 25 -135.5c0 -47.333 -8.16699 -92.166 -24.5 -134.499s-38.833 -79.333 -67.5 -111
s-62.334 -56.667 -101.001 -75s-80.667 -27.5 -126 -27.5c-42 0 -78.667 6.33301 -110 19v-19h-102zM251.001 111.998c30 0 58.1699 6 84.5029 18s49 28.5 68 49.5s34.167 45.667 45.5 74s17 58.5 17 90.5s-5.33301 62 -16 90s-25.834 52.5 -45.501 73.5
s-42.5 37.5 -68.5 49.5s-54 18 -84 18c-17.333 0 -45 -5.66699 -83 -17c-2.66699 0 -5.83398 -1.66699 -9.50098 -5s-6.16699 -5 -7.5 -5v-411c11.333 -6.66699 26.666 -12.5 45.999 -17.5s37 -7.5 53 -7.5zM142.004 889.998h64l64 -97l39 97h66l-104 -184l-1 1z" />
    <glyph glyph-name="dcaron" unicode="&#x10f;" horiz-adv-x="700" 
d="M417 48c-41.333 -32 -86.667 -48 -136 -48c-31.333 -0 -61 6.33301 -89 19s-52.5 30 -73.5 52s-37.667 48 -50 78s-18.5 62 -18.5 96c0 31.333 5.66699 61.833 17 91.5s27 56 47 79s43.667 41.333 71 55s57 20.5 89 20.5c28 0 53.333 -4 76 -12s45 -20.333 67 -37v257h93
v-698h-93v47zM416.999 245c0 20.667 -3.66699 39.999 -11 57.999s-17.333 33.5 -30 46.5s-27.5 23.167 -44.5 30.5s-34.5 11 -52.5 11c-19.333 0 -37.166 -3.83301 -53.499 -11.5s-30.5 -18.167 -42.5 -31.5s-21.5 -28.833 -28.5 -46.5s-10.5 -36.5 -10.5 -56.5
s3.5 -38.833 10.5 -56.5s16.5 -33 28.5 -46s26.167 -23.333 42.5 -31s34.166 -11.5 53.499 -11.5c18 0 35.5 3.66699 52.5 11s31.833 17.5 44.5 30.5s22.667 28.333 30 46s11 36.834 11 57.501zM649.999 702.999v-95.999c0 -32 -7.5 -56.167 -22.5 -72.5
s-32.833 -24.5 -53.5 -24.5h-12c-1.33301 0 -2 0.333008 -2 1l-1 35h1c2.66699 -0.666992 5 -1.33398 7 -2.00098s4.33301 -1 7 -1c12 0 22.5 4.83301 31.5 14.5s13.5 24.167 13.5 43.5v5h-60v97h91z" />
    <glyph glyph-name="Dcroat" unicode="&#x110;" horiz-adv-x="716" 
d="M135 -4l0.000976562 267.998h-85v65h85v371h102v-27h5c32.667 12 66.667 18 102 18c44.667 0 86.667 -9 126 -27s73.5 -42.667 102.5 -74s51.833 -68.166 68.5 -110.499s25 -87.5 25 -135.5c0 -47.333 -8.16699 -92.166 -24.5 -134.499s-38.833 -79.333 -67.5 -111
s-62.334 -56.667 -101.001 -75s-80.667 -27.5 -126 -27.5c-42 0 -78.667 6.33301 -110 19v-19h-102zM339.001 328.998l0.00292969 -65h-102v-127c11.333 -6.66699 26.666 -12.5 45.999 -17.5s37 -7.5 53 -7.5c30 0 58.167 6 84.5 18s49 28.5 68 49.5s34.167 45.667 45.5 74
s17 58.5 17 90.5s-5.33301 62 -16 90s-25.834 52.5 -45.501 73.5s-42.5 37.5 -68.5 49.5s-54 18 -84 18c-17.333 0 -45 -5.66699 -83 -17c-2.66699 0 -5.83398 -1.66699 -9.50098 -5s-6.16699 -5 -7.5 -5v-219h102z" />
    <glyph glyph-name="dcroat" unicode="&#x111;" horiz-adv-x="612" 
d="M562 623l-0.000976562 -59h-52v-563h-93v47c-41.333 -32 -86.666 -48 -135.999 -48c-31.333 -0 -61 6.33301 -89 19s-52.5 30 -73.5 52s-37.667 48 -50 78s-18.5 62 -18.5 96c0 31.333 5.66699 61.833 17 91.5s27 56 47 79s43.667 41.333 71 55s57 20.5 89 20.5
c28 0 53.333 -4 76 -12s45 -20.333 67 -37v122h-135v59h135v76h93v-76h52zM416.999 245c0 20.667 -3.66699 39.999 -11 57.999s-17.333 33.5 -30 46.5s-27.5 23.167 -44.5 30.5s-34.5 11 -52.5 11c-19.333 0 -37.166 -3.83301 -53.499 -11.5s-30.5 -18.167 -42.5 -31.5
s-21.5 -28.833 -28.5 -46.5s-10.5 -36.5 -10.5 -56.5s3.5 -38.833 10.5 -56.5s16.5 -33 28.5 -46s26.167 -23.333 42.5 -31s34.166 -11.5 53.499 -11.5c18 0 35.5 3.66699 52.5 11s31.833 17.5 44.5 30.5s22.667 28.333 30 46s11 36.834 11 57.501z" />
    <glyph glyph-name="Emacron" unicode="&#x112;" horiz-adv-x="567" 
d="M50 349c0 48 9.16211 93.333 27.4951 136s43.5 79.834 75.5 111.501s69.333 56.667 112 75s88 27.5 136 27.5c17.333 0 34.833 -1.33301 52.5 -4s34.834 -6.33398 51.501 -11.001h1c0.666992 -1.33301 2.33398 -2.33301 5.00098 -3s4.33398 -1 5.00098 -1l1 -122
c-17.333 8 -35 14.333 -53 19s-36.333 7 -55 7c-42 0 -82 -8 -120 -24s-66.333 -40.333 -85 -73h191v-106h-226c-1.33301 -6 -2.16602 -12 -2.49902 -18s-0.5 -11.667 -0.5 -17c0 -32 7.33301 -62 22 -90s33.5 -52.333 56.5 -73s48.833 -37 77.5 -49s57.667 -18 87 -18
c17.333 0 35.5 1.83301 54.5 5.5s36.833 10.167 53.5 19.5v-121c0 -2 -4.5 -4.16699 -13.5 -6.5s-19.833 -4.5 -32.5 -6.5s-25.667 -3.66699 -39 -5s-23.666 -2 -30.999 -2c-48 0 -93.333 9.16699 -136 27.5s-80 43.333 -112 75s-57.167 68.667 -75.5 111
s-27.5 87.5 -27.5 135.5zM511.995 792v-65h-290v65h290z" />
    <glyph glyph-name="emacron" unicode="&#x113;" 
d="M50 248c0 34 6.00098 65.833 18.001 95.5s28.5 55.334 49.5 77.001s45.667 38.834 74 51.501s58.166 19 89.499 19c32 0 61.833 -6.5 89.5 -19.5s51.834 -30.5 72.501 -52.5s37 -47.833 49 -77.5s18 -61.5 18 -95.5v-18c0 -4.66699 -0.666992 -11.334 -2 -20.001
s-2.33301 -13 -3 -13h-355c3.33301 -14 9.5 -27 18.5 -39s19.667 -22.167 32 -30.5s25.333 -14.833 39 -19.5s27.167 -7 40.5 -7c6 0 14 0.5 24 1.5s16 2.83301 18 5.5h3v-102c-2 -0.666992 -6.83301 -1.33398 -14.5 -2.00098s-13.834 -1 -18.501 -1h-13
c-32.667 0 -63 6.5 -91 19.5s-52.167 30.667 -72.5 53s-36.333 48.5 -48 78.5s-17.5 62 -17.5 96zM280.001 393c-28.667 0 -55.5 -9.16699 -80.5 -27.5s-41.5 -42.5 -49.5 -72.5h260c-8.66699 30 -25.5 54.167 -50.5 72.5s-51.5 27.5 -79.5 27.5zM425.001 585v-65h-290v65
h290z" />
    <glyph glyph-name="Edotaccent" unicode="&#x116;" horiz-adv-x="567" 
d="M50 349c0 48 9.16211 93.333 27.4951 136s43.5 79.834 75.5 111.501s69.333 56.667 112 75s88 27.5 136 27.5c17.333 0 34.833 -1.33301 52.5 -4s34.834 -6.33398 51.501 -11.001h1c0.666992 -1.33301 2.33398 -2.33301 5.00098 -3s4.33398 -1 5.00098 -1l1 -122
c-17.333 8 -35 14.333 -53 19s-36.333 7 -55 7c-42 0 -82 -8 -120 -24s-66.333 -40.333 -85 -73h191v-106h-226c-1.33301 -6 -2.16602 -12 -2.49902 -18s-0.5 -11.667 -0.5 -17c0 -32 7.33301 -62 22 -90s33.5 -52.333 56.5 -73s48.833 -37 77.5 -49s57.667 -18 87 -18
c17.333 0 35.5 1.83301 54.5 5.5s36.833 10.167 53.5 19.5v-121c0 -2 -4.5 -4.16699 -13.5 -6.5s-19.833 -4.5 -32.5 -6.5s-25.667 -3.66699 -39 -5s-23.666 -2 -30.999 -2c-48 0 -93.333 9.16699 -136 27.5s-80 43.333 -112 75s-57.167 68.667 -75.5 111
s-27.5 87.5 -27.5 135.5zM423.995 827v-98h-92v98h92z" />
    <glyph glyph-name="edotaccent" unicode="&#x117;" 
d="M50 248c0 34 6.00098 65.833 18.001 95.5s28.5 55.334 49.5 77.001s45.667 38.834 74 51.501s58.166 19 89.499 19c32 0 61.833 -6.5 89.5 -19.5s51.834 -30.5 72.501 -52.5s37 -47.833 49 -77.5s18 -61.5 18 -95.5v-18c0 -4.66699 -0.666992 -11.334 -2 -20.001
s-2.33301 -13 -3 -13h-355c3.33301 -14 9.5 -27 18.5 -39s19.667 -22.167 32 -30.5s25.333 -14.833 39 -19.5s27.167 -7 40.5 -7c6 0 14 0.5 24 1.5s16 2.83301 18 5.5h3v-102c-2 -0.666992 -6.83301 -1.33398 -14.5 -2.00098s-13.834 -1 -18.501 -1h-13
c-32.667 0 -63 6.5 -91 19.5s-52.167 30.667 -72.5 53s-36.333 48.5 -48 78.5s-17.5 62 -17.5 96zM280.001 393c-28.667 0 -55.5 -9.16699 -80.5 -27.5s-41.5 -42.5 -49.5 -72.5h260c-8.66699 30 -25.5 54.167 -50.5 72.5s-51.5 27.5 -79.5 27.5zM325.001 617v-98h-91v98h91
z" />
    <glyph glyph-name="Eogonek" unicode="&#x118;" horiz-adv-x="570" 
d="M50 349c0 48 9.16309 93.333 27.4961 136s43.5 79.834 75.5 111.501s69.333 56.667 112 75s88 27.5 136 27.5c17.333 0 34.833 -1.33301 52.5 -4s34.834 -6.33398 51.501 -11.001h1c0.666992 -1.33301 2.33398 -2.33301 5.00098 -3s4.33398 -1 5.00098 -1l1 -122
c-17.333 8 -35 14.333 -53 19s-36.333 7 -55 7c-42 0 -82 -8 -120 -24s-66.333 -40.333 -85 -73h191v-106h-226c-1.33301 -6 -2.16602 -12 -2.49902 -18s-0.5 -11.667 -0.5 -17c0 -32 7.33301 -62 22 -90s33.5 -52.333 56.5 -73s48.833 -37 77.5 -49s57.667 -18 87 -18
c17.333 0 35.5 1.83301 54.5 5.5s36.833 10.167 53.5 19.5v-121c0 -2.66699 -3.66699 -5 -11 -7v-18h4c0.666992 0 2 -0.166992 4 -0.5s3.66699 -0.5 5 -0.5l1 -39h-1c-5.33301 2 -11 3 -17 3c-14 0 -26 -5.5 -36 -16.5s-15 -24.167 -15 -39.5s5 -28.333 15 -39
s22 -16 36 -16c2.66699 0 5.33398 0.166992 8.00098 0.5s5.66699 0.833008 9 1.5v-38c-1.33301 0 -3 -0.166992 -5 -0.5s-3.33301 -0.5 -4 -0.5h-8c-24 0 -44.333 9 -61 27s-25 40 -25 66c0 19.333 4.83301 36.333 14.5 51s22.5 25.667 38.5 33v19
c-12.667 -2 -25.334 -3.5 -38.001 -4.5s-22.667 -1.5 -30 -1.5c-48 0 -93.333 9.16699 -136 27.5s-80 43.333 -112 75s-57.167 68.667 -75.5 111s-27.5 87.5 -27.5 135.5z" />
    <glyph glyph-name="eogonek" unicode="&#x119;" 
d="M50 248c0 34 6.00195 65.832 18.002 95.499s28.5 55.334 49.5 77.001s45.667 38.834 74 51.501s58.166 19 89.499 19c32 0 61.833 -6.5 89.5 -19.5s51.834 -30.5 72.501 -52.5s37 -47.833 49 -77.5s18 -61.5 18 -95.5v-18c0 -4.66699 -0.666992 -11.334 -2 -20.001
s-2.33301 -13 -3 -13h-355c3.33301 -14 9.5 -27 18.5 -39s19.667 -22.167 32 -30.5s25.333 -14.833 39 -19.5s27.167 -7 40.5 -7c6 0 14 0.5 24 1.5s16 2.83301 18 5.5h3v-125h4c0.666992 0 2 -0.166992 4 -0.5s3.33301 -0.5 4 -0.5l2 -39h-2c-4.66699 2 -9.66699 3 -15 3
c-14.667 0 -27 -5.5 -37 -16.5s-15 -24.167 -15 -39.5s5 -28.333 15 -39s22.333 -16 37 -16c1.33301 0 3.16602 0.166992 5.49902 0.5s5.5 0.833008 9.5 1.5v-38c-0.666992 0 -2 -0.166992 -4 -0.5s-3.33301 -0.5 -4 -0.5h-7c-24.667 0 -45.334 9 -62.001 27s-25 40 -25 66
c0 18.667 4.83301 35.5 14.5 50.5s22.167 26.167 37.5 33.5v28h-8c-32.667 0 -63 6.5 -91 19.5s-52.167 30.667 -72.5 53s-36.333 48.5 -48 78.5s-17.5 62 -17.5 96zM280.002 392.999c-28.667 0 -55.5 -9.16699 -80.5 -27.5s-41.5 -42.5 -49.5 -72.5h260
c-8.66699 30 -25.5 54.167 -50.5 72.5s-51.5 27.5 -79.5 27.5z" />
    <glyph glyph-name="Ecaron" unicode="&#x11a;" horiz-adv-x="567" 
d="M50 349c0 48 9.16211 93.333 27.4951 136s43.5 79.834 75.5 111.501s69.333 56.667 112 75s88 27.5 136 27.5c17.333 0 34.833 -1.33301 52.5 -4s34.834 -6.33398 51.501 -11.001h1c0.666992 -1.33301 2.33398 -2.33301 5.00098 -3s4.33398 -1 5.00098 -1l1 -122
c-17.333 8 -35 14.333 -53 19s-36.333 7 -55 7c-42 0 -82 -8 -120 -24s-66.333 -40.333 -85 -73h191v-106h-226c-1.33301 -6 -2.16602 -12 -2.49902 -18s-0.5 -11.667 -0.5 -17c0 -32 7.33301 -62 22 -90s33.5 -52.333 56.5 -73s48.833 -37 77.5 -49s57.667 -18 87 -18
c17.333 0 35.5 1.83301 54.5 5.5s36.833 10.167 53.5 19.5v-121c0 -2 -4.5 -4.16699 -13.5 -6.5s-19.833 -4.5 -32.5 -6.5s-25.667 -3.66699 -39 -5s-23.666 -2 -30.999 -2c-48 0 -93.333 9.16699 -136 27.5s-80 43.333 -112 75s-57.167 68.667 -75.5 111
s-27.5 87.5 -27.5 135.5zM280.995 904h64l62 -97l39 97h66l-102 -184l-1 1z" />
    <glyph glyph-name="ecaron" unicode="&#x11b;" 
d="M50 248c0 34 6.00098 65.833 18.001 95.5s28.5 55.334 49.5 77.001s45.667 38.834 74 51.501s58.166 19 89.499 19c32 0 61.833 -6.5 89.5 -19.5s51.834 -30.5 72.501 -52.5s37 -47.833 49 -77.5s18 -61.5 18 -95.5v-18c0 -4.66699 -0.666992 -11.334 -2 -20.001
s-2.33301 -13 -3 -13h-355c3.33301 -14 9.5 -27 18.5 -39s19.667 -22.167 32 -30.5s25.333 -14.833 39 -19.5s27.167 -7 40.5 -7c6 0 14 0.5 24 1.5s16 2.83301 18 5.5h3v-102c-2 -0.666992 -6.83301 -1.33398 -14.5 -2.00098s-13.834 -1 -18.501 -1h-13
c-32.667 0 -63 6.5 -91 19.5s-52.167 30.667 -72.5 53s-36.333 48.5 -48 78.5s-17.5 62 -17.5 96zM280.001 393c-28.667 0 -55.5 -9.16699 -80.5 -27.5s-41.5 -42.5 -49.5 -72.5h260c-8.66699 30 -25.5 54.167 -50.5 72.5s-51.5 27.5 -79.5 27.5zM164.001 702h65l62 -97
l39 97h66l-104 -183z" />
    <glyph glyph-name="Gcircumflex" unicode="&#x11c;" horiz-adv-x="630" 
d="M475 20c-18.667 -6 -36.499 -10.6699 -53.499 -14.0029s-35.167 -5 -54.5 -5c-43.333 0 -84.166 9.16699 -122.499 27.5s-71.833 43.333 -100.5 75s-51.5 68.834 -68.5 111.501s-25.5 88 -25.5 136c0 18.667 1.16699 36.334 3.5 53.001s5.83301 33.667 10.5 51v1
c20 62.667 49.667 114.5 89 155.5s89 68.833 149 83.5l18 3c7.33301 2.66699 16.333 4 27 4h20c18 0 34.5 -1.33301 49.5 -4s30.167 -6.33398 45.5 -11.001h2c0.666992 0 2.16699 -0.5 4.5 -1.5s3.5 -1.83301 3.5 -2.5l2 -123c-16 8.66699 -32.167 15.334 -48.5 20.001
s-32.5 7 -48.5 7c-30 0 -57.833 -6.16699 -83.5 -18.5s-48.167 -29.166 -67.5 -50.499s-34.333 -46.333 -45 -75s-16 -59.334 -16 -92.001c0 -32 5.33301 -62.167 16 -90.5s25.667 -53 45 -74s41.666 -37.667 66.999 -50s52.666 -18.5 81.999 -18.5
c8 0 17.667 0.833008 29 2.5s22 3.66699 32 6s18.5 4.83301 25.5 7.5s10.5 5.33398 10.5 8.00098v236h-105v109h213v-487h-105v20zM380.001 917.997l151 -181h-87l-64 84l-74 -84h-86z" />
    <glyph glyph-name="gcircumflex" unicode="&#x11d;" 
d="M84 119c-9.33301 17.333 -17.333 36.3311 -24 56.998s-10 44 -10 70c0 36 6.5 69.333 19.5 100s31.167 57.334 54.5 80.001v1c20 20.667 43.333 36.667 70 48s55.667 17 87 17c48.667 0 94 -16 136 -48l2 48h91v-505c-2 -32 -9.16699 -60.167 -21.5 -84.5
s-28.5 -44.5 -48.5 -60.5s-42.667 -28.167 -68 -36.5s-52 -12.5 -80 -12.5h-30c-1.33301 0 -3.33301 0.166992 -6 0.5s-6 0.833008 -10 1.5l-11 3v102c24 -5.33301 38.667 -8 44 -8c20 0 38.5 4 55.5 12s31.667 18.833 44 32.5s22.166 29.834 29.499 48.501s11 38.667 11 60
c0 2 -0.666992 3.33301 -2 4c-42 -32 -88 -48 -138 -48c-38 0 -73.667 9 -107 27s-60.666 45 -81.999 81zM155 180.998l9.99805 -18.001c13.333 -20 30.166 -35.667 50.499 -47s41.833 -17 64.5 -17c16.667 0 32.834 3.33301 48.501 10s30 15.834 43 27.501
s23.667 25.5 32 41.5s13.5 33.333 15.5 52v17c0 20.667 -3.66699 40 -11 58s-17.166 33.667 -29.499 47s-27 23.833 -44 31.5s-35.167 11.5 -54.5 11.5s-37.333 -3.83301 -54 -11.5s-31.167 -18.167 -43.5 -31.5s-22.166 -29 -29.499 -47s-11 -37 -11 -57
c0 -28.667 4.33301 -51 13 -67zM283.998 699.997l151 -181h-88l-63 84l-74 -84h-86z" />
    <glyph glyph-name="Gbreve" unicode="&#x11e;" horiz-adv-x="630" 
d="M475 20c-18.667 -6 -36.498 -10.6699 -53.498 -14.0029s-35.167 -5 -54.5 -5c-43.333 0 -84.166 9.16699 -122.499 27.5s-71.833 43.333 -100.5 75s-51.5 68.834 -68.5 111.501s-25.5 88 -25.5 136c0 18.667 1.16699 36.334 3.5 53.001s5.83301 33.667 10.5 51v1
c20 62.667 49.667 114.5 89 155.5s89 68.833 149 83.5h2c8.66699 0 16.167 1.16699 22.5 3.5s13.166 3.5 20.499 3.5h20c18 0 34.5 -1.33301 49.5 -4s30.167 -6.33398 45.5 -11.001h2c0.666992 0 2.16699 -0.5 4.5 -1.5s3.5 -1.83301 3.5 -2.5l2 -123
c-16 8.66699 -32.167 15.334 -48.5 20.001s-32.5 7 -48.5 7c-30 0 -57.833 -6.16699 -83.5 -18.5s-48.167 -29.166 -67.5 -50.499s-34.333 -46.333 -45 -75s-16 -59.334 -16 -92.001c0 -32 5.33301 -62.167 16 -90.5s25.667 -53 45 -74s41.666 -37.667 66.999 -50
s52.666 -18.5 81.999 -18.5c8 0 17.667 0.833008 29 2.5s22 3.66699 32 6s18.5 4.83301 25.5 7.5s10.5 5.33398 10.5 8.00098v236h-105v109h213v-487h-105v20zM314.002 714.997c-36 0 -66.167 13.499 -90.5 40.499s-36.5 66.5 -36.5 118.5h45
c0 -34 7.83301 -57.833 23.5 -71.5s35.167 -20.5 58.5 -20.5c24 0 43.833 6.33301 59.5 19s23.5 36.334 23.5 71.001l45 -1c0 -22.667 -3.33301 -43.5 -10 -62.5s-15.5 -35.5 -26.5 -49.5s-24.5 -24.833 -40.5 -32.5s-33 -11.5 -51 -11.5z" />
    <glyph glyph-name="gbreve" unicode="&#x11f;" 
d="M50 246c0 36 6.50098 69.3311 19.501 99.998s31.167 57.334 54.5 80.001v1c20 20.667 43.333 36.667 70 48s55.667 17 87 17c48.667 0 94 -16 136 -48l2 48h91v-505c-2 -32 -9.16699 -60.167 -21.5 -84.5s-28.5 -44.5 -48.5 -60.5s-42.667 -28.167 -68 -36.5
s-52 -12.5 -80 -12.5h-30c-1.33301 0 -3.33301 0.166992 -6 0.5s-6 0.833008 -10 1.5l-11 3v102c24 -5.33301 38.667 -8 44 -8c20 0 38.5 4 55.5 12s31.667 18.833 44 32.5s22.166 29.834 29.499 48.501s11 38.667 11 60c0 2 -0.666992 3.33301 -2 4
c-42 -32 -88 -48 -138 -48c-26 0 -52.5 5.16699 -79.5 15.5s-51.667 25.666 -74 45.999s-40.5 45.833 -54.5 76.5s-21 66.334 -21 107.001zM155.001 180.998l9.99805 -18.001c13.333 -20 30.166 -35.667 50.499 -47s41.833 -17 64.5 -17c16.667 0 32.834 3.33301 48.501 10
s30 15.834 43 27.501s23.667 25.5 32 41.5s13.5 33.333 15.5 52v17c0 20.667 -3.66699 40 -11 58s-17.166 33.667 -29.499 47s-27 23.833 -44 31.5s-35.167 11.5 -54.5 11.5s-37.333 -3.83301 -54 -11.5s-31.167 -18.167 -43.5 -31.5s-22.166 -29 -29.499 -47
s-11 -37 -11 -57c0 -28.667 4.33301 -51 13 -67zM279.999 504.997c-36 0.666992 -66 14.332 -90 40.999s-36 66 -36 118h43c0 -34 7.83301 -57.833 23.5 -71.5s35.5 -20.5 59.5 -20.5s44 6.33301 60 19s24 36.334 24 71.001l43 -1c0 -22.667 -3 -43.5 -9 -62.5
s-14.667 -35.5 -26 -49.5s-25 -24.833 -41 -32.5s-33 -11.5 -51 -11.5z" />
    <glyph glyph-name="Gdotaccent" unicode="&#x120;" horiz-adv-x="630" 
d="M475 20c-18.667 -6 -36.499 -10.6699 -53.499 -14.0029s-35.167 -5 -54.5 -5c-43.333 0 -84.166 9.16699 -122.499 27.5s-71.833 43.333 -100.5 75s-51.5 68.834 -68.5 111.501s-25.5 88 -25.5 136c0 18.667 1.16699 36.334 3.5 53.001s5.83301 33.667 10.5 51v1
c20 62.667 49.667 114.5 89 155.5s89 68.833 149 83.5l18 3c7.33301 2.66699 16.333 4 27 4h20c18 0 34.5 -1.33301 49.5 -4s30.167 -6.33398 45.5 -11.001h2c0.666992 0 2.16699 -0.5 4.5 -1.5s3.5 -1.83301 3.5 -2.5l2 -123c-16 8.66699 -32.167 15.334 -48.5 20.001
s-32.5 7 -48.5 7c-30 0 -57.833 -6.16699 -83.5 -18.5s-48.167 -29.166 -67.5 -50.499s-34.333 -46.333 -45 -75s-16 -59.334 -16 -92.001c0 -32 5.33301 -62.167 16 -90.5s25.667 -53 45 -74s41.666 -37.667 66.999 -50s52.666 -18.5 81.999 -18.5
c8 0 17.667 0.833008 29 2.5s22 3.66699 32 6s18.5 4.83301 25.5 7.5s10.5 5.33398 10.5 8.00098v236h-105v109h213v-487h-105v20zM415.001 827.997v-98h-90v98h90z" />
    <glyph glyph-name="gdotaccent" unicode="&#x121;" 
d="M84 119c-9.33301 17.333 -17.333 36.3311 -24 56.998s-10 44 -10 70c0 36 6.5 69.333 19.5 100s31.167 57.334 54.5 80.001v1c20 20.667 43.333 36.667 70 48s55.667 17 87 17c48.667 0 94 -16 136 -48l2 48h91v-505c-2 -32 -9.16699 -60.167 -21.5 -84.5
s-28.5 -44.5 -48.5 -60.5s-42.667 -28.167 -68 -36.5s-52 -12.5 -80 -12.5h-30c-1.33301 0 -3.33301 0.166992 -6 0.5s-6 0.833008 -10 1.5l-11 3v102c24 -5.33301 38.667 -8 44 -8c20 0 38.5 4 55.5 12s31.667 18.833 44 32.5s22.166 29.834 29.499 48.501s11 38.667 11 60
c0 2 -0.666992 3.33301 -2 4c-42 -32 -88 -48 -138 -48c-38 0 -73.667 9 -107 27s-60.666 45 -81.999 81zM155 180.998l9.99805 -18.001c13.333 -20 30.166 -35.667 50.499 -47s41.833 -17 64.5 -17c16.667 0 32.834 3.33301 48.501 10s30 15.834 43 27.501
s23.667 25.5 32 41.5s13.5 33.333 15.5 52v17c0 20.667 -3.66699 40 -11 58s-17.166 33.667 -29.499 47s-27 23.833 -44 31.5s-35.167 11.5 -54.5 11.5s-37.333 -3.83301 -54 -11.5s-31.167 -18.167 -43.5 -31.5s-22.166 -29 -29.499 -47s-11 -37 -11 -57
c0 -28.667 4.33301 -51 13 -67zM324.998 616.997v-98h-90v98h90z" />
    <glyph glyph-name="uni0122" unicode="&#x122;" horiz-adv-x="630" 
d="M475 20c-18.667 -6 -36.498 -10.6699 -53.498 -14.0029s-35.167 -5 -54.5 -5c-43.333 0 -84.166 9.16699 -122.499 27.5s-71.833 43.333 -100.5 75s-51.5 68.834 -68.5 111.501s-25.5 88 -25.5 136c0 18.667 1.16699 36.334 3.5 53.001s5.83301 33.667 10.5 51v1
c20 62.667 49.667 114.5 89 155.5s89 68.833 149 83.5h2c8.66699 0 16.167 1.16699 22.5 3.5s13.166 3.5 20.499 3.5h20c18 0 34.5 -1.33301 49.5 -4s30.167 -6.33398 45.5 -11.001h2c0.666992 0 2.16699 -0.5 4.5 -1.5s3.5 -1.83301 3.5 -2.5l2 -123
c-16 8.66699 -32.167 15.334 -48.5 20.001s-32.5 7 -48.5 7c-30 0 -57.833 -6.16699 -83.5 -18.5s-48.167 -29.166 -67.5 -50.499s-34.333 -46.333 -45 -75s-16 -59.334 -16 -92.001c0 -32 5.33301 -62.167 16 -90.5s25.667 -53 45 -74s41.666 -37.667 66.999 -50
s52.666 -18.5 81.999 -18.5c8 0 17.667 0.833008 29 2.5s22 3.66699 32 6s18.5 4.83301 25.5 7.5s10.5 5.33398 10.5 8.00098v236h-105v109h213v-487h-105v20zM477.002 -34.0029l-2.00098 -103c-0.666992 -30 -8 -52.5 -22 -67.5s-31.333 -22.5 -52 -22.5h-11
c-2 0 -3.33301 0.333008 -4 1v35c5.33301 -2 10.333 -3 15 -3c12.667 0 23.334 4.83301 32.001 14.5s13 24.167 13 43.5v5h-60v97h91z" />
    <glyph glyph-name="uni0123" unicode="&#x123;" 
d="M105 87c-12 14.667 -24.166 35.832 -36.499 63.499s-18.5 59.5 -18.5 95.5s6.5 69.333 19.5 100s31.167 57.334 54.5 80.001v1c20 20.667 43.333 36.667 70 48s55.667 17 87 17c48.667 0 94 -16 136 -48l2 48h91v-505c-2 -32 -9.16699 -60.167 -21.5 -84.5
s-28.5 -44.5 -48.5 -60.5s-42.667 -28.167 -68 -36.5s-52 -12.5 -80 -12.5h-30c-1.33301 0 -3.33301 0.166992 -6 0.5s-6 0.833008 -10 1.5l-11 3v102c24 -5.33301 38.667 -8 44 -8c20 0 38.5 4 55.5 12s31.667 18.833 44 32.5s22.166 29.834 29.499 48.501s11 38.667 11 60
c0 2 -0.666992 3.33301 -2 4c-42 -32 -88 -48 -138 -48c-29.333 0 -58 5.66699 -86 17s-52.667 28.666 -74 51.999zM155.001 180.998l9.99805 -18.001c13.333 -20 30.166 -35.667 50.499 -47s41.833 -17 64.5 -17c16.667 0 32.834 3.33301 48.501 10s30 15.834 43 27.501
s23.667 25.5 32 41.5s13.5 33.333 15.5 52v17c0 20.667 -3.66699 40 -11 58s-17.166 33.667 -29.499 47s-27 23.833 -44 31.5s-35.167 11.5 -54.5 11.5s-37.333 -3.83301 -54 -11.5s-31.167 -18.167 -43.5 -31.5s-22.166 -29 -29.499 -47s-11 -37 -11 -57
c0 -28.667 4.33301 -51 13 -67zM235.999 514.997v97c0 32 7.5 56.167 22.5 72.5s33.5 24.5 55.5 24.5h5c0.666992 -0.666992 1.66699 -1 3 -1h7v-35l-12 1c-0.666992 0.666992 -1.66699 1 -3 1c-12.667 0 -23.667 -4.83301 -33 -14.5s-14 -24.167 -14 -43.5v-5h62v-97h-93z
" />
    <glyph glyph-name="Hcircumflex" unicode="&#x124;" horiz-adv-x="622" 
d="M154 699v-208h315v208h103v-698h-103v392h-315v-392h-104v698h104zM315 911l151 -181h-87l-64 84l-74 -84h-86z" />
    <glyph glyph-name="hcircumflex" unicode="&#x125;" 
d="M284 700l150.999 -180.998h-88l-63 84l-74 -84h-69v-79c40.667 32 87.334 48 140.001 48c28.667 0 56.5 -6 83.5 -18s51.333 -28.5 73 -49.5s39.167 -45.833 52.5 -74.5s20 -59.334 20 -92.001v-254h-91l-3 261c0 20 -4.33301 38 -13 54s-19.667 29.667 -33 41
s-28 20 -44 26s-31.333 9 -46 9c-20 0 -38.333 -3.83301 -55 -11.5s-31 -18.167 -43 -31.5s-21.667 -28.833 -29 -46.5s-11.333 -36.834 -12 -57.501v-245h-91v697h91v-157z" />
    <glyph glyph-name="Hbar" unicode="&#x126;" horiz-adv-x="622" 
d="M154 699v-208h315v208h103v-698h-103v392h-315v-392h-104v698h104zM457 635v-65h-288v65h288z" />
    <glyph glyph-name="hbar" unicode="&#x127;" horiz-adv-x="606" 
d="M339 598v-64.998h-152v-93c41.333 32 88 48 140 48c28.667 0 56.5 -6 83.5 -18s51.333 -28.5 73 -49.5s39.167 -45.833 52.5 -74.5s20 -59.334 20 -92.001v-254h-91l-3 261c0 20 -4.33301 38 -13 54s-19.667 29.667 -33 41s-27.833 20 -43.5 26s-31.167 9 -46.5 9
c-20 0 -38.333 -3.83301 -55 -11.5s-31 -18.167 -43 -31.5s-21.5 -28.833 -28.5 -46.5s-11.167 -36.834 -12.5 -57.501v-245h-91v534h-46v65h46v98h91v-98h152z" />
    <glyph glyph-name="imacron" unicode="&#x12b;" horiz-adv-x="390" 
d="M240 491v-490h-91v490h91zM340 585v-65h-290v65h290z" />
    <glyph glyph-name="Iogonek" unicode="&#x12e;" horiz-adv-x="205" 
d="M155 696v-696h-15v-25h9c3.33301 0 5.33301 -0.333008 6 -1v-38c-3.33301 0.666992 -6.33301 1.16699 -9 1.5s-5.66699 0.5 -9 0.5c-14 0 -26 -5.33301 -36 -16s-15 -24 -15 -40c0 -15.333 5 -28.333 15 -39s22 -16 36 -16c5.33301 0 11.333 1 18 3v-39
c-2 0 -4 -0.166992 -6 -0.5s-3.66699 -0.5 -5 -0.5h-7c-24 0 -44.5 9 -61.5 27s-25.5 40 -25.5 66c0 19.333 5 36.5 15 51.5s22.333 26.167 37 33.5v32h-51v696h104z" />
    <glyph glyph-name="iogonek" unicode="&#x12f;" horiz-adv-x="204" 
d="M140 1v-26h9c2 0 3.66699 -0.333008 5 -1v-38c-3.33301 0.666992 -6.33301 1.16699 -9 1.5s-5.33398 0.5 -8.00098 0.5c-14.667 0 -27 -5.33301 -37 -16s-15 -24 -15 -40c0 -15.333 5 -28.333 15 -39s22.333 -16 37 -16c4.66699 0 10.334 1 17.001 3v-39
c-1.33301 0 -3.16602 -0.166992 -5.49902 -0.5s-3.83301 -0.5 -4.5 -0.5h-7c-24.667 0 -45.334 9 -62.001 27s-25 40 -25 66c0 19.333 4.83301 36.5 14.5 51.5s22.167 26.167 37.5 33.5v33h-46v490h91v-490h-7zM146 699v-98h-91v98h91z" />
    <glyph glyph-name="Idotaccent" unicode="&#x130;" horiz-adv-x="204" 
d="M154 696v-696h-104v696h104zM147 827v-98h-91v98h91z" />
    <glyph glyph-name="dotlessi" unicode="&#x131;" horiz-adv-x="191" 
d="M141 491v-490h-91v490h91z" />
    <glyph glyph-name="Jcircumflex" unicode="&#x134;" horiz-adv-x="299" 
d="M249 204c-1.33301 -37.333 -3.83398 -68.833 -7.50098 -94.5s-10.5 -46.5 -20.5 -62.5s-24.5 -27.667 -43.5 -35s-44.833 -11 -77.5 -11h-24c-4 0 -8.16699 0.166992 -12.5 0.5s-8.83301 0.833008 -13.5 1.5v109h25c10.667 0 20.834 0.666992 30.501 2s17.667 4.5 24 9.5
s11.333 12.5 15 22.5s5.5 24 5.5 42v511h99v-495zM203.999 900l151 -181h-88l-63 84l-74 -84h-86z" />
    <glyph glyph-name="jcircumflex" unicode="&#x135;" horiz-adv-x="190" 
d="M-119 -206c-1.33301 0 -4.16699 0.500977 -8.5 1.50098s-6.5 1.83301 -6.5 2.5v98c8.66699 0 17.5 -0.833008 26.5 -2.5s18.167 -2.5 27.5 -2.5c16 0 31.667 2.16699 47 6.5s29 11 41 20s21.833 20.167 29.5 33.5s11.5 28.666 11.5 45.999l1 494h90v-500
c0 -30 -5.66699 -57.333 -17 -82s-26.166 -45.5 -44.499 -62.5s-39.5 -30.167 -63.5 -39.5s-49 -14 -75 -14h-13c-6.66699 0 -10.334 0.333008 -11.001 1h-35zM100.999 702.001l151 -181h-87l-64 84l-74 -84h-86z" />
    <glyph glyph-name="uni0136" unicode="&#x136;" horiz-adv-x="595" 
d="M157 702v-207l257 203l62 -90l-221 -173l290 -359l-79 -76l-309 390v-390h-107v702h107zM327 0l-0.00195312 -97c0 -32 -7.16699 -56.167 -21.5 -72.5s-32.5 -24.5 -54.5 -24.5h-5c-0.666992 0.666992 -2.66699 1 -6 1h-4v35c4 -0.666992 7.33301 -1.16699 10 -1.5
s4.33398 -0.5 5.00098 -0.5c12.667 0 23.334 4.83301 32.001 14.5s13 24.167 13 43.5v5h-60v97h91z" />
    <glyph glyph-name="uni0137" unicode="&#x137;" horiz-adv-x="462" 
d="M142 700v-424l203 218l64 -68l-162 -178l165 -178l-63 -68l-167 176l-40 -43v-136h-92v701h92zM267 0l-0.000976562 -97c0 -32 -7.5 -56.167 -22.5 -72.5s-32.833 -24.5 -53.5 -24.5h-6c-0.666992 0.666992 -2.33398 1 -5.00098 1h-4v35
c4 -0.666992 7.33301 -1.16699 10 -1.5s4.33398 -0.5 5.00098 -0.5c12.667 0 23.334 4.83301 32.001 14.5s13 24.167 13 43.5v5h-60v97h91z" />
    <glyph glyph-name="Lacute" unicode="&#x139;" horiz-adv-x="297" 
d="M154 699v-595h93v-104h-197v699h104zM204 912l40 -52l-150 -132l-42 52z" />
    <glyph glyph-name="lacute" unicode="&#x13a;" horiz-adv-x="291" 
d="M194 704v-704h-92v704h92zM201 901l40 -53l-151 -131l-40 52z" />
    <glyph glyph-name="uni013B" unicode="&#x13b;" horiz-adv-x="297" 
d="M154 699v-595h93v-104h-197v699h104zM196 -25l-0.000976562 -97c0 -32 -7.33301 -56.167 -22 -72.5s-32.667 -24.5 -54 -24.5h-5c-0.666992 0.666992 -2.66699 1 -6 1h-4v35l7 -2c1.33301 -0.666992 4 -1 8 -1c12.667 0 23.334 5 32.001 15s13 24.667 13 44v5h-60v97h91z
" />
    <glyph glyph-name="uni013C" unicode="&#x13c;" horiz-adv-x="191" 
d="M141 704v-704h-91v704h91zM141 -34l-0.000976562 -96c0 -32 -7.33301 -56.167 -22 -72.5s-32.667 -24.5 -54 -24.5h-11c-2 0 -3 0.333008 -3 1l-1 35h1c3.33301 -2 8 -3 14 -3c12.667 0 23.334 4.83301 32.001 14.5s13 24.167 13 43.5v5h-60v97h91z" />
    <glyph glyph-name="Lcaron" unicode="&#x13d;" horiz-adv-x="381" 
d="M237 699v-595h94v-104h-197v699h103zM50 898h64l63 -97l39 97h66l-103 -183z" />
    <glyph glyph-name="lcaron" unicode="&#x13e;" horiz-adv-x="347" 
d="M141 704v-704h-91v704h91zM297 703l-0.000976562 -96c0 -32 -7.5 -56.167 -22.5 -72.5s-32.833 -24.5 -53.5 -24.5h-11c-2 0 -3.33301 0.333008 -4 1v35l8 -2c0.666992 -0.666992 3 -1 7 -1c12.667 0 23.334 4.83301 32.001 14.5s13 24.167 13 43.5v5h-60v97h91z" />
    <glyph glyph-name="Lslash" unicode="&#x141;" horiz-adv-x="384" 
d="M240 699v-234l26 26l63 -75l-89 -88v-224h94v-104h-199v228l-20 -20l-65 75l85 82v334h105z" />
    <glyph glyph-name="lslash" unicode="&#x142;" horiz-adv-x="379" 
d="M240 699v-234l26 26l63 -75l-89 -88v-328h-105v228l-20 -20l-65 75l85 82v334h105z" />
    <glyph glyph-name="Nacute" unicode="&#x143;" horiz-adv-x="624" 
d="M50 697h107l312 -498v500h105v-698h-102l-2 2c-0.666992 2 -2.66699 5.66699 -6 11l-15 24.5l-27.5 44l-44.5 69.5l-221 353v-504h-106v696zM319 887l38 -53l-150 -131l-40 52z" />
    <glyph glyph-name="nacute" unicode="&#x144;" horiz-adv-x="561" 
d="M241 389v-2c-12.667 -4 -24.834 -10.333 -36.501 -19s-22.167 -19 -31.5 -31s-16.833 -25.167 -22.5 -39.5s-8.5 -29.166 -8.5 -44.499v-255h-92v491h92v-45c44.667 31.333 91 47 139 47c32.667 0 63 -6.5 91 -19.5s52.333 -30.833 73 -53.5s36.834 -49.167 48.501 -79.5
s17.5 -62.833 17.5 -97.5v-243h-91l-1 255c-1.33301 20 -5.83301 38.5 -13.5 55.5s-17.834 31.667 -30.501 44s-27.167 22.166 -43.5 29.499s-33.166 11 -50.499 11c-20.667 0 -34 -1.33301 -40 -4zM262 691l40 -53l-150 -131l-40 52z" />
    <glyph glyph-name="uni0145" unicode="&#x145;" horiz-adv-x="624" 
d="M50 697h107l312 -498v500h105v-698h-102l-2 2c-0.666992 2 -2.66699 5.66699 -6 11l-15 24.5l-27.5 44l-44.5 69.5l-221 353v-504h-106v696zM361 0v-97c0 -32 -7.33301 -56.167 -22 -72.5s-32.667 -24.5 -54 -24.5h-5c-0.666992 0.666992 -2.33398 1 -5.00098 1h-5v35
l10 -1c0.666992 -0.666992 2.33398 -1 5.00098 -1c12.667 0 23.5 4.83301 32.5 14.5s13.5 24.167 13.5 43.5v5h-61v97h91z" />
    <glyph glyph-name="uni0146" unicode="&#x146;" horiz-adv-x="561" 
d="M241 389v-2c-12.667 -4 -24.834 -10.333 -36.501 -19s-22.167 -19 -31.5 -31s-16.833 -25.167 -22.5 -39.5s-8.5 -29.166 -8.5 -44.499v-255h-92v491h92v-45c44.667 31.333 91 47 139 47c32.667 0 63 -6.5 91 -19.5s52.333 -30.833 73 -53.5s36.834 -49.167 48.501 -79.5
s17.5 -62.833 17.5 -97.5v-243h-91l-1 255c-1.33301 20 -5.83301 38.5 -13.5 55.5s-17.834 31.667 -30.501 44s-27.167 22.166 -43.5 29.499s-33.166 11 -50.499 11c-20.667 0 -34 -1.33301 -40 -4zM322 0l-0.000976562 -97c0 -32 -7.5 -56.167 -22.5 -72.5
s-32.833 -24.5 -53.5 -24.5h-6c0 0.666992 -1.33301 1 -4 1h-5v35l10 -1c0.666992 -0.666992 2.33398 -1 5.00098 -1c12.667 0 23.5 4.83301 32.5 14.5s13.5 24.167 13.5 43.5v5h-61v97h91z" />
    <glyph glyph-name="Ncaron" unicode="&#x147;" horiz-adv-x="624" 
d="M50 697h107l312 -498v500h105v-698h-102l-2 2c-0.666992 2 -2.66699 5.66699 -6 11l-15 24.5l-27.5 44l-44.5 69.5l-221 353v-504h-106v696zM191 881h64l64 -96l38 96h67l-104 -183l-1 1z" />
    <glyph glyph-name="ncaron" unicode="&#x148;" horiz-adv-x="561" 
d="M241 389v-2c-12.667 -4 -24.834 -10.333 -36.501 -19s-22.167 -19 -31.5 -31s-16.833 -25.167 -22.5 -39.5s-8.5 -29.166 -8.5 -44.499v-255h-92v491h92v-45c44.667 31.333 91 47 139 47c32.667 0 63 -6.5 91 -19.5s52.333 -30.833 73 -53.5s36.834 -49.167 48.501 -79.5
s17.5 -62.833 17.5 -97.5v-243h-91l-1 255c-1.33301 20 -5.83301 38.5 -13.5 55.5s-17.834 31.667 -30.501 44s-27.167 22.166 -43.5 29.499s-33.166 11 -50.499 11c-20.667 0 -34 -1.33301 -40 -4zM146 696h64l64 -96l38 96h67l-104 -183l-1 1z" />
    <glyph glyph-name="Omacron" unicode="&#x14c;" horiz-adv-x="755" 
d="M50 349c0 48.667 8.49902 94.333 25.499 137s40.5 79.667 70.5 111s65 56 105 74s82.667 27 128 27c44.667 0 86.834 -9.16699 126.501 -27.5s74.334 -43.333 104.001 -75s53 -68.667 70 -111s25.5 -87.5 25.5 -135.5s-8.83301 -93.167 -26.5 -135.5
s-41.167 -79.166 -70.5 -110.499s-63.833 -56.166 -103.5 -74.499s-82.167 -27.5 -127.5 -27.5c-44.667 0 -86.834 9.16699 -126.501 27.5s-74.5 43.166 -104.5 74.499s-53.5 68.166 -70.5 110.499s-25.5 87.5 -25.5 135.5zM158.999 348.999
c0 -32 5.83594 -62.167 17.5029 -90.5s27.167 -52.833 46.5 -73.5s42.333 -37 69 -49s55 -18 85 -18c31.333 0 60.333 6 87 18s49.667 28.5 69 49.5s34.666 45.667 45.999 74s17 58.833 17 91.5c0 32 -5.83301 62 -17.5 90s-27.334 52.5 -47.001 73.5
s-42.834 37.5 -69.501 49.5s-55 18 -85 18s-58.333 -6.16699 -85 -18.5s-49.667 -29 -69 -50s-34.833 -45.667 -46.5 -74s-17.5 -58.5 -17.5 -90.5zM521.002 794.999v-65h-289v65h289z" />
    <glyph glyph-name="omacron" unicode="&#x14d;" horiz-adv-x="565" 
d="M50 248c0 34 6 66 18 96s28.667 56.333 50 79s46 40.5 74 53.5s57.667 19.5 89 19.5c32.667 0 63.167 -6.5 91.5 -19.5s53.166 -30.833 74.499 -53.5s38 -49.167 50 -79.5s18 -62.5 18 -96.5s-6 -66 -18 -96s-28.667 -56.167 -50 -78.5s-46.166 -40 -74.499 -53
s-58.833 -19.5 -91.5 -19.5c-31.333 0 -61 6.5 -89 19.5s-52.667 30.833 -74 53.5s-38 49 -50 79s-18 62 -18 96zM145 248c0 -20.667 3.5 -39.833 10.5 -57.5s16.833 -33.167 29.5 -46.5s27.334 -23.833 44.001 -31.5s34.334 -11.5 53.001 -11.5
c19.333 0 37.333 3.83301 54 11.5s31.334 18.167 44.001 31.5s22.5 28.833 29.5 46.5s10.5 36.834 10.5 57.501c0 20 -3.5 39 -10.5 57s-16.833 33.667 -29.5 47s-27.334 23.833 -44.001 31.5s-34.667 11.5 -54 11.5c-18.667 0 -36.334 -3.83301 -53.001 -11.5
s-31.334 -18.167 -44.001 -31.5s-22.5 -28.833 -29.5 -46.5s-10.5 -36.834 -10.5 -57.501zM427 585.001v-65h-290v65h290z" />
    <glyph glyph-name="Ohungarumlaut" unicode="&#x150;" horiz-adv-x="755" 
d="M50 349c0 48.667 8.49902 94.333 25.499 137s40.5 79.667 70.5 111s65 56 105 74s82.667 27 128 27c44.667 0 86.834 -9.16699 126.501 -27.5s74.334 -43.333 104.001 -75s53 -68.667 70 -111s25.5 -87.5 25.5 -135.5s-8.83301 -93.167 -26.5 -135.5
s-41.167 -79.166 -70.5 -110.499s-63.833 -56.166 -103.5 -74.499s-82.167 -27.5 -127.5 -27.5c-44.667 0 -86.834 9.16699 -126.501 27.5s-74.5 43.166 -104.5 74.499s-53.5 68.166 -70.5 110.499s-25.5 87.5 -25.5 135.5zM158.999 348.999
c0 -32 5.83594 -62.167 17.5029 -90.5s27.167 -52.833 46.5 -73.5s42.333 -37 69 -49s55 -18 85 -18c31.333 0 60.333 6 87 18s49.667 28.5 69 49.5s34.666 45.667 45.999 74s17 58.833 17 91.5c0 32 -5.83301 62 -17.5 90s-27.334 52.5 -47.001 73.5
s-42.834 37.5 -69.501 49.5s-55 18 -85 18s-58.333 -6.16699 -85 -18.5s-49.667 -29 -69 -50s-34.833 -45.667 -46.5 -74s-17.5 -58.5 -17.5 -90.5zM372.002 897.999l40 -52l-150 -132l-41 52zM519.002 897.999l40 -52l-150 -132l-42 52z" />
    <glyph glyph-name="ohungarumlaut" unicode="&#x151;" horiz-adv-x="565" 
d="M50 248c0 34 6 66 18 96s28.667 56.333 50 79s46 40.5 74 53.5s57.667 19.5 89 19.5c32.667 0 63.167 -6.5 91.5 -19.5s53.166 -30.833 74.499 -53.5s38 -49.167 50 -79.5s18 -62.5 18 -96.5s-6 -66 -18 -96s-28.667 -56.167 -50 -78.5s-46.166 -40 -74.499 -53
s-58.833 -19.5 -91.5 -19.5c-31.333 0 -61 6.5 -89 19.5s-52.667 30.833 -74 53.5s-38 49 -50 79s-18 62 -18 96zM145 248c0 -20.667 3.5 -39.833 10.5 -57.5s16.833 -33.167 29.5 -46.5s27.334 -23.833 44.001 -31.5s34.334 -11.5 53.001 -11.5
c19.333 0 37.333 3.83301 54 11.5s31.334 18.167 44.001 31.5s22.5 28.833 29.5 46.5s10.5 36.834 10.5 57.501c0 20 -3.5 39 -10.5 57s-16.833 33.667 -29.5 47s-27.334 23.833 -44.001 31.5s-34.667 11.5 -54 11.5c-18.667 0 -36.334 -3.83301 -53.001 -11.5
s-31.334 -18.167 -44.001 -31.5s-22.5 -28.833 -29.5 -46.5s-10.5 -36.834 -10.5 -57.501zM264 702.001l40 -52l-150 -132l-42 52zM411 702.001l40 -52l-151 -132l-40 52z" />
    <glyph glyph-name="OE" unicode="&#x152;" horiz-adv-x="1114" 
d="M50 349c0 48.667 8.5 94.335 25.5 137.002s40.5 79.667 70.5 111s65 56 105 74s82.667 27 128 27c58 0 110.5 -14.5 157.5 -43.5s85.167 -67.5 114.5 -115.5c32 48.667 73.833 87.834 125.5 117.501s108.5 44.5 170.5 44.5c26.667 0 61.334 -4.66699 104.001 -14h1
c1.33301 -1.33301 3.16602 -2.33301 5.49902 -3s3.83301 -1 4.5 -1l2 -122c-16.667 8 -34.167 14.333 -52.5 19s-36.833 7 -55.5 7c-43.333 0 -83.5 -8.16699 -120.5 -24.5s-65.5 -40.5 -85.5 -72.5h191v-106h-225c-2.66699 -12 -4 -23.667 -4 -35c0 -32 7.33301 -62 22 -90
s33.5 -52.333 56.5 -73s48.833 -37 77.5 -49s57.667 -18 87 -18c18 0 36.5 1.66699 55.5 5s36.833 9.66602 53.5 18.999v-120c0 -2 -4.66699 -4.16699 -14 -6.5s-20.166 -4.5 -32.499 -6.5s-25 -3.66699 -38 -5s-23.833 -2 -32.5 -2c-62 0 -118.5 14.5 -169.5 43.5
s-92.833 67.5 -125.5 115.5c-30 -48.667 -68.667 -87.667 -116 -117s-100.333 -44 -159 -44c-44.667 0 -86.834 9.16699 -126.501 27.5s-74.5 43.166 -104.5 74.499s-53.5 68.166 -70.5 110.499s-25.5 87.5 -25.5 135.5zM159 349.001c0 -32 5.83594 -62.167 17.5029 -90.5
s27.167 -52.833 46.5 -73.5s42.333 -37 69 -49s55 -18 85 -18c31.333 0 60.333 6 87 18s49.667 28.5 69 49.5s34.666 45.667 45.999 74s17 58.833 17 91.5c0 32 -5.83301 62 -17.5 90s-27.334 52.5 -47.001 73.5s-42.834 37.5 -69.501 49.5s-55 18 -85 18
s-58.333 -6.16699 -85 -18.5s-49.667 -29 -69 -50s-34.833 -45.667 -46.5 -74s-17.5 -58.5 -17.5 -90.5z" />
    <glyph glyph-name="oe" unicode="&#x153;" horiz-adv-x="930" 
d="M50 248c0 34 5.99902 66.002 17.999 96.002s28.667 56.333 50 79s46 40.5 74 53.5s57.667 19.5 89 19.5c38.667 0 74 -9.16699 106 -27.5s59.333 -42.5 82 -72.5c20.667 30 46.667 53.333 78 70s65.666 25 102.999 25c31.333 0 61 -6.5 89 -19.5s52.5 -30.5 73.5 -52.5
s37.5 -47.833 49.5 -77.5s18 -61.5 18 -95.5v-18c0 -4.66699 -0.666992 -11.334 -2 -20.001s-2.33301 -13 -3 -13h-354c2.66699 -14 8.33398 -27 17.001 -39s19.334 -22.167 32.001 -30.5s26 -14.833 40 -19.5s27.333 -7 40 -7c6.66699 0 14.834 0.5 24.501 1.5
s15.5 2.83301 17.5 5.5h3v-102c-2 -0.666992 -7.16699 -1.33398 -15.5 -2.00098s-13.5 -1 -15.5 -1c-86 0 -152 32 -198 96c-20.667 -30 -47.334 -53.667 -80.001 -71s-67.667 -26 -105 -26c-31.333 0 -61 6.5 -89 19.5s-52.667 30.833 -74 53.5s-38 49 -50 79
s-18 62 -18 96zM144.999 248.002c0 -20.667 3.5 -39.833 10.5 -57.5s16.833 -33.167 29.5 -46.5s27.334 -23.833 44.001 -31.5s34.334 -11.5 53.001 -11.5c19.333 0 37.333 3.83301 54 11.5s31.334 18.167 44.001 31.5s22.5 28.833 29.5 46.5s10.5 36.834 10.5 57.501
c0 20 -3.5 39 -10.5 57s-16.833 33.667 -29.5 47s-27.334 23.833 -44.001 31.5s-34.667 11.5 -54 11.5c-18.667 0 -36.334 -3.83301 -53.001 -11.5s-31.334 -18.167 -44.001 -31.5s-22.5 -28.833 -29.5 -46.5s-10.5 -36.834 -10.5 -57.501zM649.999 393.003
c-28.667 0 -55.168 -9.16699 -79.501 -27.5s-41.166 -42.5 -50.499 -72.5h260c-7.33301 30 -23.5 54.167 -48.5 72.5s-52.167 27.5 -81.5 27.5z" />
    <glyph glyph-name="Racute" unicode="&#x154;" 
d="M150 699l-0.000976562 -8.99902h2c12 2.66699 23.833 4.83398 35.5 6.50098s23.834 2.5 36.501 2.5c38.667 0 75.334 -7.83301 110.001 -23.5s65.167 -36.834 91.5 -63.501s47 -57.834 62 -93.501s22.5 -73.834 22.5 -114.501c0 -38 -6.83301 -74.167 -20.5 -108.5
s-32.834 -65.5 -57.501 -93.5l77 -201h-123l-49 128l-5 3c-36.667 -15.333 -73.667 -23 -111 -23c-11.333 0 -22.833 0.833008 -34.5 2.5s-23.167 3.83398 -34.5 6.50098h-2v-117h-100v698h100zM149.999 220.001c0 -1.33301 2.66699 -2.66797 8 -4.00098
s11.833 -2.66602 19.5 -3.99902s15 -2.33301 22 -3s12.5 -1 16.5 -1c26 0 50.5 5 73.5 15s43 23.667 60 41s30.5 38 40.5 62s15 50 15 78s-5 54.167 -15 78.5s-23.5 45.166 -40.5 62.499s-37 31 -60 41s-47.5 15 -73.5 15c-11.333 0 -23.333 -1.16699 -36 -3.5
s-22.667 -5.16602 -30 -8.49902v-369zM264.999 897.999l40 -52l-151 -132l-40 52z" />
    <glyph glyph-name="racute" unicode="&#x155;" horiz-adv-x="376" 
d="M142 489l-0.00195312 -45c42.667 32 89 48 139 48c0.666992 0 3.33398 -0.333008 8.00098 -1s10 -1.33398 16 -2.00098l21 -3v-100c-7.33301 1.33301 -14.833 2.83301 -22.5 4.5s-15.5 2.5 -23.5 2.5c-17.333 0 -34.166 -3.66699 -50.499 -11s-31 -17.166 -44 -29.499
s-23.5 -27 -31.5 -44s-12 -35.167 -12 -54.5v-255h-92v490h92zM255.998 685l40 -52l-150 -132l-41 53z" />
    <glyph glyph-name="uni0156" unicode="&#x156;" 
d="M150 699l-0.000976562 -8.99902h2c12 2.66699 23.833 4.83398 35.5 6.50098s23.834 2.5 36.501 2.5c38.667 0 75.334 -7.83301 110.001 -23.5s65.167 -36.834 91.5 -63.501s47 -57.834 62 -93.501s22.5 -73.834 22.5 -114.501c0 -38 -6.83301 -74.167 -20.5 -108.5
s-32.834 -65.5 -57.501 -93.5l77 -201h-123l-49 128l-5 3c-36.667 -15.333 -73.667 -23 -111 -23c-11.333 0 -22.833 0.833008 -34.5 2.5s-23.167 3.83398 -34.5 6.50098h-2v-117h-100v698h100zM149.999 220.001c0 -1.33301 2.66699 -2.66797 8 -4.00098
s11.833 -2.66602 19.5 -3.99902s15 -2.33301 22 -3s12.5 -1 16.5 -1c26 0 50.5 5 73.5 15s43 23.667 60 41s30.5 38 40.5 62s15 50 15 78s-5 54.167 -15 78.5s-23.5 45.166 -40.5 62.499s-37 31 -60 41s-47.5 15 -73.5 15c-11.333 0 -23.333 -1.16699 -36 -3.5
s-22.667 -5.16602 -30 -8.49902v-369zM319.999 2.99902v-97c0 -32 -7.5 -56.167 -22.5 -72.5s-32.833 -24.5 -53.5 -24.5h-7c-0.666992 0.666992 -2.33398 1 -5.00098 1h-3v35l7 -2c0.666992 -0.666992 3.33398 -1 8.00098 -1c12 0 22.5 5 31.5 15s13.5 24.667 13.5 44v4
h-60v98h91z" />
    <glyph glyph-name="uni0157" unicode="&#x157;" horiz-adv-x="376" 
d="M142 489l-0.00195312 -45c42.667 32 89 48 139 48c0.666992 0 3.33398 -0.333008 8.00098 -1s10 -1.33398 16 -2.00098l21 -3v-100c-7.33301 1.33301 -14.833 2.83301 -22.5 4.5s-15.5 2.5 -23.5 2.5c-17.333 0 -34.166 -3.66699 -50.499 -11s-31 -17.166 -44 -29.499
s-23.5 -27 -31.5 -44s-12 -35.167 -12 -54.5v-255h-92v490h92zM140.998 -28l-0.00195312 -97c0 -32 -7.33301 -56.167 -22 -72.5s-32.667 -24.5 -54 -24.5h-5c-0.666992 0 -1.5 0.166992 -2.5 0.5s-1.83301 0.5 -2.5 0.5h-5l1 35
c2.66699 -0.666992 4.83398 -1.16699 6.50098 -1.5s4.16699 -0.5 7.5 -0.5c12.667 0 23.334 4.83301 32.001 14.5s13 24.167 13 43.5v5h-60v97h91z" />
    <glyph glyph-name="Rcaron" unicode="&#x158;" 
d="M150 699l-0.000976562 -8.99902h2c12 2.66699 23.833 4.83398 35.5 6.50098s23.834 2.5 36.501 2.5c38.667 0 75.334 -7.83301 110.001 -23.5s65.167 -36.834 91.5 -63.501s47 -57.834 62 -93.501s22.5 -73.834 22.5 -114.501c0 -38 -6.83301 -74.167 -20.5 -108.5
s-32.834 -65.5 -57.501 -93.5l77 -201h-123l-49 128l-5 3c-36.667 -15.333 -73.667 -23 -111 -23c-11.333 0 -22.833 0.833008 -34.5 2.5s-23.167 3.83398 -34.5 6.50098h-2v-117h-100v698h100zM149.999 220.001c0 -1.33301 2.66699 -2.66797 8 -4.00098
s11.833 -2.66602 19.5 -3.99902s15 -2.33301 22 -3s12.5 -1 16.5 -1c26 0 50.5 5 73.5 15s43 23.667 60 41s30.5 38 40.5 62s15 50 15 78s-5 54.167 -15 78.5s-23.5 45.166 -40.5 62.499s-37 31 -60 41s-47.5 15 -73.5 15c-11.333 0 -23.333 -1.16699 -36 -3.5
s-22.667 -5.16602 -30 -8.49902v-369zM84.999 905.999h65l62 -96l39 96h66l-103 -183v1z" />
    <glyph glyph-name="rcaron" unicode="&#x159;" horiz-adv-x="381" 
d="M147 489l-0.00195312 -45c42.667 32 89 48 139 48c0.666992 0 3.33398 -0.333008 8.00098 -1s10 -1.33398 16 -2.00098l21 -3v-100c-7.33301 1.33301 -14.833 2.83301 -22.5 4.5s-15.5 2.5 -23.5 2.5c-17.333 0 -34.166 -3.66699 -50.499 -11s-31 -17.166 -44 -29.499
s-23.5 -27 -31.5 -44s-12 -35.167 -12 -54.5v-255h-92v490h92zM49.998 694h65l62 -97l40 97h65l-102 -184l-1 1z" />
    <glyph glyph-name="Sacute" unicode="&#x15a;" horiz-adv-x="614" 
d="M189 130c32 -22 65.6689 -33.001 101.002 -33.001c37.333 0 71.5 10.5 102.5 31.5s53.5 49.833 67.5 86.5c0.666992 3.33301 1.5 7 2.5 11s1.83301 10.333 2.5 19s1.66699 20.5 3 35.5s2.66602 35.167 3.99902 60.5c0 7.33301 -0.166992 15.5 -0.5 24.5
s-0.5 18.833 -0.5 29.5h-421l1 35c0.666992 37.333 9.16699 72.333 25.5 105s37.166 61.167 62.499 85.5s54.333 43.5 87 57.5s66 21 100 21c15.333 0 29.666 -1 42.999 -3s27 -5.66699 41 -11l7 -3l-1 -101c-14 6.66699 -27.667 11.667 -41 15s-28 5 -44 5
c-30 0 -58.167 -7.66699 -84.5 -23s-47.166 -36 -62.499 -62c-3.33301 -2 -6.33301 -5.83301 -9 -11.5s-4 -9.16699 -4 -10.5l391 -1c0 -18.667 0.333008 -36 1 -52s1 -31 1 -45c0 -42.667 -0.833008 -76.667 -2.5 -102s-3.66699 -45.166 -6 -59.499s-4.5 -25 -6.5 -32
s-3.66699 -13.5 -5 -19.5c-10 -27.333 -23.667 -52.333 -41 -75s-37 -42 -59 -58s-45.833 -28.333 -71.5 -37s-52.5 -13 -80.5 -13c-23.333 0 -55 5.66699 -95 17l-10 5zM319.002 883.999l38 -52l-150 -132l-40 52z" />
    <glyph glyph-name="sacute" unicode="&#x15b;" horiz-adv-x="472" 
d="M145 106c8 -2.66699 15.668 -4.66895 23.001 -6.00195s15 -2 23 -2c26.667 0 50.5 6.83301 71.5 20.5s37.5 32.834 49.5 57.501l9 21h-266c-2 9.33301 -3.33301 18.5 -4 27.5s-1 18.167 -1 27.5c0 32.667 6.16699 63.667 18.5 93s29.166 54.833 50.499 76.5
s46 38.834 74 51.501s57.333 19 88 19c7.33301 0 14.833 -0.333008 22.5 -1s15.167 -2 22.5 -4l-1 -101c-8.66699 2 -16.334 3.66699 -23.001 5s-13.667 2 -21 2c-23.333 0 -45.166 -5.5 -65.499 -16.5s-36.833 -26.833 -49.5 -47.5l-15 -33h266l5 -52
c0 -34 -6 -65.833 -18 -95.5s-28.333 -55.667 -49 -78s-45 -39.833 -73 -52.5s-58.333 -19 -91 -19h-19c-0.666992 0 -3.5 0.5 -8.5 1.5s-9.5 1.5 -13.5 1.5l-5 2v102zM257.001 676.998l40 -53l-150 -131l-41 52z" />
    <glyph glyph-name="Scircumflex" unicode="&#x15c;" horiz-adv-x="614" 
d="M187 130c33.333 -22 67.6689 -33.001 103.002 -33.001c37.333 0 71.5 10.5 102.5 31.5s53.5 49.833 67.5 86.5c0.666992 3.33301 1.5 7 2.5 11s1.83301 10.333 2.5 19s1.66699 20.5 3 35.5s2.66602 35.167 3.99902 60.5c0 7.33301 -0.166992 15.5 -0.5 24.5
s-0.5 18.833 -0.5 29.5h-421l1 35c0.666992 37.333 9.16699 72.333 25.5 105s37.166 61.167 62.499 85.5s54.333 43.5 87 57.5s66 21 100 21c15.333 0 29.666 -1 42.999 -3s27 -5.66699 41 -11l7 -3l-1 -101c-14 6.66699 -27.667 11.667 -41 15s-28 5 -44 5
c-30 0 -58.167 -7.66699 -84.5 -23s-47.166 -36 -62.499 -62c-3.33301 -2 -6.33301 -5.83301 -9 -11.5s-4 -9.16699 -4 -10.5l391 -1c0 -18.667 0.333008 -36 1 -52s1 -31 1 -45c0 -42.667 -0.833008 -76.667 -2.5 -102s-3.66699 -45.166 -6 -59.499s-4.5 -25 -6.5 -32
s-3.66699 -13.5 -5 -19.5c-10 -27.333 -23.667 -52.333 -41 -75s-37 -42 -59 -58s-45.833 -28.333 -71.5 -37s-52.5 -13 -80.5 -13c-23.333 0 -55 5.66699 -95 17l-10 5v108zM311.003 910.999l151 -181h-87l-64 84l-74 -84h-86z" />
    <glyph glyph-name="scircumflex" unicode="&#x15d;" horiz-adv-x="472" 
d="M145 106c8 -2.66699 15.668 -4.66895 23.001 -6.00195s15 -2 23 -2c26.667 0 50.5 6.83301 71.5 20.5s37.5 32.834 49.5 57.501l9 21h-266c-2 9.33301 -3.33301 18.5 -4 27.5s-1 18.167 -1 27.5c0 32.667 6.16699 63.667 18.5 93s29.166 54.833 50.499 76.5
s46 38.834 74 51.501s57.333 19 88 19c7.33301 0 14.833 -0.333008 22.5 -1s15.167 -2 22.5 -4l-1 -101c-8.66699 2 -16.334 3.66699 -23.001 5s-13.667 2 -21 2c-23.333 0 -45.166 -5.5 -65.499 -16.5s-36.833 -26.833 -49.5 -47.5l-15 -33h266l5 -52
c0 -34 -6 -65.833 -18 -95.5s-28.333 -55.667 -49 -78s-45 -39.833 -73 -52.5s-58.333 -19 -91 -19h-19c-0.666992 0 -3.5 0.5 -8.5 1.5s-9.5 1.5 -13.5 1.5l-5 2v102zM240.001 699.998l151 -181h-87l-64 84l-74 -84h-86z" />
    <glyph glyph-name="Scedilla" unicode="&#x15e;" horiz-adv-x="614" 
d="M187 130c33.333 -22 67.665 -33 102.998 -33c37.333 0 71.5 10.5 102.5 31.5s53.5 49.833 67.5 86.5c0.666992 3.33301 1.5 7 2.5 11s1.83301 10.333 2.5 19s1.66699 20.5 3 35.5s2.66602 35.167 3.99902 60.5c0 7.33301 -0.166992 15.5 -0.5 24.5s-0.5 18.833 -0.5 29.5
h-421l1 35c0.666992 37.333 9.16699 72.333 25.5 105s37.166 61.167 62.499 85.5s54.333 43.5 87 57.5s66 21 100 21c15.333 0 29.666 -1 42.999 -3s27 -5.66699 41 -11l7 -3l-1 -101c-14 6.66699 -27.667 11.667 -41 15s-28 5 -44 5c-30 0 -58.167 -7.66699 -84.5 -23
s-47.166 -36 -62.499 -62c-3.33301 -2 -6.33301 -5.83301 -9 -11.5s-4 -9.16699 -4 -10.5l391 -1c0 -18.667 0.333008 -36 1 -52s1 -31 1 -45c0 -43.333 -0.666992 -78 -2 -104s-3 -46.167 -5 -60.5s-4.33301 -24.833 -7 -31.5s-4.66699 -12.334 -6 -17.001
c-10 -26 -23.333 -50 -40 -72s-35.334 -41 -56.001 -57s-43 -28.667 -67 -38s-48.667 -14.666 -74 -15.999v-32c15.333 -7.33301 28 -18.5 38 -33.5s15 -32.167 15 -51.5c0 -26 -8.5 -48 -25.5 -66s-37.833 -27 -62.5 -27h-6c-1.33301 0 -3.16602 0.166992 -5.49902 0.5
s-4.16602 0.5 -5.49902 0.5v39c6 -2 11.667 -3 17 -3c14.667 0 27 5.33301 37 16s15 23.667 15 39c0 16 -5 29.333 -15 40s-22.333 16 -37 16c-3.33301 0 -6.16602 -0.166992 -8.49902 -0.5s-5.16602 -0.833008 -8.49902 -1.5v38c0.666992 0.666992 2.33398 1 5.00098 1h10
v26c-32.667 2 -57 7.33301 -73 16l-10 5v108z" />
    <glyph glyph-name="scedilla" unicode="&#x15f;" horiz-adv-x="472" 
d="M236 1l-0.00195312 -33.001c15.333 -7.33301 28 -18.5 38 -33.5s15 -32.167 15 -51.5c0 -26 -8.66699 -48 -26 -66s-38 -27 -62 -27h-6c-2 0 -4 0.166992 -6 0.5s-3.66699 0.5 -5 0.5v39c5.33301 -2 11 -3 17 -3c14 0 26 5.33301 36 16s15 23.667 15 39
c0 16 -5 29.333 -15 40s-22 16 -36 16c-3.33301 0 -6.16602 -0.166992 -8.49902 -0.5s-5.16602 -0.833008 -8.49902 -1.5v38c0.666992 0.666992 2.33398 1 5.00098 1h10v25c-2 0 -3.66699 -0.166992 -5 -0.5s-2.33301 -0.5 -3 -0.5h-19c-0.666992 0 -3.5 0.5 -8.5 1.5
s-9.5 1.5 -13.5 1.5l-5 2v102c8 -2.66699 15.667 -4.66699 23 -6s15 -2 23 -2c26.667 0 50.5 6.83301 71.5 20.5s37.5 32.834 49.5 57.501l9 21h-266c-2 9.33301 -3.33301 18.5 -4 27.5s-1 18.167 -1 27.5c0 32.667 6.16699 63.667 18.5 93s29.166 54.833 50.499 76.5
s46 38.834 74 51.501s57.333 19 88 19c7.33301 0 14.833 -0.333008 22.5 -1s15.167 -2 22.5 -4l-1 -101c-8.66699 2 -16.334 3.66699 -23.001 5s-13.667 2 -21 2c-23.333 0 -45.166 -5.5 -65.499 -16.5s-36.833 -26.833 -49.5 -47.5l-15 -33h266l5 -52
c0 -31.333 -5.16699 -60.833 -15.5 -88.5s-24.5 -52.334 -42.5 -74.001s-39.167 -39.5 -63.5 -53.5s-50.833 -23 -79.5 -27h15z" />
    <glyph glyph-name="Scaron" unicode="&#x160;" horiz-adv-x="614" 
d="M189 130c32 -22 65.6689 -33.001 101.002 -33.001c37.333 0 71.5 10.5 102.5 31.5s53.5 49.833 67.5 86.5c0.666992 3.33301 1.5 7 2.5 11s1.83301 10.333 2.5 19s1.66699 20.5 3 35.5s2.66602 35.167 3.99902 60.5c0 7.33301 -0.166992 15.5 -0.5 24.5
s-0.5 18.833 -0.5 29.5h-421l1 35c0.666992 37.333 9.16699 72.333 25.5 105s37.166 61.167 62.499 85.5s54.333 43.5 87 57.5s66 21 100 21c15.333 0 29.666 -1 42.999 -3s27 -5.66699 41 -11l7 -3l-1 -101c-14 6.66699 -27.667 11.667 -41 15s-28 5 -44 5
c-30 0 -58.167 -7.66699 -84.5 -23s-47.166 -36 -62.499 -62c-3.33301 -2 -6.33301 -5.83301 -9 -11.5s-4 -9.16699 -4 -10.5l391 -1c0 -18.667 0.333008 -36 1 -52s1 -31 1 -45c0 -42.667 -0.833008 -76.667 -2.5 -102s-3.66699 -45.166 -6 -59.499s-4.5 -25 -6.5 -32
s-3.66699 -13.5 -5 -19.5c-10 -27.333 -23.667 -52.333 -41 -75s-37 -42 -59 -58s-45.833 -28.333 -71.5 -37s-52.5 -13 -80.5 -13c-23.333 0 -55 5.66699 -95 17l-10 5zM191.002 911.999h64l64 -97l38 97h67l-105 -183z" />
    <glyph glyph-name="scaron" unicode="&#x161;" horiz-adv-x="472" 
d="M145 106c8 -2.66699 15.668 -4.66895 23.001 -6.00195s15 -2 23 -2c26.667 0 50.5 6.83301 71.5 20.5s37.5 32.834 49.5 57.501l9 21h-266c-2 9.33301 -3.33301 18.5 -4 27.5s-1 18.167 -1 27.5c0 32.667 6.16699 63.667 18.5 93s29.166 54.833 50.499 76.5
s46 38.834 74 51.501s57.333 19 88 19c7.33301 0 14.833 -0.333008 22.5 -1s15.167 -2 22.5 -4l-1 -101c-8.66699 2 -16.334 3.66699 -23.001 5s-13.667 2 -21 2c-23.333 0 -45.166 -5.5 -65.499 -16.5s-36.833 -26.833 -49.5 -47.5l-15 -33h266l5 -52
c0 -34 -6 -65.833 -18 -95.5s-28.333 -55.667 -49 -78s-45 -39.833 -73 -52.5s-58.333 -19 -91 -19h-19c-0.666992 0 -3.5 0.5 -8.5 1.5s-9.5 1.5 -13.5 1.5l-5 2v102zM120.001 701.998h25l102 -97l39 97h66l-105 -183z" />
    <glyph glyph-name="Tcommaaccent" unicode="&#x162;" horiz-adv-x="387" 
d="M337 700v-109h-90v-591h-101v594h-96v106h287zM241 -19l-0.00195312 -96.999c0 -32 -7.33301 -56.167 -22 -72.5s-32.667 -24.5 -54 -24.5h-11c-2 0 -3 0.333008 -3 1l-1 35h1c2.66699 -0.666992 4.83398 -1.33398 6.50098 -2.00098s4.16699 -1 7.5 -1
c12.667 0 23.334 4.83301 32.001 14.5s13 24.167 13 43.5v5h-60v98h91z" />
    <glyph glyph-name="tcommaaccent" unicode="&#x163;" horiz-adv-x="376" 
d="M50 206l-0.00195312 490h91v-206h139v-98h-139l1 -187c2.66699 -20 8.33398 -37.5 17.001 -52.5s19.334 -27.5 32.001 -37.5s26.5 -17.5 41.5 -22.5s30.5 -7.5 46.5 -7.5c8.66699 0 16.167 0.5 22.5 1.5s13.833 2.83301 22.5 5.5h2v-88l-2 -1
c0 -1.33301 -3.83301 -2.33301 -11.5 -3s-15.5 -1 -23.5 -1h-12c-28.667 0 -56 4.66699 -82 14s-49.167 22.666 -69.5 39.999s-37 38.333 -50 63s-20.833 52.334 -23.5 83.001zM235.998 -10l-0.00195312 -96.999c0 -32 -7.33301 -56.167 -22 -72.5s-32.667 -24.5 -54 -24.5
h-11c-2 0 -3 0.333008 -3 1l-1 35h1c2.66699 -0.666992 4.83398 -1.33398 6.50098 -2.00098s4.16699 -1 7.5 -1c12.667 0 23.334 4.83301 32.001 14.5s13 24.167 13 43.5v5h-60v98h91z" />
    <glyph glyph-name="Tcaron" unicode="&#x164;" horiz-adv-x="387" 
d="M337 700v-109h-90v-591h-101v594h-96v106h287zM75 892h64l63 -96l39 96h66l-103 -183l-2 1z" />
    <glyph glyph-name="tcaron" unicode="&#x165;" horiz-adv-x="532" 
d="M50 206l-0.00195312 490h91v-206h139v-98h-139l1 -187c2.66699 -20 8.33398 -37.5 17.001 -52.5s19.334 -27.5 32.001 -37.5s26.5 -17.5 41.5 -22.5s30.5 -7.5 46.5 -7.5c8.66699 0 16.167 0.5 22.5 1.5s13.833 2.83301 22.5 5.5h2v-88l-2 -1
c0 -1.33301 -3.83301 -2.33301 -11.5 -3s-15.5 -1 -23.5 -1h-12c-28.667 0 -56 4.66699 -82 14s-49.167 22.666 -69.5 39.999s-37 38.333 -50 63s-20.833 52.334 -23.5 83.001zM481.998 703l-0.00195312 -95.999c0 -32 -7.16699 -56.167 -21.5 -72.5
s-32.5 -24.5 -54.5 -24.5h-11c-2 0 -3 0.333008 -3 1l-1 35h1c2.66699 -0.666992 4.83398 -1.33398 6.50098 -2.00098s4.16699 -1 7.5 -1c12.667 0 23.334 4.83301 32.001 14.5s13 24.167 13 43.5v5h-60v97h91z" />
    <glyph glyph-name="Umacron" unicode="&#x16a;" horiz-adv-x="617" 
d="M50 217v484.001h104v-471c5.33301 -19.333 12.166 -37.333 20.499 -54s18.666 -31 30.999 -43s26.833 -21.333 43.5 -28s36.667 -10 60 -10c17.333 0 35.166 3.33301 53.499 10s35 16 50 28s27.333 26 37 42s14.5 33.333 14.5 52l1 469h102v-464
c0 -32.667 -7.16699 -63.334 -21.5 -92.001s-33.666 -53.667 -57.999 -75s-52.166 -38.166 -83.499 -50.499s-63 -18.5 -95 -18.5c-33.333 0 -64.666 5.5 -93.999 16.5s-55.5 26.167 -78.5 45.5s-42 42.666 -57 69.999s-24.833 57 -29.5 89zM454 795.001v-65h-290v65h290z
" />
    <glyph glyph-name="umacron" unicode="&#x16b;" horiz-adv-x="561" 
d="M320 99l0.00292969 2.00098c11.333 4 23.166 10.333 35.499 19s23.166 19 32.499 31s17 25.167 23 39.5s9 29.5 9 45.5v255h91v-491h-91l-1 45c-44.667 -31.333 -91 -47 -139 -47c-32.667 0 -63 6.5 -91 19.5s-52.167 30.833 -72.5 53.5s-36.5 49.167 -48.5 79.5
s-18 62.5 -18 96.5v244h91l1 -256c1.33301 -20 5.83301 -38.333 13.5 -55s18 -31.334 31 -44.001s27.667 -22.5 44 -29.5s33.166 -10.5 50.499 -10.5c13.333 0 26.333 1 39 3zM425.003 585.001v-65h-290v65h290z" />
    <glyph glyph-name="Ubreve" unicode="&#x16c;" horiz-adv-x="617" 
d="M50 217v484.001h104v-471c5.33301 -19.333 12.166 -37.333 20.499 -54s18.666 -31 30.999 -43s26.833 -21.333 43.5 -28s36.667 -10 60 -10c17.333 0 35.166 3.33301 53.499 10s35 16 50 28s27.333 26 37 42s14.5 33.333 14.5 52l1 469h102v-464
c0 -32.667 -7.16699 -63.334 -21.5 -92.001s-33.666 -53.667 -57.999 -75s-52.166 -38.166 -83.499 -50.499s-63 -18.5 -95 -18.5c-33.333 0 -64.666 5.5 -93.999 16.5s-55.5 26.167 -78.5 45.5s-42 42.666 -57 69.999s-24.833 57 -29.5 89zM307 716.001
c-35.333 0.666992 -65.167 14.332 -89.5 40.999s-36.5 66 -36.5 118h45c0 -34 7.5 -57.833 22.5 -71.5s34.5 -20.5 58.5 -20.5c24.667 0 44.834 6.33301 60.501 19s23.5 36.334 23.5 71.001l45 -1c0 -22.667 -3.33301 -43.5 -10 -62.5s-15.667 -35.5 -27 -49.5
s-24.833 -24.833 -40.5 -32.5s-32.834 -11.5 -51.501 -11.5z" />
    <glyph glyph-name="ubreve" unicode="&#x16d;" horiz-adv-x="561" 
d="M320 99l0.00292969 2.00098c11.333 4 23.166 10.333 35.499 19s23.166 19 32.499 31s17 25.167 23 39.5s9 29.5 9 45.5v255h91v-491h-91l-1 45c-44.667 -31.333 -91 -47 -139 -47c-32.667 0 -63 6.5 -91 19.5s-52.167 30.833 -72.5 53.5s-36.5 49.167 -48.5 79.5
s-18 62.5 -18 96.5v244h91l1 -256c1.33301 -20 5.83301 -38.333 13.5 -55s18 -31.334 31 -44.001s27.667 -22.5 44 -29.5s33.166 -10.5 50.499 -10.5c13.333 0 26.333 1 39 3zM279.003 505.001c-36 0.666992 -66.167 14.332 -90.5 40.999s-36.5 66 -36.5 118h45
c0 -34 7.5 -57.833 22.5 -71.5s34.833 -20.5 59.5 -20.5c24 0 43.833 6.33301 59.5 19s23.5 36.334 23.5 71.001l45 -1c0 -22.667 -3.33301 -43.5 -10 -62.5s-15.5 -35.5 -26.5 -49.5s-24.5 -24.833 -40.5 -32.5s-33 -11.5 -51 -11.5z" />
    <glyph glyph-name="Uring" unicode="&#x16e;" horiz-adv-x="617" 
d="M50 217v484.001h104v-471c5.33301 -19.333 12.166 -37.333 20.499 -54s18.666 -31 30.999 -43s26.833 -21.333 43.5 -28s36.667 -10 60 -10c17.333 0 35.166 3.33301 53.499 10s35 16 50 28s27.333 26 37 42s14.5 33.333 14.5 52l1 469h102v-464
c0 -32.667 -7.16699 -63.334 -21.5 -92.001s-33.666 -53.667 -57.999 -75s-52.166 -38.166 -83.499 -50.499s-63 -18.5 -95 -18.5c-33.333 0 -64.666 5.5 -93.999 16.5s-55.5 26.167 -78.5 45.5s-42 42.666 -57 69.999s-24.833 57 -29.5 89zM209 808.001
c0 14.667 2.66699 28.5 8 41.5s12.333 24.5 21 34.5s19 17.833 31 23.5s25.333 8.5 40 8.5c13.333 0 26.166 -2.83301 38.499 -8.5s23.166 -13.5 32.499 -23.5s16.666 -21.5 21.999 -34.5s8 -26.833 8 -41.5s-2.66699 -28.5 -8 -41.5s-12.666 -24.333 -21.999 -34
s-20.166 -17.334 -32.499 -23.001s-25.166 -8.5 -38.499 -8.5c-14.667 0 -28 2.83301 -40 8.5s-22.333 13.334 -31 23.001s-15.667 21 -21 34s-8 26.833 -8 41.5zM249 808.001c0 -17.333 5.83203 -32.166 17.499 -44.499s25.834 -18.5 42.501 -18.5s30.5 6.16699 41.5 18.5
s16.5 27.166 16.5 44.499s-5.5 32.333 -16.5 45s-24.833 19 -41.5 19c-16 0 -30 -6.16699 -42 -18.5s-18 -27.5 -18 -45.5z" />
    <glyph glyph-name="uring" unicode="&#x16f;" horiz-adv-x="561" 
d="M320 99l0.00292969 2.00098c11.333 4 23.166 10.333 35.499 19s23.166 19 32.499 31s17 25.167 23 39.5s9 29.5 9 45.5v255h91v-491h-91l-1 45c-44.667 -31.333 -91 -47 -139 -47c-32.667 0 -63 6.5 -91 19.5s-52.167 30.833 -72.5 53.5s-36.5 49.167 -48.5 79.5
s-18 62.5 -18 96.5v244h91l1 -256c1.33301 -20 5.83301 -38.333 13.5 -55s18 -31.334 31 -44.001s27.667 -22.5 44 -29.5s33.166 -10.5 50.499 -10.5c13.333 0 26.333 1 39 3zM182.003 598.001c0 14.667 2.83301 28.499 8.5 41.499s12.834 24.5 21.501 34.5
s19 17.833 31 23.5s25 8.5 39 8.5c14.667 0 28.167 -2.83301 40.5 -8.5s23.166 -13.5 32.499 -23.5s16.5 -21.5 21.5 -34.5s7.5 -26.833 7.5 -41.5c0 -30 -9.66699 -55.333 -29 -76s-43.666 -31 -72.999 -31c-14 0 -27 2.83301 -39 8.5s-22.333 13.334 -31 23.001
s-15.834 21 -21.501 34s-8.5 26.833 -8.5 41.5zM224.003 598c0 -17.333 5.83301 -32.166 17.5 -44.499s25.167 -18.5 40.5 -18.5c16.667 0 30.834 6.16699 42.501 18.5s17.5 27.166 17.5 44.499s-5.5 32.333 -16.5 45s-24.833 19 -41.5 19s-30.834 -6.16699 -42.501 -18.5
s-17.5 -27.5 -17.5 -45.5z" />
    <glyph glyph-name="Uhungarumlaut" unicode="&#x170;" horiz-adv-x="617" 
d="M50 217v484.001h104v-471c5.33301 -19.333 12.166 -37.333 20.499 -54s18.666 -31 30.999 -43s26.833 -21.333 43.5 -28s36.667 -10 60 -10c17.333 0 35.166 3.33301 53.499 10s35 16 50 28s27.333 26 37 42s14.5 33.333 14.5 52l1 469h102v-464
c0 -32.667 -7.16699 -63.334 -21.5 -92.001s-33.666 -53.667 -57.999 -75s-52.166 -38.166 -83.499 -50.499s-63 -18.5 -95 -18.5c-33.333 0 -64.666 5.5 -93.999 16.5s-55.5 26.167 -78.5 45.5s-42 42.666 -57 69.999s-24.833 57 -29.5 89zM311 881.001l41 -52l-150 -132
l-41 53zM459 881.001l40 -52l-150 -132l-42 53z" />
    <glyph glyph-name="uhungarumlaut" unicode="&#x171;" horiz-adv-x="561" 
d="M320 99l0.00292969 2.00098c11.333 4 23.166 10.333 35.499 19s23.166 19 32.499 31s17 25.167 23 39.5s9 29.5 9 45.5v255h91v-491h-91l-1 45c-44.667 -31.333 -91 -47 -139 -47c-32.667 0 -63 6.5 -91 19.5s-52.167 30.833 -72.5 53.5s-36.5 49.167 -48.5 79.5
s-18 62.5 -18 96.5v244h91l1 -256c1.33301 -20 5.83301 -38.333 13.5 -55s18 -31.334 31 -44.001s27.667 -22.5 44 -29.5s33.166 -10.5 50.499 -10.5c13.333 0 26.333 1 39 3zM296.003 674.001l41 -52l-150 -132l-41 52zM444.003 674.001l40 -52l-150 -132l-42 52z" />
    <glyph glyph-name="Uogonek" unicode="&#x172;" horiz-adv-x="617" 
d="M50 217l-0.000976562 484.001h104v-471c5.33301 -19.333 12.166 -37.333 20.499 -54s18.666 -31 30.999 -43s26.833 -21.333 43.5 -28s36.667 -10 60 -10c17.333 0 35.166 3.33301 53.499 10s35 16 50 28s27.333 26 37 42s14.5 33.333 14.5 52l1 469h102v-464
c0 -25.333 -4.33301 -49.5 -13 -72.5s-20.667 -44.167 -36 -63.5s-33.166 -36.333 -53.499 -51s-42.166 -26 -65.499 -34v-24h3c2 -1.33301 5.33301 -2 10 -2v-38l-7 2c-0.666992 0.666992 -3.66699 1 -9 1c-14 0 -26 -5.5 -36 -16.5s-15 -24.167 -15 -39.5
s5 -28.5 15 -39.5s22 -16.5 36 -16.5c5.33301 0 8.33301 0.333008 9 1l7 2v-38c-1.33301 0 -2.83301 -0.333008 -4.5 -1s-3.5 -1 -5.5 -1h-6c-24 0 -44.5 9 -61.5 27s-25.5 40 -25.5 66c0 19.333 4.66699 36.5 14 51.5s22 26.167 38 33.5v22l-31 -3
c-4 -0.666992 -7.66699 -1.16699 -11 -1.5s-6.66602 -0.5 -9.99902 -0.5c-33.333 0 -64.666 5.5 -93.999 16.5s-55.5 26.167 -78.5 45.5s-42 42.666 -57 69.999s-24.833 57 -29.5 89z" />
    <glyph glyph-name="uogonek" unicode="&#x173;" horiz-adv-x="561" 
d="M320 99l0.000976562 2.00098c11.333 4 23.166 10.333 35.499 19s23.166 19 32.499 31s17 25.167 23 39.5s9 29.5 9 45.5v255h91v-491h-27v-25h8c2.66699 0 4.33398 -0.333008 5.00098 -1l2 -38h-2c-3.33301 0.666992 -6.16602 1.16699 -8.49902 1.5
s-4.83301 0.5 -7.5 0.5c-14 0 -26 -5.33301 -36 -16s-15 -24 -15 -40c0 -15.333 5 -28.333 15 -39s22 -16 36 -16c6 0 11.333 1 16 3v-39c-1.33301 0 -2.83301 -0.166992 -4.5 -0.5s-3.5 -0.5 -5.5 -0.5h-6c-24 0 -44.5 9 -61.5 27s-25.5 40 -25.5 66
c0 19.333 5 36.5 15 51.5s22.333 26.167 37 33.5v32h-26l-1 45c-44.667 -31.333 -91 -47 -139 -47c-32.667 0 -63 6.5 -91 19.5s-52.167 30.833 -72.5 53.5s-36.5 49.167 -48.5 79.5s-18 62.5 -18 96.5v244h91l1 -256c1.33301 -20 5.83301 -38.333 13.5 -55
s18 -31.334 31 -44.001s27.667 -22.5 44 -29.5s33.166 -10.5 50.499 -10.5c13.333 0 26.333 1 39 3z" />
    <glyph glyph-name="Ydieresis" unicode="&#x178;" horiz-adv-x="624" 
d="M240 219l-33.998 11.001l-29 14l-32 21c-36.667 27.333 -62.667 61.333 -78 102l-7 21c-4 10.667 -6.66699 21 -8 31s-2 20.667 -2 32l2 246h102l2 -267c2.66699 -12.667 6.5 -24.834 11.5 -36.501s12.5 -22.167 22.5 -31.5l24 -23
c7.33301 -5.33301 16.666 -10.666 27.999 -15.999s28.666 -10.333 51.999 -15h37l21 3c11.333 2.66699 22 6.5 32 11.5s19.333 10.5 28 16.5l15 14c13.333 13.333 24 29.166 32 47.499s12 36.166 12 53.499l1 243h102v-260c-1.33301 -8.66699 -2.5 -17.167 -3.5 -25.5
s-2.83301 -16.166 -5.5 -23.499v-1c-28.667 -84.667 -89 -140.667 -181 -168l-9 -3v-215h-125v215c0 1.33301 -1 2 -3 2s-4.33301 0.333008 -7 1zM255.002 807.001v-78h-74v78h74zM442.002 807.001v-78h-71v78h71z" />
    <glyph glyph-name="Zacute" unicode="&#x179;" horiz-adv-x="565" 
d="M50 107l340 486h-339v106h464v-106l-346 -486h346v-108h-465v108zM337 912l42 -52l-150 -132l-42 52z" />
    <glyph glyph-name="zacute" unicode="&#x17a;" horiz-adv-x="565" 
d="M50 97l324 298h-323v98h463v-100l-325 -299h326v-97h-465v100zM337 702l40 -52l-150 -132l-40 52z" />
    <glyph glyph-name="Zdotaccent" unicode="&#x17b;" horiz-adv-x="565" 
d="M50 107l340 486h-339v106h464v-106l-346 -486h346v-108h-465v108zM329 827v-98h-93v98h93z" />
    <glyph glyph-name="zdotaccent" unicode="&#x17c;" horiz-adv-x="565" 
d="M50 97l324 298h-323v98h463v-100l-325 -299h326v-97h-465v100zM327 617v-98h-91v98h91z" />
    <glyph glyph-name="Zcaron" unicode="&#x17d;" horiz-adv-x="565" 
d="M50 107l340 486h-339v106h464v-106l-346 -486h346v-108h-464zM166 912h64l64 -97l40 97h65l-104 -183z" />
    <glyph glyph-name="zcaron" unicode="&#x17e;" horiz-adv-x="565" 
d="M50 97l324 298h-323v98h463v-100l-325 -299h326v-97h-465v100zM166 702h64l64 -97l40 97h65l-104 -183z" />
    <glyph glyph-name="Scommaaccent" unicode="&#x218;" horiz-adv-x="614" 
d="M187 130c33.333 -22 67.6689 -33.001 103.002 -33.001c37.333 0 71.5 10.5 102.5 31.5s53.5 49.833 67.5 86.5c0.666992 3.33301 1.5 7 2.5 11s1.83301 10.333 2.5 19s1.66699 20.5 3 35.5s2.66602 35.167 3.99902 60.5c0 7.33301 -0.166992 15.5 -0.5 24.5
s-0.5 18.833 -0.5 29.5h-421l1 35c0.666992 37.333 9.16699 72.333 25.5 105s37.166 61.167 62.499 85.5s54.333 43.5 87 57.5s66 21 100 21c15.333 0 29.666 -1 42.999 -3s27 -5.66699 41 -11l7 -3l-1 -101c-14 6.66699 -27.667 11.667 -41 15s-28 5 -44 5
c-30 0 -58.167 -7.66699 -84.5 -23s-47.166 -36 -62.499 -62c-3.33301 -2 -6.33301 -5.83301 -9 -11.5s-4 -9.16699 -4 -10.5l391 -1c0 -18.667 0.333008 -36 1 -52s1 -31 1 -45c0 -42.667 -0.833008 -76.667 -2.5 -102s-3.66699 -45.166 -6 -59.499s-4.5 -25 -6.5 -32
s-3.66699 -13.5 -5 -19.5c-10 -27.333 -23.667 -52.333 -41 -75s-37 -42 -59 -58s-45.833 -28.333 -71.5 -37s-52.5 -13 -80.5 -13c-23.333 0 -55 5.66699 -95 17l-10 5v108zM359.003 -22.001l-0.000976562 -96.999c0 -32 -7.33301 -56.167 -22 -72.5s-33 -24.5 -55 -24.5
h-11c-1.33301 0 -2 0.333008 -2 1l-2 35h2c2 -0.666992 3.83301 -1.33398 5.5 -2.00098s4.16699 -1 7.5 -1c12.667 0 23.334 4.83301 32.001 14.5s13 24.167 13 43.5v5h-60v98h92z" />
    <glyph glyph-name="scommaaccent" unicode="&#x219;" horiz-adv-x="472" 
d="M145 106c8 -2.66699 15.668 -4.66895 23.001 -6.00195s15 -2 23 -2c26.667 0 50.5 6.83301 71.5 20.5s37.5 32.834 49.5 57.501l9 21h-266c-2 9.33301 -3.33301 18.5 -4 27.5s-1 18.167 -1 27.5c0 32.667 6.16699 63.667 18.5 93s29.166 54.833 50.499 76.5
s46 38.834 74 51.501s57.333 19 88 19c7.33301 0 14.833 -0.333008 22.5 -1s15.167 -2 22.5 -4l-1 -101c-8.66699 2 -16.334 3.66699 -23.001 5s-13.667 2 -21 2c-23.333 0 -45.166 -5.5 -65.499 -16.5s-36.833 -26.833 -49.5 -47.5l-15 -33h266l5 -52
c0 -34 -6 -65.833 -18 -95.5s-28.333 -55.667 -49 -78s-45 -39.833 -73 -52.5s-58.333 -19 -91 -19h-19c-0.666992 0 -3.5 0.5 -8.5 1.5s-9.5 1.5 -13.5 1.5l-5 2v102zM297.001 -12.002l-0.00195312 -96.999c0 -32 -7.16699 -56.167 -21.5 -72.5s-32.5 -24.5 -54.5 -24.5
h-11c-2 0 -3 0.333008 -3 1l-1 35h1c2.66699 -0.666992 4.83398 -1.33398 6.50098 -2.00098s4.16699 -1 7.5 -1c12.667 0 23.334 4.83301 32.001 14.5s13 24.167 13 43.5v5h-60v98h91z" />
    <glyph glyph-name="circumflex" unicode="&#x2c6;" horiz-adv-x="411" 
d="M210 700l151 -181h-87l-64 84l-74 -84h-86z" />
    <glyph glyph-name="caron" unicode="&#x2c7;" horiz-adv-x="332" 
d="M50 702h65l62 -97l40 97h65l-103 -183z" />
    <glyph glyph-name="breve" unicode="&#x2d8;" horiz-adv-x="355" 
d="M176 505c-36 0.666992 -65.999 14.332 -89.999 40.999s-36 66 -36 118h45c0 -34 7.5 -57.833 22.5 -71.5s34.5 -20.5 58.5 -20.5s44 6.33301 60 19s24 36.334 24 71.001h45c0 -23.333 -3.33301 -44.5 -10 -63.5s-15.667 -35.5 -27 -49.5s-24.833 -24.833 -40.5 -32.5
s-32.834 -11.5 -51.501 -11.5z" />
    <glyph glyph-name="dotaccent" unicode="&#x2d9;" horiz-adv-x="190" 
d="M140 617v-98h-90v98h90z" />
    <glyph glyph-name="ring" unicode="&#x2da;" horiz-adv-x="301" 
d="M50 626c0 14.667 2.66699 28.499 8 41.499s12.666 24.5 21.999 34.5s20 17.833 32 23.5s24.667 8.5 38 8.5c14 0 27.333 -2.83301 40 -8.5s23.5 -13.5 32.5 -23.5s16 -21.5 21 -34.5s7.5 -26.833 7.5 -41.5c0 -30 -9.5 -55.333 -28.5 -76s-43.167 -31 -72.5 -31
c-13.333 0 -26 2.83301 -38 8.5s-22.667 13.334 -32 23.001s-16.666 21 -21.999 34s-8 26.833 -8 41.5zM90 625.999c0 -17.333 5.83301 -32.166 17.5 -44.499s25.834 -18.5 42.501 -18.5c17.333 0 31.666 6.16699 42.999 18.5s17 27.166 17 44.499s-5.66699 32.333 -17 45
s-25.333 19 -42 19s-31 -6.16699 -43 -18.5s-18 -27.5 -18 -45.5z" />
    <glyph glyph-name="ogonek" unicode="&#x2db;" horiz-adv-x="204" 
d="M140 1v-26h9c3.33301 0 5 -0.333008 5 -1v-38l-11 2h-6c-14 0 -26 -5.33301 -36 -16s-15 -24 -15 -40c0 -15.333 5 -28.333 15 -39s22 -16 36 -16c6 0 11.667 1 17 3v-39c-1.33301 0 -3 -0.166992 -5 -0.5s-3.66699 -0.5 -5 -0.5h-7c-24 0 -44.5 9 -61.5 27
s-25.5 40 -25.5 66c0 19.333 4.83301 36.5 14.5 51.5s22.167 26.167 37.5 33.5v33h38z" />
    <glyph glyph-name="tilde" unicode="&#x2dc;" horiz-adv-x="392" 
d="M200 597c30.667 -24 54.001 -36 70.001 -36c12.667 0 21.667 6.16699 27 18.5s8 27.5 8 45.5l37 -8c-0.666992 -30 -7.16699 -54.667 -19.5 -74s-29.166 -29 -50.499 -29c-8.66699 0 -20.334 3.83301 -35.001 11.5s-29.5 16 -44.5 25l-42 25
c-13 7.66699 -22.5 11.5 -28.5 11.5c-12 0 -20.5 -6.33301 -25.5 -19s-8.16699 -27.667 -9.5 -45l-37 8c1.33301 28 8.16602 52 20.499 72s28.833 30 49.5 30c19.333 0 46 -12 80 -36z" />
    <glyph glyph-name="hungarumlaut" unicode="&#x2dd;" horiz-adv-x="437" 
d="M200 702l41 -52l-151 -132l-40 52zM347 702l40 -52l-150 -132l-41 52z" />
    <glyph glyph-name="quoteleft" unicode="&#x2018;" horiz-adv-x="191" 
d="M50 510l0.000976562 95.999c0 32 7 56.167 21 72.5s32.333 24.5 55 24.5h10c2.66699 0 4 -0.333008 4 -1l1 -35h-1c-2.66699 0.666992 -5 1.33398 -7 2.00098s-4.33301 1 -7 1c-12.667 0 -23.334 -4.83301 -32.001 -14.5s-13 -24.167 -13 -43.5v-5h60v-97h-91z" />
    <glyph glyph-name="quoteright" unicode="&#x2019;" horiz-adv-x="191" 
d="M141 703l-0.00195312 -95.999c0 -32 -7.33301 -56.167 -22 -72.5s-32.667 -24.5 -54 -24.5h-11c-2 0 -3 0.333008 -3 1l-1 35h1c2.66699 -0.666992 4.83398 -1.33398 6.50098 -2.00098s4.16699 -1 7.5 -1c12.667 0 23.334 4.83301 32.001 14.5s13 24.167 13 43.5v5h-60
v97h91z" />
    <glyph glyph-name="quotesinglbase" unicode="&#x201a;" horiz-adv-x="191" 
d="M141 99l-0.00195312 -96.999c0 -32 -7.33301 -56.167 -22 -72.5s-32.667 -24.5 -54 -24.5h-11c-2 0 -3 0.333008 -3 1l-1 35h1c2.66699 -0.666992 4.83398 -1.33398 6.50098 -2.00098s4.16699 -1 7.5 -1c12.667 0 23.334 4.83301 32.001 14.5s13 24.167 13 43.5v5h-60v98
h91z" />
    <glyph glyph-name="quotedblleft" unicode="&#x201c;" horiz-adv-x="357" 
d="M216 509v96c0 32 7.5 56.333 22.5 73s32.833 25 53.5 25h7c0.666992 -0.666992 2 -1 4 -1s3.33301 -0.333008 4 -1v-35c-4.66699 2 -9.66699 3 -15 3c-12 0 -22.5 -4.83301 -31.5 -14.5s-13.5 -24.167 -13.5 -43.5v-5h60v-97h-91zM50 510l0.000976562 95.999
c0 32 7 56.167 21 72.5s32.333 24.5 55 24.5h10c2.66699 0 4 -0.333008 4 -1l1 -35h-1c-2.66699 0.666992 -5 1.33398 -7 2.00098s-4.33301 1 -7 1c-12.667 0 -23.334 -4.83301 -32.001 -14.5s-13 -24.167 -13 -43.5v-5h60v-97h-91z" />
    <glyph glyph-name="quotedblright" unicode="&#x201d;" horiz-adv-x="359" 
d="M309 703v-97c0 -32 -7.5 -56.167 -22.5 -72.5s-33.167 -24.5 -54.5 -24.5h-6c-0.666992 0.666992 -2.33398 1 -5.00098 1h-4v35l8 -2c0.666992 -0.666992 3 -1 7 -1c12.667 0 23.334 5 32.001 15s13 24.667 13 44v4h-60v98h92zM141 703l-0.00195312 -95.999
c0 -32 -7.33301 -56.167 -22 -72.5s-32.667 -24.5 -54 -24.5h-11c-2 0 -3 0.333008 -3 1l-1 35h1c2.66699 -0.666992 4.83398 -1.33398 6.50098 -2.00098s4.16699 -1 7.5 -1c12.667 0 23.334 4.83301 32.001 14.5s13 24.167 13 43.5v5h-60v97h91z" />
    <glyph glyph-name="quotedblbase" unicode="&#x201e;" horiz-adv-x="359" 
d="M309 95l-0.000976562 -96c0 -32 -7.5 -56.333 -22.5 -73s-33.167 -25 -54.5 -25h-6c-0.666992 0.666992 -2 1 -4 1s-3.66699 0.333008 -5 1v35c5.33301 -2 10.333 -3 15 -3c12.667 0 23.334 4.83301 32.001 14.5s13 24.167 13 43.5v5h-60v97h92zM140.999 96
l-0.00195312 -97c0 -32 -7.33301 -56.167 -22 -72.5s-32.667 -24.5 -54 -24.5h-5c-0.666992 0 -1.5 0.166992 -2.5 0.5s-1.83301 0.5 -2.5 0.5h-5l1 35c2.66699 -0.666992 4.83398 -1.16699 6.50098 -1.5s4.16699 -0.5 7.5 -0.5c12.667 0 23.334 4.83301 32.001 14.5
s13 24.167 13 43.5v5h-60v97h91z" />
    <glyph glyph-name="dagger" unicode="&#x2020;" horiz-adv-x="390" 
d="M50 441v101h100v162h90v-162h100v-101h-100v-441h-90v441h-100z" />
    <glyph glyph-name="daggerdbl" unicode="&#x2021;" horiz-adv-x="392" 
d="M147 543v161h90v-161h103v-101h-103v-179h105v-101h-105v-162h-90v162h-95v101h95v179h-97v101h97z" />
    <glyph glyph-name="bullet" unicode="&#x2022;" horiz-adv-x="220" 
d="M50 305c0 18 6 33.167 18 45.5s26.333 18.5 43 18.5s30.667 -6.33301 42 -19s17 -27.667 17 -45s-5.66699 -32.166 -17 -44.499s-25.666 -18.5 -42.999 -18.5c-16.667 0 -30.834 6.16699 -42.501 18.5s-17.5 27.166 -17.5 44.499z" />
    <glyph glyph-name="ellipsis" unicode="&#x2026;" horiz-adv-x="505" 
d="M141 99v-98h-91v98h91zM455 99v-98h-91v98h91zM299 99v-98h-93v98h93z" />
    <glyph glyph-name="perthousand" unicode="&#x2030;" horiz-adv-x="705" 
d="M176 -1h-64l199 702h61zM257 197c3.33301 23.333 13.832 42.6699 31.499 58.0029s37.834 23 60.501 23c25.333 0 46.833 -9.33301 64.5 -28s26.5 -42 26.5 -70v-86c0 -13.333 -2.66699 -25.833 -8 -37.5s-12.5 -21.834 -21.5 -30.501s-19 -15.334 -30 -20.001
s-22.167 -7 -33.5 -7c-22 0 -41 7.16699 -57 21.5s-27 33.166 -33 56.499v120zM475.999 197.004c3.33301 24 13.4971 43.166 30.4971 57.499s36.5 21.5 58.5 21.5c12.667 0 24.334 -2.5 35.001 -7.5s20 -11.833 28 -20.5s14.5 -18.834 19.5 -30.501s7.5 -24.167 7.5 -37.5
v-85c0 -13.333 -2.66699 -25.666 -8 -36.999s-12.166 -21.166 -20.499 -29.499s-18.166 -14.833 -29.499 -19.5s-22.333 -7 -33 -7c-22 0 -40.833 7.16699 -56.5 21.5s-26.167 32.5 -31.5 54.5v119zM49.9961 620.003c4 23.333 14.3311 42.332 30.998 56.999s36 22 58 22
c25.333 0 46.833 -9.33301 64.5 -28s26.5 -41.334 26.5 -68.001v-85c0 -13.333 -2.66699 -25.666 -8 -36.999s-12.166 -21.166 -20.499 -29.499s-18.166 -14.833 -29.499 -19.5s-22.333 -7 -33 -7c-22.667 0 -42 7 -58 21s-26.333 32.333 -31 55v119zM293.994 78.002
c4.66699 -11.333 11.834 -20.833 21.501 -28.5s20.167 -11.5 31.5 -11.5c12 0 23.167 3.83301 33.5 11.5s17.5 17.167 21.5 28.5l-1 117c-3.33301 10.667 -9 20.5 -17 29.5s-18 13.5 -30 13.5h-15c-1.33301 -0.666992 -2.5 -1 -3.5 -1s-2.16699 -0.333008 -3.5 -1
c-8.66699 -2 -16.334 -7 -23.001 -15s-11.667 -16.667 -15 -26v-117zM510.994 79.002c5.33301 -11.333 12.6689 -20.5 22.002 -27.5s19.666 -10.5 30.999 -10.5s22 3.66699 32 11s17 16.666 21 27.999v114c-3.33301 10 -8.83301 19.667 -16.5 29s-17.834 14 -30.501 14h-15
c-10 0 -19 -4.66699 -27 -14s-13.667 -18.666 -17 -27.999v-116zM85.9971 502.002c5.33301 -11.333 12.5039 -20.667 21.5039 -28s19.5 -11 31.5 -11c10.667 0 21.167 3.83301 31.5 11.5s17.5 17.167 21.5 28.5l-1 114c-2.66699 10 -7.83398 19.667 -15.501 29
s-17.834 14 -30.501 14h-15c-0.666992 -0.666992 -1.83398 -1 -3.50098 -1s-2.5 -0.333008 -2.5 -1c-9.33301 -2 -17.333 -7 -24 -15s-11.334 -16.667 -14.001 -26v-115z" />
    <glyph glyph-name="guilsinglleft" unicode="&#x2039;" horiz-adv-x="344" 
d="M76 252l240 210v-81l-189 -166l189 -136v-78l-236 170h-4l-49 36l2 2z" />
    <glyph glyph-name="guilsinglright" unicode="&#x203a;" horiz-adv-x="344" 
d="M315 209l1 -2l-49 -36h-3l-237 -170v78l189 136l-189 166v81l240 -210z" />
    <glyph glyph-name="fraction" unicode="&#x2044;" horiz-adv-x="356" 
d="M112 6h-62l196 694h60z" />
    <glyph glyph-name="Euro" unicode="&#x20ac;" 
d="M50 351c0 48.667 9.16406 94.334 27.4971 137.001s43.166 80 74.499 112s67.833 57.167 109.5 75.5s85.834 27.5 132.501 27.5c43.333 0 77.666 -5.33301 102.999 -16c1.33301 0 3.33301 -0.333008 6 -1s4.66699 -1 6 -1l1 -124c-17.333 8 -34.833 14.333 -52.5 19
s-35.5 7 -53.5 7c-29.333 0 -59.666 -6.33301 -90.999 -19s-57 -30.667 -77 -54h79v-116h-138l-1 -3c0 -1.33301 -0.333008 -5.83301 -1 -13.5s-1 -13.167 -1 -16.5v-26c0 -3.33301 0.333008 -9 1 -17s1 -12.333 1 -13h139v-117h-80v-2
c22.667 -23.333 48.167 -41.333 76.5 -54s58.5 -19 90.5 -19c18.667 0 37.167 1.66699 55.5 5s35.833 9.66602 52.5 18.999v-121c0 -2 -4.66699 -4.16699 -14 -6.5s-20.166 -4.5 -32.499 -6.5s-25.166 -3.66699 -38.499 -5s-23.666 -2 -30.999 -2
c-46.667 0 -90.834 9.16699 -132.501 27.5s-78.167 43.5 -109.5 75.5s-56.166 69.333 -74.499 112s-27.5 88 -27.5 136z" />
    <glyph glyph-name="trademark" unicode="&#x2122;" horiz-adv-x="364" 
d="M179 563c0 16 3.99902 30.335 11.999 43.002h-2c-11.333 0 -21.166 -4.16699 -29.499 -12.5s-12.5 -18.5 -12.5 -30.5v-72h-16c-50.667 0 -77.667 20.333 -81 61v144h27v-60h68v-14l9 5c8 6 18.333 9 31 9c9.33301 0 19.666 -2.66699 30.999 -8h1
c6 4.66699 15.667 7 29 7c16.667 0 32.167 -6.33301 46.5 -19s21.5 -28.334 21.5 -47.001v-78h-27v70c0 12 -3.66699 22.5 -11 31.5s-17.333 13.5 -30 13.5c-3.33301 0 -5.33301 -0.333008 -6 -1c8 -12.667 12 -26.667 12 -42v-72h-23v72c0 6 -1.16699 10.833 -3.5 14.5
s-5.16602 8.5 -8.49902 14.5c-3.33301 0 -6 -4 -8 -12s-3 -14 -3 -18v-71h-26v10c0 5.33301 -0.166992 11.166 -0.5 17.499s-0.5 12.833 -0.5 19.5v25zM81.999 536.002c3.33301 -7.33301 8.33105 -12.499 14.998 -15.499s13.334 -4.5 20.001 -4.5v90h-40v-55
c1.33301 -4.66699 2.33301 -7.83398 3 -9.50098s1.33398 -3.5 2.00098 -5.5z" />
    <glyph glyph-name="notequal" unicode="&#x2260;" horiz-adv-x="392" 
d="M126 32l-49 27l28 61h-53v51h79l54 111h-135v51h160l49 101l47 -28l-36 -73h70v-51h-94l-54 -111h150v-51h-173z" />
    <glyph glyph-name="lessequal" unicode="&#x2264;" horiz-adv-x="611" 
d="M137 252l424 210v-81l-335 -166l335 -136v-83h-292v82h101l-229 93h-4l-87 36l1 2z" />
    <glyph glyph-name="greaterequal" unicode="&#x2265;" horiz-adv-x="610" 
d="M475 252l85 -44l-86 -37h-4l-229 -93h101v-82h-292v83l334 136l-334 166v81z" />
    <glyph glyph-name="fi" unicode="&#xfb01;" horiz-adv-x="416" 
d="M309 697c1.33301 0 3.33301 -0.5 6 -1.5s5.66699 -1.5 9 -1.5v-99c-8 0 -15.667 0.833008 -23 2.5s-14.666 2.5 -21.999 2.5c-15.333 0 -30.333 -2.66699 -45 -8s-28 -12.666 -40 -21.999s-22.333 -20.666 -31 -33.999s-14.334 -28.333 -17.001 -45h220v-491h-91v393
h-134v-393h-91v493c0 7.33301 1.5 16.166 4.5 26.499s6.66699 20.833 11 31.5s9 20.667 14 30s9.83301 16.666 14.5 21.999c22 30 48.5 53.167 79.5 69.5s64.5 24.5 100.5 24.5h35z" />
    <glyph glyph-name="fl" unicode="&#xfb02;" horiz-adv-x="451" 
d="M401 697l0.000976562 -697.001h-96v596c-6 2.66699 -14.667 4 -26 4c-15.333 0 -30.333 -2.66699 -45 -8s-28 -12.666 -40 -21.999s-22.333 -20.666 -31 -33.999s-14.334 -28.333 -17.001 -45h130v-98h-135v-393h-91v493c0 8 1.5 17 4.5 27s6.5 20.167 10.5 30.5
s8.66699 20.166 14 29.499s10.333 17 15 23c45.333 62.667 105.333 94 180 94h127z" />
    </font>
</defs>
</svg>
